NewtSerifLight.ufo
<glyph name="exclam" format="1">
  <advance width="207"/>
  <unicode hex="0021"/>
  <outline>
    <contour>
      <point x="116" y="64" type="curve" smooth="yes"/>
      <point x="137" y="64"/>
      <point x="157" y="54"/>
      <point x="157" y="35" type="curve" smooth="yes"/>
      <point x="157" y="7"/>
      <point x="131" y="-7"/>
      <point x="109" y="-7" type="curve" smooth="yes"/>
      <point x="75" y="-7"/>
      <point x="67" y="13"/>
      <point x="67" y="28" type="curve" smooth="yes"/>
      <point x="67" y="53"/>
      <point x="100" y="64"/>
    </contour>
    <contour>
      <point x="99" y="195" type="curve" smooth="yes"/>
      <point x="99" y="276"/>
      <point x="99" y="498"/>
      <point x="95" y="545" type="curve" smooth="yes"/>
      <point x="94" y="558"/>
      <point x="93" y="572"/>
      <point x="99" y="582" type="curve" smooth="yes"/>
      <point x="108" y="598"/>
      <point x="131" y="610"/>
      <point x="139" y="610" type="curve" smooth="yes"/>
      <point x="152" y="610"/>
      <point x="151" y="592"/>
      <point x="143" y="573" type="curve" smooth="yes"/>
      <point x="140" y="566"/>
      <point x="139" y="553"/>
      <point x="138" y="545" type="curve" smooth="yes"/>
      <point x="131" y="450"/>
      <point x="129" y="365"/>
      <point x="130" y="212" type="curve" smooth="yes"/>
      <point x="130" y="191"/>
      <point x="130" y="178"/>
      <point x="115" y="172" type="curve"/>
      <point x="103" y="166"/>
      <point x="99" y="174"/>
    </contour>
  </outline>
</glyph>
<glyph name="quotedbl" format="1">
  <advance width="251"/>
  <unicode hex="0022"/>
  <outline>
    <contour>
      <point x="61" y="599" type="curve" smooth="yes"/>
      <point x="83" y="602"/>
      <point x="82" y="595"/>
      <point x="82" y="564" type="curve" smooth="yes"/>
      <point x="81" y="515"/>
      <point x="81" y="459"/>
      <point x="81" y="405" type="curve" smooth="yes"/>
      <point x="81" y="386"/>
      <point x="72" y="376"/>
      <point x="61" y="376" type="curve" smooth="yes"/>
      <point x="52" y="376"/>
      <point x="46" y="384"/>
      <point x="46" y="405" type="curve" smooth="yes"/>
      <point x="47" y="448"/>
      <point x="45" y="515"/>
      <point x="43" y="560" type="curve" smooth="yes"/>
      <point x="41" y="597"/>
      <point x="42" y="597"/>
    </contour>
    <contour>
      <point x="188" y="599" type="curve" smooth="yes"/>
      <point x="210" y="602"/>
      <point x="209" y="595"/>
      <point x="208" y="564" type="curve" smooth="yes"/>
      <point x="207" y="515"/>
      <point x="206" y="459"/>
      <point x="206" y="405" type="curve" smooth="yes"/>
      <point x="206" y="386"/>
      <point x="198" y="376"/>
      <point x="188" y="376" type="curve" smooth="yes"/>
      <point x="178" y="376"/>
      <point x="173" y="384"/>
      <point x="173" y="405" type="curve" smooth="yes"/>
      <point x="173" y="448"/>
      <point x="171" y="515"/>
      <point x="169" y="560" type="curve" smooth="yes"/>
      <point x="168" y="597"/>
      <point x="168" y="597"/>
    </contour>
  </outline>
</glyph>
<glyph name="numbersign" format="1">
  <advance width="428"/>
  <unicode hex="0023"/>
  <outline>
    <contour>
      <point x="22" y="430" type="curve" smooth="yes"/>
      <point x="29" y="444"/>
      <point x="42" y="445"/>
      <point x="63" y="445" type="curve" smooth="yes"/>
      <point x="105" y="445" type="line" smooth="yes"/>
      <point x="119" y="445"/>
      <point x="116" y="453"/>
      <point x="117" y="465" type="curve" smooth="yes"/>
      <point x="119" y="512"/>
      <point x="116" y="558"/>
      <point x="117" y="584" type="curve" smooth="yes"/>
      <point x="117" y="602"/>
      <point x="120" y="608"/>
      <point x="135" y="610" type="curve"/>
      <point x="142" y="612"/>
      <point x="149" y="610"/>
      <point x="149" y="586" type="curve" smooth="yes"/>
      <point x="149" y="582"/>
      <point x="148" y="534"/>
      <point x="148" y="471" type="curve" smooth="yes"/>
      <point x="148" y="451"/>
      <point x="145" y="447"/>
      <point x="166" y="447" type="curve" smooth="yes"/>
      <point x="202" y="448"/>
      <point x="243" y="447"/>
      <point x="273" y="449" type="curve" smooth="yes"/>
      <point x="286" y="449"/>
      <point x="287" y="457"/>
      <point x="288" y="475" type="curve" smooth="yes"/>
      <point x="290" y="517"/>
      <point x="290" y="560"/>
      <point x="290" y="584" type="curve" smooth="yes"/>
      <point x="290" y="602"/>
      <point x="293" y="608"/>
      <point x="307" y="610" type="curve" smooth="yes"/>
      <point x="315" y="612"/>
      <point x="322" y="610"/>
      <point x="322" y="586" type="curve" smooth="yes"/>
      <point x="322" y="476" type="line" smooth="yes"/>
      <point x="322" y="459"/>
      <point x="318" y="452"/>
      <point x="336" y="452" type="curve"/>
      <point x="344" y="453"/>
      <point x="360" y="453"/>
      <point x="369" y="456" type="curve" smooth="yes"/>
      <point x="395" y="467"/>
      <point x="407" y="470"/>
      <point x="407" y="450" type="curve" smooth="yes"/>
      <point x="407" y="443"/>
      <point x="396" y="434"/>
      <point x="379" y="424" type="curve" smooth="yes"/>
      <point x="368" y="418"/>
      <point x="354" y="418"/>
      <point x="341" y="418" type="curve" smooth="yes"/>
      <point x="322" y="418"/>
      <point x="322" y="417"/>
      <point x="322" y="396" type="curve" smooth="yes"/>
      <point x="321" y="341"/>
      <point x="321" y="266"/>
      <point x="319" y="212" type="curve" smooth="yes"/>
      <point x="319" y="198"/>
      <point x="316" y="193"/>
      <point x="333" y="193" type="curve" smooth="yes"/>
      <point x="343" y="193"/>
      <point x="363" y="193"/>
      <point x="370" y="197" type="curve" smooth="yes"/>
      <point x="392" y="210"/>
      <point x="407" y="210"/>
      <point x="407" y="192" type="curve" smooth="yes"/>
      <point x="407" y="184"/>
      <point x="396" y="173"/>
      <point x="379" y="164" type="curve"/>
      <point x="368" y="157"/>
      <point x="354" y="157"/>
      <point x="341" y="157" type="curve" smooth="yes"/>
      <point x="323" y="157"/>
      <point x="318" y="153"/>
      <point x="319" y="130" type="curve" smooth="yes"/>
      <point x="321" y="95"/>
      <point x="321" y="68"/>
      <point x="319" y="51" type="curve"/>
      <point x="318" y="24"/>
      <point x="318" y="12"/>
      <point x="310" y="3" type="curve"/>
      <point x="298" y="-8"/>
      <point x="290" y="-13"/>
      <point x="278" y="-14" type="curve"/>
      <point x="262" y="-17"/>
      <point x="265" y="6"/>
      <point x="269" y="11" type="curve" smooth="yes"/>
      <point x="282" y="31"/>
      <point x="283" y="66"/>
      <point x="285" y="89" type="curve" smooth="yes"/>
      <point x="285" y="100"/>
      <point x="285" y="123"/>
      <point x="284" y="141" type="curve" smooth="yes"/>
      <point x="283" y="153"/>
      <point x="284" y="157"/>
      <point x="267" y="157" type="curve" smooth="yes"/>
      <point x="164" y="155" type="line" smooth="yes"/>
      <point x="150" y="154"/>
      <point x="146" y="153"/>
      <point x="146" y="135" type="curve" smooth="yes"/>
      <point x="147" y="101"/>
      <point x="146" y="60"/>
      <point x="146" y="51" type="curve" smooth="yes"/>
      <point x="146" y="26"/>
      <point x="146" y="12"/>
      <point x="137" y="3" type="curve" smooth="yes"/>
      <point x="125" y="-8"/>
      <point x="118" y="-13"/>
      <point x="106" y="-14" type="curve"/>
      <point x="90" y="-17"/>
      <point x="94" y="6"/>
      <point x="97" y="11" type="curve" smooth="yes"/>
      <point x="109" y="32"/>
      <point x="110" y="66"/>
      <point x="112" y="89" type="curve" smooth="yes"/>
      <point x="113" y="100"/>
      <point x="113" y="118"/>
      <point x="112" y="136" type="curve" smooth="yes"/>
      <point x="112" y="141"/>
      <point x="112" y="154"/>
      <point x="100" y="155" type="curve" smooth="yes"/>
      <point x="88" y="156"/>
      <point x="67" y="157"/>
      <point x="46" y="156" type="curve" smooth="yes"/>
      <point x="24" y="155"/>
      <point x="16" y="159"/>
      <point x="22" y="172" type="curve" smooth="yes"/>
      <point x="29" y="187"/>
      <point x="42" y="187"/>
      <point x="63" y="187" type="curve" smooth="yes"/>
      <point x="93" y="187" type="line" smooth="yes"/>
      <point x="112" y="187"/>
      <point x="111" y="197"/>
      <point x="112" y="204" type="curve" smooth="yes"/>
      <point x="115" y="257"/>
      <point x="113" y="335"/>
      <point x="115" y="398" type="curve" smooth="yes"/>
      <point x="115" y="402"/>
      <point x="113" y="413"/>
      <point x="103" y="414" type="curve" smooth="yes"/>
      <point x="88" y="415"/>
      <point x="66" y="416"/>
      <point x="45" y="415" type="curve" smooth="yes"/>
      <point x="25" y="414"/>
      <point x="14" y="412"/>
    </contour>
    <contour>
      <point x="148" y="398" type="curve" smooth="yes"/>
      <point x="146" y="202" type="line" smooth="yes"/>
      <point x="146" y="187"/>
      <point x="147" y="189"/>
      <point x="162" y="189" type="curve" smooth="yes"/>
      <point x="195" y="188"/>
      <point x="238" y="188"/>
      <point x="268" y="190" type="curve" smooth="yes"/>
      <point x="284" y="192"/>
      <point x="284" y="193"/>
      <point x="284" y="209" type="curve" smooth="yes"/>
      <point x="285" y="260"/>
      <point x="284" y="337"/>
      <point x="285" y="396" type="curve" smooth="yes"/>
      <point x="285" y="413"/>
      <point x="285" y="417"/>
      <point x="271" y="417" type="curve" smooth="yes"/>
      <point x="242" y="417"/>
      <point x="197" y="415"/>
      <point x="165" y="414" type="curve" smooth="yes"/>
      <point x="151" y="414"/>
      <point x="148" y="410"/>
    </contour>
  </outline>
</glyph>
<glyph name="dollar" format="1">
  <advance width="359"/>
  <unicode hex="0024"/>
  <outline>
    <contour>
      <point x="210" y="506" type="curve" smooth="yes"/>
      <point x="269" y="506"/>
      <point x="295" y="489"/>
      <point x="296" y="457" type="curve" smooth="yes"/>
      <point x="297" y="434"/>
      <point x="279" y="408"/>
      <point x="263" y="400" type="curve" smooth="yes"/>
      <point x="244" y="390"/>
      <point x="226" y="405"/>
      <point x="242" y="416" type="curve" smooth="yes"/>
      <point x="255" y="424"/>
      <point x="261" y="438"/>
      <point x="261" y="448" type="curve" smooth="yes"/>
      <point x="261" y="466"/>
      <point x="234" y="476"/>
      <point x="205" y="476" type="curve" smooth="yes"/>
      <point x="198" y="476"/>
      <point x="198" y="468"/>
      <point x="198" y="465" type="curve" smooth="yes"/>
      <point x="196" y="428"/>
      <point x="194" y="380"/>
      <point x="194" y="332" type="curve" smooth="yes"/>
      <point x="194" y="316"/>
      <point x="206" y="311"/>
      <point x="221" y="306" type="curve"/>
      <point x="276" y="281"/>
      <point x="311" y="255"/>
      <point x="311" y="207" type="curve" smooth="yes"/>
      <point x="311" y="121"/>
      <point x="258" y="83"/>
      <point x="194" y="69" type="curve"/>
      <point x="185" y="66"/>
      <point x="186" y="67"/>
      <point x="186" y="56" type="curve" smooth="yes"/>
      <point x="185" y="39"/>
      <point x="185" y="21"/>
      <point x="185" y="6" type="curve" smooth="yes"/>
      <point x="184" y="-15"/>
      <point x="181" y="-28"/>
      <point x="167" y="-35" type="curve"/>
      <point x="154" y="-40"/>
      <point x="149" y="-31"/>
      <point x="150" y="-10" type="curve" smooth="yes"/>
      <point x="150" y="-2"/>
      <point x="150" y="19"/>
      <point x="152" y="50" type="curve" smooth="yes"/>
      <point x="152" y="54"/>
      <point x="153" y="63"/>
      <point x="136" y="63" type="curve" smooth="yes"/>
      <point x="52" y="63"/>
      <point x="17" y="93"/>
      <point x="17" y="131" type="curve" smooth="yes"/>
      <point x="17" y="162"/>
      <point x="43" y="192"/>
      <point x="67" y="206" type="curve" smooth="yes"/>
      <point x="81" y="215"/>
      <point x="88" y="213"/>
      <point x="90" y="209" type="curve" smooth="yes"/>
      <point x="98" y="197"/>
      <point x="90" y="185"/>
      <point x="82" y="180" type="curve" smooth="yes"/>
      <point x="63" y="169"/>
      <point x="52" y="148"/>
      <point x="52" y="136" type="curve" smooth="yes"/>
      <point x="52" y="104"/>
      <point x="107" y="93"/>
      <point x="147" y="93" type="curve" smooth="yes"/>
      <point x="154" y="93"/>
      <point x="153" y="98"/>
      <point x="153" y="101" type="curve" smooth="yes"/>
      <point x="159" y="283" type="line" smooth="yes"/>
      <point x="159" y="295"/>
      <point x="161" y="295"/>
      <point x="150" y="301" type="curve" smooth="yes"/>
      <point x="135" y="308"/>
      <point x="121" y="314"/>
      <point x="111" y="320" type="curve" smooth="yes"/>
      <point x="80" y="338"/>
      <point x="52" y="354"/>
      <point x="52" y="398" type="curve" smooth="yes"/>
      <point x="52" y="455"/>
      <point x="104" y="485"/>
      <point x="154" y="497" type="curve" smooth="yes"/>
      <point x="166" y="500"/>
      <point x="169" y="501"/>
      <point x="169" y="513" type="curve" smooth="yes"/>
      <point x="170" y="526"/>
      <point x="169" y="537"/>
      <point x="170" y="542" type="curve"/>
      <point x="170" y="555"/>
      <point x="168" y="568"/>
      <point x="175" y="578" type="curve"/>
      <point x="184" y="594"/>
      <point x="199" y="606"/>
      <point x="206" y="605" type="curve"/>
      <point x="219" y="605"/>
      <point x="217" y="587"/>
      <point x="210" y="568" type="curve"/>
      <point x="205" y="561"/>
      <point x="205" y="550"/>
      <point x="204" y="542" type="curve" smooth="yes"/>
      <point x="202" y="515" type="line" smooth="yes"/>
      <point x="202" y="507"/>
      <point x="202" y="506"/>
    </contour>
    <contour>
      <point x="274" y="199" type="curve"/>
      <point x="275" y="237"/>
      <point x="242" y="258"/>
      <point x="206" y="274" type="curve"/>
      <point x="192" y="279"/>
      <point x="191" y="274"/>
      <point x="191" y="269" type="curve" smooth="yes"/>
      <point x="189" y="215"/>
      <point x="188" y="161"/>
      <point x="187" y="110" type="curve" smooth="yes"/>
      <point x="187" y="100"/>
      <point x="185" y="98"/>
      <point x="195" y="101" type="curve" smooth="yes"/>
      <point x="236" y="114"/>
      <point x="274" y="146"/>
    </contour>
    <contour>
      <point x="90" y="409" type="curve" smooth="yes"/>
      <point x="90" y="379"/>
      <point x="102" y="360"/>
      <point x="144" y="339" type="curve" smooth="yes"/>
      <point x="153" y="335"/>
      <point x="162" y="332"/>
      <point x="162" y="342" type="curve" smooth="yes"/>
      <point x="165" y="385"/>
      <point x="165" y="428"/>
      <point x="167" y="461" type="curve" smooth="yes"/>
      <point x="167" y="468"/>
      <point x="168" y="472"/>
      <point x="158" y="469" type="curve" smooth="yes"/>
      <point x="121" y="458"/>
      <point x="90" y="434"/>
    </contour>
  </outline>
</glyph>
<glyph name="percent" format="1">
  <advance width="895"/>
  <unicode hex="0025"/>
  <outline>
    <contour>
      <point x="204" y="256" type="curve" smooth="yes"/>
      <point x="109" y="256"/>
      <point x="42" y="315"/>
      <point x="42" y="422" type="curve" smooth="yes"/>
      <point x="42" y="499"/>
      <point x="107" y="607"/>
      <point x="238" y="607" type="curve" smooth="yes"/>
      <point x="315" y="607"/>
      <point x="395" y="558"/>
      <point x="395" y="464" type="curve" smooth="yes"/>
      <point x="395" y="326"/>
      <point x="296" y="256"/>
    </contour>
    <contour>
      <point x="231" y="576" type="curve" smooth="yes"/>
      <point x="135" y="576"/>
      <point x="81" y="487"/>
      <point x="81" y="422" type="curve" smooth="yes"/>
      <point x="81" y="314"/>
      <point x="157" y="286"/>
      <point x="208" y="286" type="curve" smooth="yes"/>
      <point x="252" y="286"/>
      <point x="356" y="322"/>
      <point x="356" y="462" type="curve" smooth="yes"/>
      <point x="356" y="528"/>
      <point x="298" y="576"/>
    </contour>
    <contour>
      <point x="251" y="-35" type="curve"/>
      <point x="230" y="-31"/>
      <point x="243" y="-15"/>
      <point x="272" y="29" type="curve"/>
      <point x="320" y="106"/>
      <point x="509" y="435"/>
      <point x="556" y="519" type="curve" smooth="yes"/>
      <point x="566" y="537"/>
      <point x="575" y="570"/>
      <point x="579" y="588" type="curve" smooth="yes"/>
      <point x="582" y="604"/>
      <point x="589" y="614"/>
      <point x="604" y="614" type="curve" smooth="yes"/>
      <point x="620" y="613"/>
      <point x="620" y="603"/>
      <point x="616" y="582" type="curve" smooth="yes"/>
      <point x="613" y="564"/>
      <point x="608" y="546"/>
      <point x="603" y="531" type="curve" smooth="yes"/>
      <point x="597" y="513"/>
      <point x="588" y="499"/>
      <point x="582" y="491" type="curve"/>
      <point x="551" y="438"/>
      <point x="359" y="102"/>
      <point x="300" y="6" type="curve"/>
      <point x="276" y="-31"/>
      <point x="263" y="-36"/>
    </contour>
    <contour>
      <point x="661" y="-13" type="curve" smooth="yes"/>
      <point x="566" y="-13"/>
      <point x="499" y="45"/>
      <point x="499" y="152" type="curve" smooth="yes"/>
      <point x="499" y="230"/>
      <point x="564" y="338"/>
      <point x="695" y="338" type="curve" smooth="yes"/>
      <point x="772" y="338"/>
      <point x="852" y="289"/>
      <point x="852" y="194" type="curve" smooth="yes"/>
      <point x="852" y="56"/>
      <point x="753" y="-13"/>
    </contour>
    <contour>
      <point x="689" y="306" type="curve" smooth="yes"/>
      <point x="592" y="306"/>
      <point x="538" y="217"/>
      <point x="538" y="152" type="curve" smooth="yes"/>
      <point x="538" y="45"/>
      <point x="614" y="17"/>
      <point x="665" y="17" type="curve" smooth="yes"/>
      <point x="709" y="17"/>
      <point x="813" y="53"/>
      <point x="813" y="193" type="curve" smooth="yes"/>
      <point x="813" y="258"/>
      <point x="755" y="306"/>
    </contour>
  </outline>
</glyph>
<glyph name="ampersand" format="1">
  <advance width="743"/>
  <unicode hex="0026"/>
  <outline>
    <contour>
      <point x="47" y="140" type="curve" smooth="yes"/>
      <point x="47" y="242"/>
      <point x="111" y="301"/>
      <point x="186" y="327" type="curve" smooth="yes"/>
      <point x="196" y="331"/>
      <point x="205" y="338"/>
      <point x="196" y="358" type="curve" smooth="yes"/>
      <point x="186" y="383"/>
      <point x="178" y="411"/>
      <point x="178" y="442" type="curve" smooth="yes"/>
      <point x="178" y="523"/>
      <point x="249" y="605"/>
      <point x="343" y="605" type="curve" smooth="yes"/>
      <point x="413" y="605"/>
      <point x="463" y="577"/>
      <point x="463" y="508" type="curve" smooth="yes"/>
      <point x="463" y="457"/>
      <point x="424" y="414"/>
      <point x="375" y="384" type="curve" smooth="yes"/>
      <point x="354" y="372"/>
      <point x="348" y="372"/>
      <point x="341" y="379" type="curve" smooth="yes"/>
      <point x="332" y="388"/>
      <point x="337" y="402"/>
      <point x="360" y="414" type="curve"/>
      <point x="396" y="435"/>
      <point x="426" y="466"/>
      <point x="426" y="507" type="curve" smooth="yes"/>
      <point x="426" y="535"/>
      <point x="406" y="577"/>
      <point x="341" y="577" type="curve" smooth="yes"/>
      <point x="271" y="577"/>
      <point x="214" y="508"/>
      <point x="214" y="442" type="curve" smooth="yes"/>
      <point x="214" y="314"/>
      <point x="363" y="183"/>
      <point x="422" y="134" type="curve" smooth="yes"/>
      <point x="443" y="116"/>
      <point x="448" y="113"/>
      <point x="475" y="140" type="curve" smooth="yes"/>
      <point x="517" y="181"/>
      <point x="582" y="247"/>
      <point x="582" y="307" type="curve" smooth="yes"/>
      <point x="582" y="336"/>
      <point x="570" y="356"/>
      <point x="540" y="356" type="curve" smooth="yes"/>
      <point x="512" y="356"/>
      <point x="490" y="341"/>
      <point x="476" y="325" type="curve" smooth="yes"/>
      <point x="468" y="316"/>
      <point x="456" y="312"/>
      <point x="448" y="321" type="curve" smooth="yes"/>
      <point x="442" y="327"/>
      <point x="443" y="338"/>
      <point x="453" y="350" type="curve"/>
      <point x="475" y="372"/>
      <point x="510" y="391"/>
      <point x="541" y="391" type="curve" smooth="yes"/>
      <point x="598" y="391"/>
      <point x="620" y="349"/>
      <point x="620" y="312" type="curve" smooth="yes"/>
      <point x="620" y="244"/>
      <point x="543" y="157"/>
      <point x="503" y="118" type="curve" smooth="yes"/>
      <point x="475" y="92"/>
      <point x="476" y="90"/>
      <point x="494" y="77" type="curve"/>
      <point x="524" y="58"/>
      <point x="576" y="24"/>
      <point x="623" y="24" type="curve" smooth="yes"/>
      <point x="635" y="24"/>
      <point x="652" y="28"/>
      <point x="665" y="33" type="curve" smooth="yes"/>
      <point x="687" y="41"/>
      <point x="707" y="55"/>
      <point x="718" y="63" type="curve" smooth="yes"/>
      <point x="726" y="69"/>
      <point x="742" y="78"/>
      <point x="748" y="70" type="curve" smooth="yes"/>
      <point x="754" y="62"/>
      <point x="750" y="51"/>
      <point x="745" y="45" type="curve"/>
      <point x="726" y="28"/>
      <point x="714" y="19"/>
      <point x="681" y="3" type="curve"/>
      <point x="662" y="-5"/>
      <point x="644" y="-10"/>
      <point x="622" y="-10" type="curve" smooth="yes"/>
      <point x="575" y="-10"/>
      <point x="502" y="24"/>
      <point x="465" y="49" type="curve" smooth="yes"/>
      <point x="447" y="61"/>
      <point x="440" y="63"/>
      <point x="419" y="46" type="curve"/>
      <point x="386" y="22"/>
      <point x="329" y="-10"/>
      <point x="237" y="-10" type="curve" smooth="yes"/>
      <point x="71" y="-10"/>
      <point x="47" y="85"/>
    </contour>
    <contour>
      <point x="194" y="294" type="curve" smooth="yes"/>
      <point x="130" y="271"/>
      <point x="84" y="216"/>
      <point x="84" y="142" type="curve" smooth="yes"/>
      <point x="84" y="86"/>
      <point x="130" y="23"/>
      <point x="240" y="23" type="curve" smooth="yes"/>
      <point x="295" y="23"/>
      <point x="360" y="45"/>
      <point x="396" y="70" type="curve"/>
      <point x="420" y="88"/>
      <point x="421" y="92"/>
      <point x="403" y="106" type="curve" smooth="yes"/>
      <point x="343" y="155"/>
      <point x="270" y="227"/>
      <point x="234" y="289" type="curve" smooth="yes"/>
      <point x="226" y="302"/>
      <point x="215" y="301"/>
    </contour>
  </outline>
</glyph>
<glyph name="quotesingle" format="1">
  <advance width="125"/>
  <unicode hex="0027"/>
  <outline>
    <contour>
      <point x="61" y="599" type="curve" smooth="yes"/>
      <point x="83" y="602"/>
      <point x="82" y="595"/>
      <point x="82" y="564" type="curve" smooth="yes"/>
      <point x="81" y="515"/>
      <point x="81" y="459"/>
      <point x="81" y="405" type="curve" smooth="yes"/>
      <point x="81" y="386"/>
      <point x="72" y="376"/>
      <point x="61" y="376" type="curve" smooth="yes"/>
      <point x="52" y="376"/>
      <point x="46" y="384"/>
      <point x="46" y="405" type="curve" smooth="yes"/>
      <point x="47" y="448"/>
      <point x="45" y="515"/>
      <point x="43" y="560" type="curve" smooth="yes"/>
      <point x="41" y="597"/>
      <point x="42" y="597"/>
    </contour>
  </outline>
</glyph>
<glyph name="parenleft" format="1">
  <advance width="279"/>
  <unicode hex="0028"/>
  <outline>
    <contour>
      <point x="203" y="630" type="curve" smooth="yes"/>
      <point x="210" y="621"/>
      <point x="205" y="609"/>
      <point x="187" y="593" type="curve" smooth="yes"/>
      <point x="136" y="547"/>
      <point x="80" y="410"/>
      <point x="80" y="282" type="curve" smooth="yes"/>
      <point x="80" y="157"/>
      <point x="120" y="45"/>
      <point x="206" y="-32" type="curve" smooth="yes"/>
      <point x="215" y="-40"/>
      <point x="225" y="-60"/>
      <point x="215" y="-67" type="curve"/>
      <point x="206" y="-76"/>
      <point x="189" y="-63"/>
      <point x="173" y="-49" type="curve" smooth="yes"/>
      <point x="113" y="6"/>
      <point x="42" y="109"/>
      <point x="42" y="283" type="curve" smooth="yes"/>
      <point x="42" y="418"/>
      <point x="112" y="568"/>
      <point x="163" y="617" type="curve" smooth="yes"/>
      <point x="177" y="630"/>
      <point x="192" y="643"/>
    </contour>
  </outline>
</glyph>
<glyph name="parenright" format="1">
  <advance width="279"/>
  <unicode hex="0029"/>
  <outline>
    <contour>
      <point x="73" y="-63" type="curve" smooth="yes"/>
      <point x="66" y="-54"/>
      <point x="71" y="-42"/>
      <point x="89" y="-25" type="curve"/>
      <point x="141" y="20"/>
      <point x="196" y="157"/>
      <point x="196" y="285" type="curve" smooth="yes"/>
      <point x="196" y="411"/>
      <point x="157" y="523"/>
      <point x="70" y="599" type="curve" smooth="yes"/>
      <point x="61" y="607"/>
      <point x="51" y="627"/>
      <point x="61" y="635" type="curve" smooth="yes"/>
      <point x="70" y="643"/>
      <point x="87" y="630"/>
      <point x="104" y="616" type="curve"/>
      <point x="163" y="561"/>
      <point x="234" y="458"/>
      <point x="234" y="285" type="curve" smooth="yes"/>
      <point x="234" y="150"/>
      <point x="164" y="-1"/>
      <point x="113" y="-50" type="curve" smooth="yes"/>
      <point x="99" y="-63"/>
      <point x="84" y="-76"/>
    </contour>
  </outline>
</glyph>
<glyph name="asterisk" format="1">
  <advance width="424"/>
  <unicode hex="002A"/>
  <outline>
    <contour>
      <point x="179" y="588" type="curve" smooth="yes"/>
      <point x="178" y="625"/>
      <point x="173" y="643"/>
      <point x="199" y="658" type="curve" smooth="yes"/>
      <point x="226" y="674"/>
      <point x="253" y="668"/>
      <point x="232" y="638" type="curve" smooth="yes"/>
      <point x="222" y="622"/>
      <point x="215" y="612"/>
      <point x="215" y="573" type="curve" smooth="yes"/>
      <point x="215" y="549"/>
      <point x="215" y="549"/>
      <point x="216" y="529" type="curve" smooth="yes"/>
      <point x="217" y="509"/>
      <point x="223" y="509"/>
      <point x="231" y="513" type="curve" smooth="yes"/>
      <point x="260" y="524"/>
      <point x="286" y="539"/>
      <point x="306" y="546" type="curve" smooth="yes"/>
      <point x="343" y="560"/>
      <point x="359" y="567"/>
      <point x="380" y="548" type="curve" smooth="yes"/>
      <point x="403" y="528"/>
      <point x="407" y="499"/>
      <point x="371" y="510" type="curve"/>
      <point x="353" y="514"/>
      <point x="340" y="519"/>
      <point x="305" y="506" type="curve"/>
      <point x="274" y="496"/>
      <point x="272" y="492"/>
      <point x="253" y="485" type="curve" smooth="yes"/>
      <point x="241" y="480"/>
      <point x="236" y="472"/>
      <point x="249" y="461" type="curve" smooth="yes"/>
      <point x="274" y="442"/>
      <point x="278" y="437"/>
      <point x="297" y="419" type="curve" smooth="yes"/>
      <point x="325" y="394"/>
      <point x="343" y="370"/>
      <point x="331" y="343" type="curve" smooth="yes"/>
      <point x="319" y="314"/>
      <point x="290" y="299"/>
      <point x="290" y="336" type="curve"/>
      <point x="289" y="355"/>
      <point x="287" y="370"/>
      <point x="264" y="392" type="curve"/>
      <point x="246" y="411"/>
      <point x="236" y="424"/>
      <point x="218" y="439" type="curve" smooth="yes"/>
      <point x="205" y="450"/>
      <point x="203" y="449"/>
      <point x="193" y="436" type="curve" smooth="yes"/>
      <point x="176" y="412"/>
      <point x="152" y="382"/>
      <point x="143" y="368" type="curve" smooth="yes"/>
      <point x="120" y="336"/>
      <point x="114" y="319"/>
      <point x="83" y="322" type="curve" smooth="yes"/>
      <point x="53" y="325"/>
      <point x="34" y="347"/>
      <point x="68" y="359" type="curve" smooth="yes"/>
      <point x="88" y="365"/>
      <point x="99" y="367"/>
      <point x="122" y="398" type="curve" smooth="yes"/>
      <point x="136" y="418"/>
      <point x="148" y="438"/>
      <point x="159" y="454" type="curve" smooth="yes"/>
      <point x="164" y="460"/>
      <point x="167" y="472"/>
      <point x="148" y="476" type="curve"/>
      <point x="118" y="486"/>
      <point x="107" y="488"/>
      <point x="88" y="494" type="curve" smooth="yes"/>
      <point x="52" y="506"/>
      <point x="34" y="505"/>
      <point x="27" y="535" type="curve" smooth="yes"/>
      <point x="19" y="565"/>
      <point x="35" y="593"/>
      <point x="57" y="562" type="curve"/>
      <point x="69" y="547"/>
      <point x="77" y="538"/>
      <point x="112" y="525" type="curve"/>
      <point x="158" y="510" type="line" smooth="yes"/>
      <point x="176" y="505"/>
      <point x="182" y="504"/>
      <point x="182" y="519" type="curve" smooth="yes"/>
      <point x="180" y="551"/>
      <point x="180" y="566"/>
    </contour>
  </outline>
</glyph>
<glyph name="plus" format="1">
  <advance width="421"/>
  <unicode hex="002B"/>
  <outline>
    <contour>
      <point x="226" y="450" type="curve" smooth="yes"/>
      <point x="225" y="417"/>
      <point x="224" y="374"/>
      <point x="224" y="327" type="curve" smooth="yes"/>
      <point x="224" y="306"/>
      <point x="227" y="306"/>
      <point x="243" y="306" type="curve" smooth="yes"/>
      <point x="265" y="306"/>
      <point x="285" y="306"/>
      <point x="314" y="307" type="curve" smooth="yes"/>
      <point x="321" y="307"/>
      <point x="337" y="309"/>
      <point x="345" y="313" type="curve" smooth="yes"/>
      <point x="370" y="325"/>
      <point x="388" y="329"/>
      <point x="388" y="316" type="curve" smooth="yes"/>
      <point x="388" y="308"/>
      <point x="376" y="290"/>
      <point x="360" y="281" type="curve" smooth="yes"/>
      <point x="349" y="274"/>
      <point x="336" y="272"/>
      <point x="323" y="272" type="curve" smooth="yes"/>
      <point x="245" y="272" type="line" smooth="yes"/>
      <point x="225" y="272"/>
      <point x="224" y="262"/>
      <point x="224" y="253" type="curve" smooth="yes"/>
      <point x="224" y="223"/>
      <point x="224" y="196"/>
      <point x="225" y="172" type="curve" smooth="yes"/>
      <point x="225" y="159"/>
      <point x="221" y="146"/>
      <point x="217" y="135" type="curve" smooth="yes"/>
      <point x="211" y="119"/>
      <point x="189" y="107"/>
      <point x="182" y="107" type="curve" smooth="yes"/>
      <point x="168" y="107"/>
      <point x="173" y="125"/>
      <point x="182" y="150" type="curve" smooth="yes"/>
      <point x="185" y="158"/>
      <point x="188" y="174"/>
      <point x="188" y="181" type="curve" smooth="yes"/>
      <point x="189" y="212"/>
      <point x="189" y="233"/>
      <point x="189" y="256" type="curve" smooth="yes"/>
      <point x="189" y="269"/>
      <point x="187" y="272"/>
      <point x="169" y="272" type="curve" smooth="yes"/>
      <point x="121" y="272"/>
      <point x="78" y="271"/>
      <point x="45" y="271" type="curve" smooth="yes"/>
      <point x="24" y="271"/>
      <point x="15" y="276"/>
      <point x="21" y="289" type="curve" smooth="yes"/>
      <point x="28" y="303"/>
      <point x="40" y="306"/>
      <point x="61" y="306" type="curve" smooth="yes"/>
      <point x="113" y="306"/>
      <point x="142" y="305"/>
      <point x="172" y="305" type="curve" smooth="yes"/>
      <point x="188" y="305"/>
      <point x="189" y="306"/>
      <point x="189" y="322" type="curve" smooth="yes"/>
      <point x="189" y="434" type="line" smooth="yes"/>
      <point x="189" y="455"/>
      <point x="189" y="467"/>
      <point x="204" y="474" type="curve" smooth="yes"/>
      <point x="216" y="480"/>
      <point x="226" y="471"/>
    </contour>
  </outline>
</glyph>
<glyph name="comma" format="1">
  <advance width="208"/>
  <unicode hex="002C"/>
  <outline>
    <contour>
      <point x="69" y="-154" type="curve" smooth="yes"/>
      <point x="65" y="-151"/>
      <point x="65" y="-140"/>
      <point x="80" y="-123" type="curve" smooth="yes"/>
      <point x="111" y="-88"/>
      <point x="131" y="-45"/>
      <point x="131" y="-9" type="curve" smooth="yes"/>
      <point x="131" y="23"/>
      <point x="115" y="31"/>
      <point x="106" y="31" type="curve" smooth="yes"/>
      <point x="90" y="31"/>
      <point x="78" y="25"/>
      <point x="64" y="16" type="curve" smooth="yes"/>
      <point x="52" y="8"/>
      <point x="41" y="8"/>
      <point x="35" y="14" type="curve"/>
      <point x="29" y="22"/>
      <point x="32" y="35"/>
      <point x="48" y="46" type="curve" smooth="yes"/>
      <point x="64" y="58"/>
      <point x="84" y="69"/>
      <point x="113" y="69" type="curve" smooth="yes"/>
      <point x="152" y="69"/>
      <point x="168" y="31"/>
      <point x="168" y="-7" type="curve" smooth="yes"/>
      <point x="168" y="-51"/>
      <point x="139" y="-104"/>
      <point x="111" y="-136" type="curve" smooth="yes"/>
      <point x="87" y="-162"/>
      <point x="77" y="-160"/>
    </contour>
  </outline>
</glyph>
<glyph name="hyphen" format="1">
  <advance width="348"/>
  <unicode hex="002D"/>
  <outline>
    <contour>
      <point x="85" y="284" type="curve" smooth="yes"/>
      <point x="98" y="284"/>
      <point x="144" y="285"/>
      <point x="184" y="285" type="curve"/>
      <point x="222" y="286"/>
      <point x="232" y="294"/>
      <point x="248" y="306" type="curve" smooth="yes"/>
      <point x="278" y="327"/>
      <point x="285" y="300"/>
      <point x="270" y="273" type="curve" smooth="yes"/>
      <point x="256" y="246"/>
      <point x="237" y="250"/>
      <point x="200" y="249" type="curve" smooth="yes"/>
      <point x="172" y="248"/>
      <point x="103" y="248"/>
      <point x="77" y="248" type="curve" smooth="yes"/>
      <point x="54" y="248"/>
      <point x="46" y="250"/>
      <point x="52" y="266" type="curve" smooth="yes"/>
      <point x="57" y="282"/>
      <point x="68" y="284"/>
    </contour>
  </outline>
</glyph>
<glyph name="period" format="1">
  <advance width="190"/>
  <unicode hex="002E"/>
  <outline>
    <contour>
      <point x="99" y="64" type="curve" smooth="yes"/>
      <point x="120" y="64"/>
      <point x="140" y="54"/>
      <point x="140" y="35" type="curve" smooth="yes"/>
      <point x="140" y="7"/>
      <point x="114" y="-7"/>
      <point x="93" y="-7" type="curve" smooth="yes"/>
      <point x="58" y="-7"/>
      <point x="51" y="13"/>
      <point x="51" y="28" type="curve" smooth="yes"/>
      <point x="51" y="53"/>
      <point x="83" y="64"/>
    </contour>
  </outline>
</glyph>
<glyph name="slash" format="1">
  <advance width="446"/>
  <unicode hex="002F"/>
  <outline>
    <contour>
      <point x="40" y="-35" type="curve"/>
      <point x="19" y="-31"/>
      <point x="32" y="-15"/>
      <point x="61" y="29" type="curve"/>
      <point x="109" y="106"/>
      <point x="298" y="435"/>
      <point x="344" y="519" type="curve" smooth="yes"/>
      <point x="354" y="537"/>
      <point x="364" y="570"/>
      <point x="368" y="588" type="curve" smooth="yes"/>
      <point x="371" y="604"/>
      <point x="378" y="614"/>
      <point x="393" y="614" type="curve" smooth="yes"/>
      <point x="408" y="613"/>
      <point x="409" y="603"/>
      <point x="405" y="582" type="curve" smooth="yes"/>
      <point x="402" y="564"/>
      <point x="396" y="546"/>
      <point x="391" y="531" type="curve" smooth="yes"/>
      <point x="386" y="513"/>
      <point x="376" y="499"/>
      <point x="371" y="491" type="curve" smooth="yes"/>
      <point x="339" y="438"/>
      <point x="147" y="102"/>
      <point x="88" y="6" type="curve" smooth="yes"/>
      <point x="65" y="-31"/>
      <point x="51" y="-36"/>
    </contour>
  </outline>
</glyph>
<glyph name="zero" format="1">
  <advance width="500"/>
  <unicode hex="0030"/>
  <outline>
    <contour>
      <point x="266" y="604" type="curve" smooth="yes"/>
      <point x="412" y="604"/>
      <point x="455" y="464"/>
      <point x="458" y="362" type="curve"/>
      <point x="461" y="167"/>
      <point x="396" y="-14"/>
      <point x="235" y="-14" type="curve" smooth="yes"/>
      <point x="131" y="-14"/>
      <point x="45" y="77"/>
      <point x="44" y="242" type="curve" smooth="yes"/>
      <point x="43" y="508"/>
      <point x="166" y="604"/>
    </contour>
    <contour>
      <point x="83" y="242" type="curve" smooth="yes"/>
      <point x="83" y="91"/>
      <point x="165" y="19"/>
      <point x="241" y="19" type="curve" smooth="yes"/>
      <point x="329" y="19"/>
      <point x="416" y="111"/>
      <point x="416" y="361" type="curve" smooth="yes"/>
      <point x="416" y="478"/>
      <point x="354" y="571"/>
      <point x="262" y="571" type="curve" smooth="yes"/>
      <point x="173" y="571"/>
      <point x="82" y="468"/>
    </contour>
  </outline>
</glyph>
<glyph name="one" format="1">
  <advance width="402"/>
  <unicode hex="0031"/>
  <outline>
    <contour>
      <point x="52" y="-3" type="curve"/>
      <point x="37" y="-3"/>
      <point x="34" y="3"/>
      <point x="34" y="12" type="curve" smooth="yes"/>
      <point x="34" y="20"/>
      <point x="47" y="26"/>
      <point x="55" y="26" type="curve" smooth="yes"/>
      <point x="166" y="32"/>
      <point x="183" y="34"/>
      <point x="186" y="120" type="curve" smooth="yes"/>
      <point x="188" y="170"/>
      <point x="190" y="414"/>
      <point x="192" y="517" type="curve" smooth="yes"/>
      <point x="192" y="544"/>
      <point x="182" y="540"/>
      <point x="169" y="529" type="curve" smooth="yes"/>
      <point x="145" y="508"/>
      <point x="100" y="468"/>
      <point x="81" y="449" type="curve"/>
      <point x="61" y="431"/>
      <point x="51" y="429"/>
      <point x="42" y="438" type="curve" smooth="yes"/>
      <point x="37" y="443"/>
      <point x="41" y="460"/>
      <point x="55" y="471" type="curve" smooth="yes"/>
      <point x="94" y="503"/>
      <point x="141" y="552"/>
      <point x="172" y="579" type="curve" smooth="yes"/>
      <point x="211" y="614"/>
      <point x="242" y="598"/>
      <point x="237" y="566" type="curve" smooth="yes"/>
      <point x="225" y="492"/>
      <point x="224" y="274"/>
      <point x="226" y="120" type="curve"/>
      <point x="226" y="42"/>
      <point x="230" y="35"/>
      <point x="348" y="28" type="curve" smooth="yes"/>
      <point x="359" y="27"/>
      <point x="369" y="22"/>
      <point x="369" y="13" type="curve" smooth="yes"/>
      <point x="369" y="4"/>
      <point x="364" y="-3"/>
      <point x="342" y="-2" type="curve"/>
      <point x="269" y="5"/>
      <point x="92" y="0"/>
    </contour>
  </outline>
</glyph>
<glyph name="two" format="1">
  <advance width="514"/>
  <unicode hex="0032"/>
  <outline>
    <contour>
      <point x="54" y="44" type="curve" smooth="yes"/>
      <point x="136" y="121"/>
      <point x="261" y="250"/>
      <point x="343" y="359" type="curve" smooth="yes"/>
      <point x="374" y="401"/>
      <point x="388" y="440"/>
      <point x="388" y="492" type="curve" smooth="yes"/>
      <point x="388" y="555"/>
      <point x="349" y="566"/>
      <point x="311" y="566" type="curve" smooth="yes"/>
      <point x="229" y="566"/>
      <point x="198" y="532"/>
      <point x="128" y="532" type="curve" smooth="yes"/>
      <point x="88" y="532"/>
      <point x="82" y="558"/>
      <point x="82" y="572" type="curve" smooth="yes"/>
      <point x="82" y="582"/>
      <point x="87" y="598"/>
      <point x="94" y="608" type="curve" smooth="yes"/>
      <point x="103" y="619"/>
      <point x="113" y="626"/>
      <point x="121" y="624" type="curve" smooth="yes"/>
      <point x="128" y="622"/>
      <point x="131" y="611"/>
      <point x="125" y="599" type="curve"/>
      <point x="117" y="586"/>
      <point x="114" y="570"/>
      <point x="137" y="570" type="curve" smooth="yes"/>
      <point x="181" y="570"/>
      <point x="235" y="601"/>
      <point x="311" y="601" type="curve" smooth="yes"/>
      <point x="384" y="601"/>
      <point x="427" y="577"/>
      <point x="427" y="492" type="curve"/>
      <point x="426" y="440"/>
      <point x="402" y="385"/>
      <point x="376" y="348" type="curve" smooth="yes"/>
      <point x="331" y="282"/>
      <point x="194" y="135"/>
      <point x="123" y="62" type="curve" smooth="yes"/>
      <point x="104" y="42"/>
      <point x="107" y="37"/>
      <point x="131" y="36" type="curve" smooth="yes"/>
      <point x="165" y="35"/>
      <point x="343" y="35"/>
      <point x="364" y="35" type="curve"/>
      <point x="375" y="36"/>
      <point x="397" y="41"/>
      <point x="407" y="52" type="curve" smooth="yes"/>
      <point x="434" y="81"/>
      <point x="443" y="132"/>
      <point x="443" y="162" type="curve" smooth="yes"/>
      <point x="443" y="172"/>
      <point x="449" y="184"/>
      <point x="459" y="184" type="curve" smooth="yes"/>
      <point x="465" y="184"/>
      <point x="471" y="173"/>
      <point x="471" y="158" type="curve" smooth="yes"/>
      <point x="471" y="108"/>
      <point x="454" y="49"/>
      <point x="424" y="19" type="curve" smooth="yes"/>
      <point x="418" y="13"/>
      <point x="398" y="-6"/>
      <point x="374" y="-3" type="curve" smooth="yes"/>
      <point x="289" y="5"/>
      <point x="146" y="3"/>
      <point x="52" y="-3" type="curve"/>
      <point x="34" y="-3"/>
      <point x="42" y="33"/>
    </contour>
  </outline>
</glyph>
<glyph name="three" format="1">
  <advance width="441"/>
  <unicode hex="0033"/>
  <outline>
    <contour>
      <point x="114" y="625" type="curve" smooth="yes"/>
      <point x="123" y="623"/>
      <point x="126" y="611"/>
      <point x="122" y="603" type="curve" smooth="yes"/>
      <point x="112" y="583"/>
      <point x="124" y="577"/>
      <point x="161" y="577" type="curve" smooth="yes"/>
      <point x="198" y="577"/>
      <point x="226" y="601"/>
      <point x="282" y="600" type="curve" smooth="yes"/>
      <point x="327" y="599"/>
      <point x="370" y="588"/>
      <point x="370" y="529" type="curve" smooth="yes"/>
      <point x="370" y="461"/>
      <point x="306" y="406"/>
      <point x="257" y="375" type="curve" smooth="yes"/>
      <point x="234" y="360"/>
      <point x="242" y="357"/>
      <point x="259" y="354" type="curve" smooth="yes"/>
      <point x="297" y="348"/>
      <point x="407" y="332"/>
      <point x="407" y="193" type="curve" smooth="yes"/>
      <point x="407" y="113"/>
      <point x="332" y="-12"/>
      <point x="187" y="-12" type="curve" smooth="yes"/>
      <point x="128" y="-12"/>
      <point x="40" y="-4"/>
      <point x="40" y="72" type="curve" smooth="yes"/>
      <point x="40" y="112"/>
      <point x="75" y="139"/>
      <point x="109" y="152" type="curve"/>
      <point x="115" y="153"/>
      <point x="126" y="155"/>
      <point x="130" y="147" type="curve"/>
      <point x="135" y="140"/>
      <point x="125" y="128"/>
      <point x="118" y="125" type="curve" smooth="yes"/>
      <point x="91" y="113"/>
      <point x="77" y="92"/>
      <point x="77" y="73" type="curve" smooth="yes"/>
      <point x="77" y="40"/>
      <point x="125" y="19"/>
      <point x="187" y="19" type="curve" smooth="yes"/>
      <point x="288" y="19"/>
      <point x="369" y="103"/>
      <point x="369" y="193" type="curve" smooth="yes"/>
      <point x="369" y="300"/>
      <point x="277" y="329"/>
      <point x="198" y="329" type="curve" smooth="yes"/>
      <point x="184" y="329"/>
      <point x="163" y="336"/>
      <point x="163" y="346" type="curve" smooth="yes"/>
      <point x="163" y="358"/>
      <point x="174" y="361"/>
      <point x="188" y="368" type="curve" smooth="yes"/>
      <point x="240" y="396"/>
      <point x="327" y="445"/>
      <point x="327" y="524" type="curve" smooth="yes"/>
      <point x="327" y="546"/>
      <point x="313" y="567"/>
      <point x="279" y="567" type="curve" smooth="yes"/>
      <point x="237" y="567"/>
      <point x="204" y="543"/>
      <point x="154" y="543" type="curve" smooth="yes"/>
      <point x="77" y="543"/>
      <point x="71" y="574"/>
      <point x="87" y="604" type="curve" smooth="yes"/>
      <point x="93" y="615"/>
      <point x="101" y="629"/>
    </contour>
  </outline>
</glyph>
<glyph name="four" format="1">
  <advance width="517"/>
  <unicode hex="0034"/>
  <outline>
    <contour>
      <point x="57" y="189" type="curve" smooth="yes"/>
      <point x="41" y="189"/>
      <point x="34" y="189"/>
      <point x="36" y="203" type="curve"/>
      <point x="40" y="215"/>
      <point x="51" y="235"/>
      <point x="58" y="243" type="curve" smooth="yes"/>
      <point x="150" y="347"/>
      <point x="207" y="413"/>
      <point x="284" y="504" type="curve" smooth="yes"/>
      <point x="301" y="524"/>
      <point x="340" y="570"/>
      <point x="341" y="582" type="curve" smooth="yes"/>
      <point x="343" y="610"/>
      <point x="354" y="608"/>
      <point x="372" y="607" type="curve" smooth="yes"/>
      <point x="382" y="606"/>
      <point x="383" y="593"/>
      <point x="382" y="583" type="curve"/>
      <point x="382" y="604"/>
      <point x="373" y="311"/>
      <point x="373" y="263" type="curve" smooth="yes"/>
      <point x="373" y="236"/>
      <point x="375" y="224"/>
      <point x="389" y="224" type="curve" smooth="yes"/>
      <point x="415" y="224"/>
      <point x="423" y="239"/>
      <point x="443" y="267" type="curve" smooth="yes"/>
      <point x="451" y="279"/>
      <point x="462" y="279"/>
      <point x="467" y="275" type="curve" smooth="yes"/>
      <point x="472" y="271"/>
      <point x="475" y="265"/>
      <point x="470" y="255" type="curve" smooth="yes"/>
      <point x="459" y="231"/>
      <point x="442" y="212"/>
      <point x="425" y="199" type="curve" smooth="yes"/>
      <point x="417" y="192"/>
      <point x="410" y="187"/>
      <point x="383" y="187" type="curve" smooth="yes"/>
      <point x="370" y="187"/>
      <point x="366" y="181"/>
      <point x="366" y="144" type="curve" smooth="yes"/>
      <point x="366" y="124"/>
      <point x="367" y="100"/>
      <point x="368" y="76" type="curve" smooth="yes"/>
      <point x="369" y="59"/>
      <point x="375" y="40"/>
      <point x="375" y="18" type="curve" smooth="yes"/>
      <point x="374" y="-5"/>
      <point x="369" y="-13"/>
      <point x="347" y="-23" type="curve" smooth="yes"/>
      <point x="322" y="-34"/>
      <point x="319" y="-16"/>
      <point x="319" y="4" type="curve" smooth="yes"/>
      <point x="319" y="16"/>
      <point x="327" y="48"/>
      <point x="327" y="65" type="curve"/>
      <point x="330" y="109"/>
      <point x="330" y="121"/>
      <point x="330" y="163" type="curve" smooth="yes"/>
      <point x="330" y="187"/>
      <point x="320" y="190"/>
      <point x="308" y="190" type="curve" smooth="yes"/>
      <point x="266" y="190"/>
      <point x="150" y="189"/>
    </contour>
    <contour>
      <point x="318" y="223" type="curve" smooth="yes"/>
      <point x="327" y="226"/>
      <point x="332" y="230"/>
      <point x="333" y="246" type="curve" smooth="yes"/>
      <point x="337" y="316"/>
      <point x="338" y="422"/>
      <point x="339" y="484" type="curve" smooth="yes"/>
      <point x="339" y="518"/>
      <point x="338" y="524"/>
      <point x="308" y="488" type="curve" smooth="yes"/>
      <point x="251" y="421"/>
      <point x="150" y="302"/>
      <point x="103" y="248" type="curve" smooth="yes"/>
      <point x="87" y="230"/>
      <point x="88" y="221"/>
      <point x="114" y="221" type="curve" smooth="yes"/>
      <point x="130" y="221"/>
      <point x="295" y="217"/>
    </contour>
  </outline>
</glyph>
<glyph name="five" format="1">
  <advance width="453"/>
  <unicode hex="0035"/>
  <outline>
    <contour>
      <point x="396" y="607" type="curve" smooth="yes"/>
      <point x="393" y="591"/>
      <point x="386" y="577"/>
      <point x="378" y="567" type="curve" smooth="yes"/>
      <point x="364" y="550"/>
      <point x="333" y="547"/>
      <point x="325" y="548" type="curve" smooth="yes"/>
      <point x="254" y="553"/>
      <point x="224" y="561"/>
      <point x="180" y="566" type="curve" smooth="yes"/>
      <point x="169" y="568"/>
      <point x="162" y="560"/>
      <point x="155" y="540" type="curve" smooth="yes"/>
      <point x="152" y="534"/>
      <point x="121" y="453"/>
      <point x="117" y="439" type="curve" smooth="yes"/>
      <point x="111" y="419"/>
      <point x="110" y="413"/>
      <point x="125" y="411" type="curve" smooth="yes"/>
      <point x="174" y="404"/>
      <point x="241" y="386"/>
      <point x="277" y="371" type="curve" smooth="yes"/>
      <point x="343" y="344"/>
      <point x="410" y="306"/>
      <point x="411" y="212" type="curve"/>
      <point x="411" y="94"/>
      <point x="323" y="-8"/>
      <point x="176" y="-8" type="curve" smooth="yes"/>
      <point x="67" y="-8"/>
      <point x="42" y="40"/>
      <point x="42" y="77" type="curve" smooth="yes"/>
      <point x="42" y="126"/>
      <point x="94" y="160"/>
      <point x="109" y="168" type="curve" smooth="yes"/>
      <point x="122" y="175"/>
      <point x="143" y="184"/>
      <point x="153" y="175" type="curve" smooth="yes"/>
      <point x="162" y="167"/>
      <point x="151" y="151"/>
      <point x="136" y="145" type="curve" smooth="yes"/>
      <point x="98" y="130"/>
      <point x="83" y="97"/>
      <point x="83" y="77" type="curve" smooth="yes"/>
      <point x="83" y="40"/>
      <point x="120" y="24"/>
      <point x="180" y="24" type="curve" smooth="yes"/>
      <point x="279" y="24"/>
      <point x="376" y="96"/>
      <point x="376" y="210" type="curve" smooth="yes"/>
      <point x="376" y="282"/>
      <point x="311" y="323"/>
      <point x="266" y="340" type="curve" smooth="yes"/>
      <point x="215" y="359"/>
      <point x="165" y="370"/>
      <point x="84" y="380" type="curve" smooth="yes"/>
      <point x="72" y="381"/>
      <point x="57" y="382"/>
      <point x="69" y="412" type="curve" smooth="yes"/>
      <point x="98" y="481"/>
      <point x="114" y="519"/>
      <point x="134" y="582" type="curve" smooth="yes"/>
      <point x="141" y="601"/>
      <point x="146" y="602"/>
      <point x="162" y="600" type="curve" smooth="yes"/>
      <point x="215" y="595"/>
      <point x="301" y="584"/>
      <point x="327" y="584" type="curve" smooth="yes"/>
      <point x="345" y="584"/>
      <point x="359" y="588"/>
      <point x="369" y="611" type="curve" smooth="yes"/>
      <point x="375" y="625"/>
      <point x="383" y="625"/>
      <point x="389" y="624" type="curve" smooth="yes"/>
      <point x="395" y="622"/>
      <point x="398" y="616"/>
    </contour>
  </outline>
</glyph>
<glyph name="six" format="1">
  <advance width="481"/>
  <unicode hex="0036"/>
  <outline>
    <contour>
      <point x="178" y="333" type="curve"/>
      <point x="178" y="342"/>
      <point x="183" y="348"/>
      <point x="197" y="356" type="curve" smooth="yes"/>
      <point x="222" y="369"/>
      <point x="260" y="385"/>
      <point x="304" y="385" type="curve" smooth="yes"/>
      <point x="381" y="385"/>
      <point x="439" y="330"/>
      <point x="439" y="238" type="curve"/>
      <point x="436" y="83"/>
      <point x="335" y="-15"/>
      <point x="221" y="-15" type="curve" smooth="yes"/>
      <point x="92" y="-15"/>
      <point x="42" y="82"/>
      <point x="42" y="177" type="curve" smooth="yes"/>
      <point x="42" y="367"/>
      <point x="152" y="514"/>
      <point x="274" y="607" type="curve" smooth="yes"/>
      <point x="285" y="615"/>
      <point x="301" y="619"/>
      <point x="307" y="612" type="curve" smooth="yes"/>
      <point x="314" y="605"/>
      <point x="304" y="587"/>
      <point x="291" y="577" type="curve" smooth="yes"/>
      <point x="169" y="485"/>
      <point x="81" y="348"/>
      <point x="81" y="178" type="curve" smooth="yes"/>
      <point x="81" y="79"/>
      <point x="137" y="18"/>
      <point x="222" y="18" type="curve" smooth="yes"/>
      <point x="324" y="18"/>
      <point x="401" y="109"/>
      <point x="401" y="237" type="curve" smooth="yes"/>
      <point x="401" y="336"/>
      <point x="344" y="352"/>
      <point x="302" y="352" type="curve" smooth="yes"/>
      <point x="261" y="352"/>
      <point x="232" y="338"/>
      <point x="205" y="323" type="curve" smooth="yes"/>
      <point x="193" y="316"/>
      <point x="183" y="322"/>
    </contour>
  </outline>
</glyph>
<glyph name="seven" format="1">
  <advance width="411"/>
  <unicode hex="0037"/>
  <outline>
    <contour>
      <point x="94" y="622" type="curve" smooth="yes"/>
      <point x="104" y="619"/>
      <point x="106" y="609"/>
      <point x="101" y="601" type="curve" smooth="yes"/>
      <point x="83" y="575"/>
      <point x="121" y="567"/>
      <point x="150" y="567" type="curve" smooth="yes"/>
      <point x="206" y="567"/>
      <point x="316" y="584"/>
      <point x="372" y="598" type="curve" smooth="yes"/>
      <point x="393" y="604"/>
      <point x="398" y="608"/>
      <point x="402" y="603" type="curve"/>
      <point x="408" y="598"/>
      <point x="407" y="589"/>
      <point x="402" y="582" type="curve" smooth="yes"/>
      <point x="399" y="577"/>
      <point x="369" y="524"/>
      <point x="361" y="514" type="curve"/>
      <point x="338" y="476"/>
      <point x="145" y="157"/>
      <point x="145" y="50" type="curve" smooth="yes"/>
      <point x="145" y="38"/>
      <point x="148" y="25"/>
      <point x="168" y="25" type="curve" smooth="yes"/>
      <point x="177" y="25"/>
      <point x="187" y="30"/>
      <point x="195" y="36" type="curve" smooth="yes"/>
      <point x="204" y="42"/>
      <point x="211" y="43"/>
      <point x="218" y="36" type="curve" smooth="yes"/>
      <point x="227" y="26"/>
      <point x="224" y="19"/>
      <point x="219" y="11" type="curve"/>
      <point x="206" y="-5"/>
      <point x="181" y="-13"/>
      <point x="157" y="-13" type="curve" smooth="yes"/>
      <point x="131" y="-13"/>
      <point x="104" y="1"/>
      <point x="104" y="43" type="curve" smooth="yes"/>
      <point x="103" y="124"/>
      <point x="247" y="388"/>
      <point x="332" y="529" type="curve" smooth="yes"/>
      <point x="343" y="547"/>
      <point x="345" y="564"/>
      <point x="322" y="556" type="curve" smooth="yes"/>
      <point x="290" y="546"/>
      <point x="217" y="532"/>
      <point x="145" y="532" type="curve" smooth="yes"/>
      <point x="84" y="532"/>
      <point x="52" y="546"/>
      <point x="52" y="571" type="curve" smooth="yes"/>
      <point x="52" y="583"/>
      <point x="56" y="592"/>
      <point x="64" y="604" type="curve" smooth="yes"/>
      <point x="71" y="614"/>
      <point x="82" y="625"/>
    </contour>
  </outline>
</glyph>
<glyph name="eight" format="1">
  <advance width="507"/>
  <unicode hex="0038"/>
  <outline>
    <contour>
      <point x="237" y="-11" type="curve" smooth="yes"/>
      <point x="113" y="-11"/>
      <point x="46" y="45"/>
      <point x="46" y="126" type="curve" smooth="yes"/>
      <point x="46" y="217"/>
      <point x="107" y="277"/>
      <point x="173" y="320" type="curve" smooth="yes"/>
      <point x="188" y="329"/>
      <point x="184" y="337"/>
      <point x="173" y="342" type="curve" smooth="yes"/>
      <point x="119" y="365"/>
      <point x="73" y="391"/>
      <point x="73" y="453" type="curve" smooth="yes"/>
      <point x="73" y="524"/>
      <point x="149" y="605"/>
      <point x="260" y="605" type="curve" smooth="yes"/>
      <point x="380" y="605"/>
      <point x="421" y="560"/>
      <point x="421" y="494" type="curve" smooth="yes"/>
      <point x="421" y="437"/>
      <point x="391" y="394"/>
      <point x="334" y="348" type="curve" smooth="yes"/>
      <point x="316" y="333"/>
      <point x="326" y="330"/>
      <point x="336" y="325" type="curve"/>
      <point x="400" y="301"/>
      <point x="456" y="273"/>
      <point x="456" y="177" type="curve" smooth="yes"/>
      <point x="456" y="87"/>
      <point x="375" y="-11"/>
    </contour>
    <contour>
      <point x="253" y="313" type="curve" smooth="yes"/>
      <point x="235" y="316"/>
      <point x="219" y="310"/>
      <point x="205" y="302" type="curve" smooth="yes"/>
      <point x="124" y="254"/>
      <point x="85" y="197"/>
      <point x="85" y="133" type="curve" smooth="yes"/>
      <point x="85" y="75"/>
      <point x="130" y="21"/>
      <point x="242" y="21" type="curve" smooth="yes"/>
      <point x="338" y="21"/>
      <point x="423" y="92"/>
      <point x="423" y="174" type="curve" smooth="yes"/>
      <point x="423" y="253"/>
      <point x="338" y="295"/>
    </contour>
    <contour>
      <point x="314" y="373" type="curve" smooth="yes"/>
      <point x="353" y="401"/>
      <point x="383" y="445"/>
      <point x="383" y="490" type="curve" smooth="yes"/>
      <point x="383" y="540"/>
      <point x="337" y="574"/>
      <point x="258" y="574" type="curve" smooth="yes"/>
      <point x="189" y="574"/>
      <point x="110" y="529"/>
      <point x="110" y="455" type="curve" smooth="yes"/>
      <point x="110" y="399"/>
      <point x="178" y="367"/>
      <point x="252" y="350" type="curve" smooth="yes"/>
      <point x="270" y="346"/>
      <point x="289" y="354"/>
    </contour>
  </outline>
</glyph>
<glyph name="nine" format="1">
  <advance width="461"/>
  <unicode hex="0039"/>
  <outline>
    <contour>
      <point x="294" y="258" type="curve"/>
      <point x="294" y="249"/>
      <point x="290" y="243"/>
      <point x="275" y="235" type="curve" smooth="yes"/>
      <point x="250" y="222"/>
      <point x="212" y="206"/>
      <point x="168" y="206" type="curve" smooth="yes"/>
      <point x="91" y="206"/>
      <point x="36" y="261"/>
      <point x="36" y="353" type="curve"/>
      <point x="39" y="508"/>
      <point x="137" y="606"/>
      <point x="252" y="606" type="curve" smooth="yes"/>
      <point x="380" y="606"/>
      <point x="427" y="509"/>
      <point x="427" y="414" type="curve" smooth="yes"/>
      <point x="427" y="224"/>
      <point x="320" y="77"/>
      <point x="199" y="-16" type="curve" smooth="yes"/>
      <point x="187" y="-24"/>
      <point x="171" y="-28"/>
      <point x="165" y="-21" type="curve" smooth="yes"/>
      <point x="158" y="-14"/>
      <point x="168" y="7"/>
      <point x="181" y="17" type="curve" smooth="yes"/>
      <point x="303" y="109"/>
      <point x="385" y="243"/>
      <point x="385" y="413" type="curve" smooth="yes"/>
      <point x="385" y="512"/>
      <point x="335" y="571"/>
      <point x="250" y="571" type="curve" smooth="yes"/>
      <point x="148" y="571"/>
      <point x="77" y="481"/>
      <point x="77" y="354" type="curve" smooth="yes"/>
      <point x="77" y="268"/>
      <point x="128" y="241"/>
      <point x="170" y="241" type="curve" smooth="yes"/>
      <point x="211" y="241"/>
      <point x="240" y="254"/>
      <point x="267" y="269" type="curve"/>
      <point x="279" y="277"/>
      <point x="290" y="269"/>
    </contour>
  </outline>
</glyph>
<glyph name="colon" format="1">
  <advance width="210"/>
  <unicode hex="003A"/>
  <outline>
    <contour>
      <point x="99" y="64" type="curve" smooth="yes"/>
      <point x="120" y="64"/>
      <point x="140" y="54"/>
      <point x="140" y="35" type="curve" smooth="yes"/>
      <point x="140" y="7"/>
      <point x="114" y="-7"/>
      <point x="93" y="-7" type="curve" smooth="yes"/>
      <point x="58" y="-7"/>
      <point x="51" y="13"/>
      <point x="51" y="28" type="curve" smooth="yes"/>
      <point x="51" y="53"/>
      <point x="83" y="64"/>
    </contour>
    <contour>
      <point x="99" y="354" type="curve" smooth="yes"/>
      <point x="120" y="354"/>
      <point x="140" y="343"/>
      <point x="140" y="325" type="curve" smooth="yes"/>
      <point x="140" y="296"/>
      <point x="114" y="283"/>
      <point x="93" y="283" type="curve" smooth="yes"/>
      <point x="58" y="283"/>
      <point x="51" y="302"/>
      <point x="51" y="317" type="curve" smooth="yes"/>
      <point x="51" y="343"/>
      <point x="83" y="354"/>
    </contour>
  </outline>
</glyph>
<glyph name="semicolon" format="1">
  <advance width="205"/>
  <unicode hex="003B"/>
  <outline>
    <contour>
      <point x="116" y="354" type="curve" smooth="yes"/>
      <point x="137" y="354"/>
      <point x="157" y="343"/>
      <point x="157" y="325" type="curve" smooth="yes"/>
      <point x="157" y="296"/>
      <point x="131" y="283"/>
      <point x="109" y="283" type="curve" smooth="yes"/>
      <point x="75" y="283"/>
      <point x="67" y="302"/>
      <point x="67" y="317" type="curve" smooth="yes"/>
      <point x="67" y="343"/>
      <point x="100" y="354"/>
    </contour>
    <contour>
      <point x="69" y="-154" type="curve" smooth="yes"/>
      <point x="65" y="-151"/>
      <point x="65" y="-140"/>
      <point x="80" y="-123" type="curve" smooth="yes"/>
      <point x="111" y="-88"/>
      <point x="131" y="-45"/>
      <point x="131" y="-9" type="curve" smooth="yes"/>
      <point x="131" y="23"/>
      <point x="115" y="31"/>
      <point x="106" y="31" type="curve" smooth="yes"/>
      <point x="90" y="31"/>
      <point x="78" y="25"/>
      <point x="64" y="16" type="curve" smooth="yes"/>
      <point x="52" y="8"/>
      <point x="41" y="8"/>
      <point x="35" y="14" type="curve"/>
      <point x="29" y="22"/>
      <point x="32" y="35"/>
      <point x="48" y="46" type="curve" smooth="yes"/>
      <point x="64" y="58"/>
      <point x="84" y="69"/>
      <point x="113" y="69" type="curve" smooth="yes"/>
      <point x="152" y="69"/>
      <point x="168" y="31"/>
      <point x="168" y="-7" type="curve" smooth="yes"/>
      <point x="168" y="-51"/>
      <point x="139" y="-104"/>
      <point x="111" y="-136" type="curve" smooth="yes"/>
      <point x="87" y="-162"/>
      <point x="77" y="-160"/>
    </contour>
  </outline>
</glyph>
<glyph name="equal" format="1">
  <advance width="420"/>
  <unicode hex="003D"/>
  <outline>
    <contour>
      <point x="50" y="290" type="curve" smooth="yes"/>
      <point x="29" y="290"/>
      <point x="20" y="293"/>
      <point x="26" y="306" type="curve" smooth="yes"/>
      <point x="33" y="320"/>
      <point x="45" y="321"/>
      <point x="66" y="321" type="curve" smooth="yes"/>
      <point x="194" y="319"/>
      <point x="224" y="319"/>
      <point x="319" y="322" type="curve" smooth="yes"/>
      <point x="326" y="322"/>
      <point x="342" y="323"/>
      <point x="350" y="327" type="curve" smooth="yes"/>
      <point x="375" y="339"/>
      <point x="393" y="343"/>
      <point x="393" y="330" type="curve" smooth="yes"/>
      <point x="393" y="322"/>
      <point x="381" y="308"/>
      <point x="365" y="300" type="curve"/>
      <point x="354" y="293"/>
      <point x="341" y="290"/>
      <point x="328" y="290" type="curve" smooth="yes"/>
      <point x="244" y="291"/>
      <point x="121" y="290"/>
    </contour>
    <contour>
      <point x="50" y="121" type="curve" smooth="yes"/>
      <point x="29" y="121"/>
      <point x="20" y="125"/>
      <point x="26" y="137" type="curve" smooth="yes"/>
      <point x="33" y="152"/>
      <point x="45" y="152"/>
      <point x="66" y="152" type="curve" smooth="yes"/>
      <point x="194" y="151"/>
      <point x="224" y="151"/>
      <point x="319" y="153" type="curve" smooth="yes"/>
      <point x="326" y="153"/>
      <point x="342" y="155"/>
      <point x="350" y="159" type="curve" smooth="yes"/>
      <point x="375" y="171"/>
      <point x="393" y="175"/>
      <point x="393" y="162" type="curve" smooth="yes"/>
      <point x="393" y="154"/>
      <point x="381" y="140"/>
      <point x="365" y="131" type="curve" smooth="yes"/>
      <point x="354" y="125"/>
      <point x="341" y="122"/>
      <point x="328" y="122" type="curve" smooth="yes"/>
      <point x="244" y="123"/>
      <point x="121" y="122"/>
    </contour>
  </outline>
</glyph>
<glyph name="greater" format="1">
  <advance width="355"/>
  <unicode hex="003E"/>
  <outline>
    <contour>
      <point x="289" y="215" type="curve" smooth="yes"/>
      <point x="244" y="188"/>
      <point x="140" y="126"/>
      <point x="109" y="105" type="curve" smooth="yes"/>
      <point x="103" y="101"/>
      <point x="79" y="82"/>
      <point x="72" y="75" type="curve" smooth="yes"/>
      <point x="64" y="66"/>
      <point x="51" y="61"/>
      <point x="46" y="75" type="curve"/>
      <point x="43" y="87"/>
      <point x="50" y="105"/>
      <point x="52" y="111" type="curve" smooth="yes"/>
      <point x="57" y="121"/>
      <point x="67" y="132"/>
      <point x="90" y="144" type="curve" smooth="yes"/>
      <point x="136" y="168"/>
      <point x="222" y="210"/>
      <point x="258" y="232" type="curve" smooth="yes"/>
      <point x="263" y="235"/>
      <point x="269" y="242"/>
      <point x="259" y="249" type="curve"/>
      <point x="247" y="259"/>
      <point x="90" y="342"/>
      <point x="62" y="357" type="curve"/>
      <point x="40" y="370"/>
      <point x="40" y="374"/>
      <point x="55" y="382" type="curve"/>
      <point x="66" y="389"/>
      <point x="75" y="384"/>
      <point x="83" y="379" type="curve" smooth="yes"/>
      <point x="104" y="366"/>
      <point x="253" y="290"/>
      <point x="306" y="261" type="curve" smooth="yes"/>
      <point x="314" y="257"/>
      <point x="314" y="253"/>
      <point x="311" y="242" type="curve" smooth="yes"/>
      <point x="308" y="227"/>
      <point x="306" y="225"/>
    </contour>
  </outline>
</glyph>
<glyph name="question" format="1">
  <advance width="417"/>
  <unicode hex="003F"/>
  <outline>
    <contour>
      <point x="184" y="168" type="curve" smooth="yes"/>
      <point x="172" y="168"/>
      <point x="171" y="184"/>
      <point x="171" y="192" type="curve" smooth="yes"/>
      <point x="171" y="230"/>
      <point x="184" y="271"/>
      <point x="208" y="303" type="curve" smooth="yes"/>
      <point x="233" y="336"/>
      <point x="249" y="351"/>
      <point x="291" y="383" type="curve" smooth="yes"/>
      <point x="322" y="407"/>
      <point x="352" y="444"/>
      <point x="352" y="482" type="curve" smooth="yes"/>
      <point x="352" y="550"/>
      <point x="288" y="572"/>
      <point x="223" y="572" type="curve" smooth="yes"/>
      <point x="149" y="572"/>
      <point x="77" y="526"/>
      <point x="77" y="466" type="curve" smooth="yes"/>
      <point x="77" y="437"/>
      <point x="88" y="415"/>
      <point x="121" y="415" type="curve" smooth="yes"/>
      <point x="142" y="415"/>
      <point x="169" y="423"/>
      <point x="180" y="433" type="curve"/>
      <point x="194" y="444"/>
      <point x="200" y="445"/>
      <point x="208" y="438" type="curve"/>
      <point x="216" y="429"/>
      <point x="202" y="414"/>
      <point x="199" y="412" type="curve" smooth="yes"/>
      <point x="190" y="405"/>
      <point x="155" y="383"/>
      <point x="115" y="383" type="curve" smooth="yes"/>
      <point x="82" y="383"/>
      <point x="42" y="410"/>
      <point x="42" y="466" type="curve" smooth="yes"/>
      <point x="42" y="540"/>
      <point x="132" y="605"/>
      <point x="225" y="605" type="curve" smooth="yes"/>
      <point x="316" y="605"/>
      <point x="392" y="569"/>
      <point x="392" y="485" type="curve"/>
      <point x="391" y="434"/>
      <point x="354" y="390"/>
      <point x="310" y="357" type="curve" smooth="yes"/>
      <point x="287" y="339"/>
      <point x="255" y="311"/>
      <point x="239" y="289" type="curve" smooth="yes"/>
      <point x="212" y="249"/>
      <point x="207" y="231"/>
      <point x="205" y="192" type="curve" smooth="yes"/>
      <point x="204" y="178"/>
      <point x="199" y="168"/>
    </contour>
    <contour>
      <point x="192" y="64" type="curve" smooth="yes"/>
      <point x="213" y="64"/>
      <point x="232" y="54"/>
      <point x="232" y="35" type="curve" smooth="yes"/>
      <point x="232" y="7"/>
      <point x="207" y="-7"/>
      <point x="185" y="-7" type="curve" smooth="yes"/>
      <point x="151" y="-7"/>
      <point x="143" y="13"/>
      <point x="143" y="28" type="curve" smooth="yes"/>
      <point x="143" y="53"/>
      <point x="176" y="64"/>
    </contour>
  </outline>
</glyph>
<glyph name="at" format="1">
  <advance width="741"/>
  <unicode hex="0040"/>
  <outline>
    <contour>
      <point x="439" y="-8" type="curve" smooth="yes"/>
      <point x="392" y="-8"/>
      <point x="394" y="77"/>
      <point x="403" y="116" type="curve" smooth="yes"/>
      <point x="406" y="126"/>
      <point x="405" y="131"/>
      <point x="402" y="133" type="curve" smooth="yes"/>
      <point x="398" y="135"/>
      <point x="391" y="130"/>
      <point x="386" y="123" type="curve" smooth="yes"/>
      <point x="368" y="100"/>
      <point x="292" y="25"/>
      <point x="266" y="6" type="curve" smooth="yes"/>
      <point x="253" y="-4"/>
      <point x="241" y="-8"/>
      <point x="230" y="-8" type="curve" smooth="yes"/>
      <point x="211" y="-8"/>
      <point x="197" y="15"/>
      <point x="197" y="69" type="curve" smooth="yes"/>
      <point x="197" y="206"/>
      <point x="309" y="379"/>
      <point x="400" y="419" type="curve" smooth="yes"/>
      <point x="411" y="424"/>
      <point x="433" y="424"/>
      <point x="443" y="421" type="curve" smooth="yes"/>
      <point x="457" y="416"/>
      <point x="465" y="412"/>
      <point x="480" y="404" type="curve"/>
      <point x="491" y="397"/>
      <point x="500" y="397"/>
      <point x="513" y="412" type="curve" smooth="yes"/>
      <point x="528" y="428"/>
      <point x="529" y="433"/>
      <point x="539" y="447" type="curve" smooth="yes"/>
      <point x="550" y="464"/>
      <point x="556" y="465"/>
      <point x="563" y="462" type="curve" smooth="yes"/>
      <point x="569" y="460"/>
      <point x="566" y="447"/>
      <point x="561" y="438" type="curve" smooth="yes"/>
      <point x="508" y="344"/>
      <point x="469" y="247"/>
      <point x="440" y="125" type="curve" smooth="yes"/>
      <point x="431" y="86"/>
      <point x="434" y="35"/>
      <point x="454" y="35" type="curve"/>
      <point x="460" y="28"/>
      <point x="487" y="49"/>
      <point x="493" y="55" type="curve" smooth="yes"/>
      <point x="556" y="108"/>
      <point x="662" y="268"/>
      <point x="662" y="396" type="curve" smooth="yes"/>
      <point x="662" y="536"/>
      <point x="585" y="593"/>
      <point x="486" y="593" type="curve" smooth="yes"/>
      <point x="301" y="593"/>
      <point x="81" y="394"/>
      <point x="81" y="114" type="curve" smooth="yes"/>
      <point x="81" y="-94"/>
      <point x="197" y="-190"/>
      <point x="332" y="-190" type="curve" smooth="yes"/>
      <point x="429" y="-190"/>
      <point x="529" y="-130"/>
      <point x="571" y="-82" type="curve" smooth="yes"/>
      <point x="586" y="-65"/>
      <point x="596" y="-66"/>
      <point x="602" y="-72" type="curve" smooth="yes"/>
      <point x="609" y="-78"/>
      <point x="605" y="-92"/>
      <point x="596" y="-103" type="curve" smooth="yes"/>
      <point x="551" y="-159"/>
      <point x="435" y="-226"/>
      <point x="330" y="-226" type="curve" smooth="yes"/>
      <point x="178" y="-226"/>
      <point x="45" y="-122"/>
      <point x="45" y="111" type="curve" smooth="yes"/>
      <point x="45" y="361"/>
      <point x="242" y="625"/>
      <point x="493" y="625" type="curve" smooth="yes"/>
      <point x="604" y="625"/>
      <point x="699" y="566"/>
      <point x="699" y="407" type="curve" smooth="yes"/>
      <point x="699" y="269"/>
      <point x="612" y="120"/>
      <point x="502" y="21" type="curve" smooth="yes"/>
      <point x="484" y="5"/>
      <point x="457" y="-8"/>
    </contour>
    <contour>
      <point x="277" y="56" type="curve" smooth="yes"/>
      <point x="317" y="89"/>
      <point x="361" y="136"/>
      <point x="400" y="191" type="curve" smooth="yes"/>
      <point x="423" y="225"/>
      <point x="456" y="290"/>
      <point x="469" y="336" type="curve" smooth="yes"/>
      <point x="476" y="362"/>
      <point x="467" y="375"/>
      <point x="439" y="386" type="curve" smooth="yes"/>
      <point x="428" y="391"/>
      <point x="414" y="389"/>
      <point x="404" y="386" type="curve" smooth="yes"/>
      <point x="388" y="380"/>
      <point x="375" y="369"/>
      <point x="359" y="350" type="curve" smooth="yes"/>
      <point x="302" y="285"/>
      <point x="237" y="175"/>
      <point x="237" y="77" type="curve" smooth="yes"/>
      <point x="237" y="48"/>
      <point x="248" y="31"/>
    </contour>
  </outline>
</glyph>
<glyph name="B" format="1">
  <advance width="589"/>
  <unicode hex="0042"/>
  <outline>
    <contour>
      <point x="19" y="7" type="curve" smooth="yes"/>
      <point x="15" y="25"/>
      <point x="44" y="28"/>
      <point x="57" y="28" type="curve" smooth="yes"/>
      <point x="137" y="29"/>
      <point x="141" y="35"/>
      <point x="144" y="99" type="curve" smooth="yes"/>
      <point x="146" y="136"/>
      <point x="150" y="469"/>
      <point x="149" y="498" type="curve" smooth="yes"/>
      <point x="147" y="555"/>
      <point x="132" y="565"/>
      <point x="41" y="569" type="curve" smooth="yes"/>
      <point x="28" y="570"/>
      <point x="25" y="578"/>
      <point x="25" y="584" type="curve" smooth="yes"/>
      <point x="25" y="590"/>
      <point x="32" y="598"/>
      <point x="64" y="594" type="curve" smooth="yes"/>
      <point x="78" y="593"/>
      <point x="125" y="592"/>
      <point x="164" y="592" type="curve"/>
      <point x="324" y="597"/>
      <point x="296" y="596"/>
      <point x="340" y="596" type="curve" smooth="yes"/>
      <point x="465" y="597"/>
      <point x="508" y="559"/>
      <point x="508" y="499" type="curve" smooth="yes"/>
      <point x="508" y="438"/>
      <point x="439" y="388"/>
      <point x="400" y="375" type="curve"/>
      <point x="379" y="370"/>
      <point x="370" y="359"/>
      <point x="400" y="359" type="curve" smooth="yes"/>
      <point x="486" y="359"/>
      <point x="565" y="308"/>
      <point x="565" y="236" type="curve" smooth="yes"/>
      <point x="565" y="59"/>
      <point x="404" y="-1"/>
      <point x="292" y="-1" type="curve" smooth="yes"/>
      <point x="238" y="-1"/>
      <point x="202" y="2"/>
      <point x="178" y="2" type="curve" smooth="yes"/>
      <point x="121" y="2"/>
      <point x="54" y="-2"/>
      <point x="40" y="-3" type="curve" smooth="yes"/>
      <point x="30" y="-3"/>
      <point x="22" y="-3"/>
    </contour>
    <contour>
      <point x="184" y="72" type="curve"/>
      <point x="186" y="27"/>
      <point x="204" y="33"/>
      <point x="289" y="33" type="curve" smooth="yes"/>
      <point x="427" y="33"/>
      <point x="526" y="102"/>
      <point x="526" y="231" type="curve" smooth="yes"/>
      <point x="526" y="290"/>
      <point x="443" y="336"/>
      <point x="348" y="336" type="curve" smooth="yes"/>
      <point x="324" y="336"/>
      <point x="277" y="334"/>
      <point x="273" y="346" type="curve" smooth="yes"/>
      <point x="269" y="357"/>
      <point x="276" y="365"/>
      <point x="301" y="370" type="curve" smooth="yes"/>
      <point x="380" y="383"/>
      <point x="471" y="433"/>
      <point x="471" y="495" type="curve" smooth="yes"/>
      <point x="471" y="536"/>
      <point x="439" y="566"/>
      <point x="336" y="567" type="curve" smooth="yes"/>
      <point x="300" y="568"/>
      <point x="244" y="565"/>
      <point x="223" y="564" type="curve" smooth="yes"/>
      <point x="205" y="563"/>
      <point x="187" y="556"/>
      <point x="187" y="544" type="curve" smooth="yes"/>
      <point x="182" y="325"/>
      <point x="182" y="223"/>
    </contour>
  </outline>
</glyph>
<glyph name="D" format="1">
  <advance width="653"/>
  <unicode hex="0044"/>
  <outline>
    <contour>
      <point x="25" y="584" type="curve" smooth="yes"/>
      <point x="25" y="590"/>
      <point x="32" y="598"/>
      <point x="64" y="594" type="curve" smooth="yes"/>
      <point x="78" y="593"/>
      <point x="103" y="592"/>
      <point x="142" y="592" type="curve" smooth="yes"/>
      <point x="203" y="593"/>
      <point x="274" y="597"/>
      <point x="320" y="597" type="curve" smooth="yes"/>
      <point x="513" y="598"/>
      <point x="623" y="527"/>
      <point x="622" y="386" type="curve" smooth="yes"/>
      <point x="620" y="131"/>
      <point x="436" y="0"/>
      <point x="265" y="0" type="curve"/>
      <point x="221" y="-1"/>
      <point x="177" y="2"/>
      <point x="156" y="2" type="curve" smooth="yes"/>
      <point x="99" y="2"/>
      <point x="54" y="-2"/>
      <point x="40" y="-3" type="curve" smooth="yes"/>
      <point x="30" y="-3"/>
      <point x="22" y="-3"/>
      <point x="19" y="7" type="curve" smooth="yes"/>
      <point x="15" y="25"/>
      <point x="44" y="28"/>
      <point x="57" y="28" type="curve" smooth="yes"/>
      <point x="141" y="29"/>
      <point x="141" y="46"/>
      <point x="144" y="99" type="curve" smooth="yes"/>
      <point x="146" y="149"/>
      <point x="150" y="469"/>
      <point x="149" y="498" type="curve" smooth="yes"/>
      <point x="147" y="559"/>
      <point x="145" y="565"/>
      <point x="40" y="567" type="curve" smooth="yes"/>
      <point x="26" y="567"/>
      <point x="25" y="577"/>
    </contour>
    <contour>
      <point x="189" y="509" type="curve" smooth="yes"/>
      <point x="187" y="344"/>
      <point x="184" y="232"/>
      <point x="189" y="82" type="curve"/>
      <point x="189" y="44"/>
      <point x="194" y="35"/>
      <point x="266" y="34" type="curve" smooth="yes"/>
      <point x="439" y="32"/>
      <point x="582" y="180"/>
      <point x="582" y="381" type="curve" smooth="yes"/>
      <point x="582" y="519"/>
      <point x="456" y="565"/>
      <point x="327" y="566" type="curve" smooth="yes"/>
      <point x="300" y="566"/>
      <point x="259" y="566"/>
      <point x="233" y="565" type="curve" smooth="yes"/>
      <point x="200" y="564"/>
      <point x="190" y="558"/>
    </contour>
  </outline>
</glyph>
<glyph name="F" format="1">
  <advance width="538"/>
  <unicode hex="0046"/>
  <outline>
    <contour>
      <point x="65" y="595" type="curve" smooth="yes"/>
      <point x="105" y="591"/>
      <point x="135" y="588"/>
      <point x="173" y="588" type="curve" smooth="yes"/>
      <point x="253" y="588"/>
      <point x="468" y="599"/>
      <point x="492" y="599" type="curve" smooth="yes"/>
      <point x="526" y="599"/>
      <point x="525" y="592"/>
      <point x="529" y="584" type="curve"/>
      <point x="537" y="556"/>
      <point x="535" y="474"/>
      <point x="515" y="451" type="curve" smooth="yes"/>
      <point x="508" y="444"/>
      <point x="501" y="439"/>
      <point x="493" y="445" type="curve"/>
      <point x="489" y="450"/>
      <point x="486" y="453"/>
      <point x="490" y="461" type="curve" smooth="yes"/>
      <point x="503" y="487"/>
      <point x="503" y="516"/>
      <point x="503" y="535" type="curve" smooth="yes"/>
      <point x="502" y="562"/>
      <point x="487" y="566"/>
      <point x="455" y="564" type="curve" smooth="yes"/>
      <point x="400" y="561"/>
      <point x="235" y="557"/>
      <point x="207" y="556" type="curve" smooth="yes"/>
      <point x="189" y="556"/>
      <point x="189" y="547"/>
      <point x="189" y="534" type="curve" smooth="yes"/>
      <point x="189" y="365" type="line" smooth="yes"/>
      <point x="189" y="346"/>
      <point x="185" y="329"/>
      <point x="231" y="329" type="curve" smooth="yes"/>
      <point x="306" y="329"/>
      <point x="323" y="329"/>
      <point x="371" y="332" type="curve"/>
      <point x="405" y="333"/>
      <point x="413" y="348"/>
      <point x="420" y="404" type="curve" smooth="yes"/>
      <point x="422" y="418"/>
      <point x="428" y="423"/>
      <point x="437" y="422" type="curve"/>
      <point x="448" y="422"/>
      <point x="447" y="402"/>
      <point x="445" y="390" type="curve" smooth="yes"/>
      <point x="437" y="332"/>
      <point x="434" y="297"/>
      <point x="435" y="240" type="curve" smooth="yes"/>
      <point x="435" y="231"/>
      <point x="431" y="221"/>
      <point x="420" y="220" type="curve" smooth="yes"/>
      <point x="415" y="220"/>
      <point x="407" y="228"/>
      <point x="406" y="239" type="curve" smooth="yes"/>
      <point x="402" y="295"/>
      <point x="398" y="295"/>
      <point x="352" y="297" type="curve" smooth="yes"/>
      <point x="316" y="299"/>
      <point x="229" y="300"/>
      <point x="216" y="299" type="curve" smooth="yes"/>
      <point x="194" y="297"/>
      <point x="189" y="292"/>
      <point x="189" y="275" type="curve"/>
      <point x="185" y="228"/>
      <point x="187" y="153"/>
      <point x="187" y="101" type="curve" smooth="yes"/>
      <point x="187" y="41"/>
      <point x="189" y="34"/>
      <point x="269" y="29" type="curve"/>
      <point x="290" y="29"/>
      <point x="309" y="30"/>
      <point x="311" y="12" type="curve"/>
      <point x="311" y="1"/>
      <point x="298" y="-3"/>
      <point x="274" y="-1" type="curve" smooth="yes"/>
      <point x="209" y="7"/>
      <point x="72" y="-2"/>
      <point x="51" y="-3" type="curve" smooth="yes"/>
      <point x="40" y="-3"/>
      <point x="31" y="-3"/>
      <point x="29" y="7" type="curve" smooth="yes"/>
      <point x="25" y="25"/>
      <point x="54" y="27"/>
      <point x="68" y="28" type="curve" smooth="yes"/>
      <point x="146" y="32"/>
      <point x="145" y="36"/>
      <point x="148" y="100" type="curve"/>
      <point x="148" y="498" type="line" smooth="yes"/>
      <point x="148" y="561"/>
      <point x="139" y="561"/>
      <point x="42" y="569" type="curve" smooth="yes"/>
      <point x="29" y="570"/>
      <point x="26" y="578"/>
      <point x="26" y="585" type="curve" smooth="yes"/>
      <point x="26" y="591"/>
      <point x="33" y="598"/>
    </contour>
  </outline>
</glyph>
<glyph name="G" format="1">
  <advance width="620"/>
  <unicode hex="0047"/>
  <outline>
    <contour>
      <point x="295" y="-14" type="curve" smooth="yes"/>
      <point x="125" y="-14"/>
      <point x="38" y="104"/>
      <point x="38" y="240" type="curve" smooth="yes"/>
      <point x="38" y="474"/>
      <point x="210" y="604"/>
      <point x="374" y="604" type="curve" smooth="yes"/>
      <point x="474" y="604"/>
      <point x="533" y="566"/>
      <point x="533" y="507" type="curve" smooth="yes"/>
      <point x="533" y="468"/>
      <point x="515" y="440"/>
      <point x="497" y="423" type="curve" smooth="yes"/>
      <point x="489" y="415"/>
      <point x="474" y="412"/>
      <point x="467" y="415" type="curve" smooth="yes"/>
      <point x="462" y="418"/>
      <point x="460" y="431"/>
      <point x="469" y="439" type="curve" smooth="yes"/>
      <point x="491" y="458"/>
      <point x="494" y="487"/>
      <point x="493" y="503" type="curve" smooth="yes"/>
      <point x="492" y="551"/>
      <point x="434" y="572"/>
      <point x="369" y="572" type="curve" smooth="yes"/>
      <point x="194" y="572"/>
      <point x="77" y="418"/>
      <point x="77" y="244" type="curve" smooth="yes"/>
      <point x="77" y="88"/>
      <point x="185" y="19"/>
      <point x="301" y="19" type="curve" smooth="yes"/>
      <point x="455" y="19"/>
      <point x="525" y="136"/>
      <point x="525" y="195" type="curve" smooth="yes"/>
      <point x="525" y="242"/>
      <point x="519" y="259"/>
      <point x="443" y="262" type="curve" smooth="yes"/>
      <point x="411" y="263"/>
      <point x="372" y="265"/>
      <point x="334" y="265" type="curve" smooth="yes"/>
      <point x="304" y="265"/>
      <point x="289" y="269"/>
      <point x="289" y="283" type="curve" smooth="yes"/>
      <point x="289" y="293"/>
      <point x="302" y="295"/>
      <point x="330" y="293" type="curve" smooth="yes"/>
      <point x="380" y="290"/>
      <point x="542" y="291"/>
      <point x="589" y="295" type="curve"/>
      <point x="599" y="294"/>
      <point x="609" y="293"/>
      <point x="610" y="287" type="curve" smooth="yes"/>
      <point x="614" y="275"/>
      <point x="601" y="266"/>
      <point x="584" y="264" type="curve" smooth="yes"/>
      <point x="556" y="261"/>
      <point x="549" y="263"/>
      <point x="559" y="233" type="curve" smooth="yes"/>
      <point x="561" y="226"/>
      <point x="561" y="214"/>
      <point x="561" y="201" type="curve" smooth="yes"/>
      <point x="561" y="74"/>
      <point x="440" y="-14"/>
    </contour>
  </outline>
</glyph>
<glyph name="H" format="1">
  <advance width="745"/>
  <unicode hex="0048"/>
  <outline>
    <contour>
      <point x="572" y="499" type="line"/>
      <point x="571" y="562"/>
      <point x="567" y="562"/>
      <point x="466" y="570" type="curve" smooth="yes"/>
      <point x="454" y="571"/>
      <point x="451" y="579"/>
      <point x="451" y="585" type="curve" smooth="yes"/>
      <point x="451" y="592"/>
      <point x="459" y="599"/>
      <point x="490" y="595" type="curve" smooth="yes"/>
      <point x="520" y="592"/>
      <point x="641" y="592"/>
      <point x="694" y="595" type="curve" smooth="yes"/>
      <point x="714" y="596"/>
      <point x="725" y="596"/>
      <point x="725" y="582" type="curve"/>
      <point x="724" y="572"/>
      <point x="714" y="569"/>
      <point x="699" y="568" type="curve" smooth="yes"/>
      <point x="605" y="563"/>
      <point x="609" y="566"/>
      <point x="607" y="496" type="curve" smooth="yes"/>
      <point x="606" y="481"/>
      <point x="604" y="162"/>
      <point x="607" y="101" type="curve" smooth="yes"/>
      <point x="609" y="40"/>
      <point x="611" y="35"/>
      <point x="675" y="31" type="curve" smooth="yes"/>
      <point x="695" y="30"/>
      <point x="721" y="30"/>
      <point x="722" y="12" type="curve" smooth="yes"/>
      <point x="723" y="1"/>
      <point x="709" y="-3"/>
      <point x="684" y="-1" type="curve"/>
      <point x="619" y="7"/>
      <point x="488" y="-2"/>
      <point x="465" y="-3" type="curve" smooth="yes"/>
      <point x="457" y="-3"/>
      <point x="448" y="-3"/>
      <point x="446" y="7" type="curve" smooth="yes"/>
      <point x="442" y="25"/>
      <point x="468" y="26"/>
      <point x="483" y="27" type="curve" smooth="yes"/>
      <point x="563" y="31"/>
      <point x="569" y="41"/>
      <point x="569" y="100" type="curve" smooth="yes"/>
      <point x="569" y="117"/>
      <point x="570" y="194"/>
      <point x="570" y="275" type="curve" smooth="yes"/>
      <point x="570" y="293"/>
      <point x="566" y="306"/>
      <point x="544" y="307" type="curve" smooth="yes"/>
      <point x="442" y="310"/>
      <point x="306" y="309"/>
      <point x="205" y="307" type="curve" smooth="yes"/>
      <point x="180" y="307"/>
      <point x="178" y="300"/>
      <point x="178" y="285" type="curve" smooth="yes"/>
      <point x="177" y="207"/>
      <point x="175" y="127"/>
      <point x="175" y="101" type="curve" smooth="yes"/>
      <point x="175" y="41"/>
      <point x="181" y="34"/>
      <point x="250" y="29" type="curve"/>
      <point x="270" y="29"/>
      <point x="290" y="30"/>
      <point x="291" y="12" type="curve" smooth="yes"/>
      <point x="292" y="1"/>
      <point x="279" y="-3"/>
      <point x="255" y="-1" type="curve" smooth="yes"/>
      <point x="189" y="7"/>
      <point x="63" y="-2"/>
      <point x="41" y="-3" type="curve" smooth="yes"/>
      <point x="31" y="-3"/>
      <point x="22" y="-3"/>
      <point x="20" y="7" type="curve" smooth="yes"/>
      <point x="16" y="25"/>
      <point x="45" y="27"/>
      <point x="59" y="28" type="curve" smooth="yes"/>
      <point x="137" y="32"/>
      <point x="136" y="36"/>
      <point x="139" y="100" type="curve" smooth="yes"/>
      <point x="141" y="137"/>
      <point x="144" y="470"/>
      <point x="144" y="499" type="curve" smooth="yes"/>
      <point x="144" y="562"/>
      <point x="139" y="564"/>
      <point x="41" y="571" type="curve" smooth="yes"/>
      <point x="28" y="572"/>
      <point x="25" y="579"/>
      <point x="25" y="585" type="curve" smooth="yes"/>
      <point x="25" y="592"/>
      <point x="32" y="599"/>
      <point x="64" y="595" type="curve" smooth="yes"/>
      <point x="94" y="592"/>
      <point x="214" y="592"/>
      <point x="269" y="595" type="curve" smooth="yes"/>
      <point x="288" y="596"/>
      <point x="297" y="596"/>
      <point x="297" y="582" type="curve"/>
      <point x="296" y="572"/>
      <point x="288" y="568"/>
      <point x="274" y="568" type="curve" smooth="yes"/>
      <point x="182" y="566"/>
      <point x="182" y="561"/>
      <point x="180" y="495" type="curve" smooth="yes"/>
      <point x="179" y="472"/>
      <point x="179" y="427"/>
      <point x="178" y="354" type="curve" smooth="yes"/>
      <point x="178" y="348"/>
      <point x="180" y="336"/>
      <point x="205" y="335" type="curve" smooth="yes"/>
      <point x="306" y="332"/>
      <point x="443" y="333"/>
      <point x="544" y="335" type="curve" smooth="yes"/>
      <point x="562" y="335"/>
      <point x="572" y="351"/>
      <point x="572" y="359" type="curve" smooth="yes"/>
    </contour>
  </outline>
</glyph>
<glyph name="J" format="1">
  <advance width="307"/>
  <unicode hex="004A"/>
  <outline>
    <contour>
      <point x="83" y="596" type="curve" smooth="yes"/>
      <point x="122" y="593"/>
      <point x="193" y="590"/>
      <point x="254" y="596" type="curve" smooth="yes"/>
      <point x="274" y="598"/>
      <point x="283" y="597"/>
      <point x="283" y="582" type="curve"/>
      <point x="282" y="572"/>
      <point x="274" y="572"/>
      <point x="260" y="571" type="curve" smooth="yes"/>
      <point x="190" y="568"/>
      <point x="187" y="553"/>
      <point x="185" y="497" type="curve"/>
      <point x="184" y="439"/>
      <point x="185" y="274"/>
      <point x="183" y="159" type="curve" smooth="yes"/>
      <point x="177" y="-90"/>
      <point x="82" y="-203"/>
      <point x="6" y="-203" type="curve" smooth="yes"/>
      <point x="-56" y="-203"/>
      <point x="-77" y="-173"/>
      <point x="-77" y="-136" type="curve" smooth="yes"/>
      <point x="-77" y="-104"/>
      <point x="-60" y="-66"/>
      <point x="-33" y="-45" type="curve" smooth="yes"/>
      <point x="-27" y="-41"/>
      <point x="-12" y="-32"/>
      <point x="-5" y="-40" type="curve" smooth="yes"/>
      <point x="1" y="-46"/>
      <point x="-6" y="-61"/>
      <point x="-12" y="-68" type="curve" smooth="yes"/>
      <point x="-29" y="-87"/>
      <point x="-35" y="-104"/>
      <point x="-35" y="-135" type="curve" smooth="yes"/>
      <point x="-35" y="-152"/>
      <point x="-23" y="-168"/>
      <point x="7" y="-168" type="curve" smooth="yes"/>
      <point x="82" y="-168"/>
      <point x="144" y="-15"/>
      <point x="147" y="158" type="curve" smooth="yes"/>
      <point x="150" y="295"/>
      <point x="150" y="476"/>
      <point x="149" y="499" type="curve" smooth="yes"/>
      <point x="146" y="555"/>
      <point x="144" y="566"/>
      <point x="61" y="572" type="curve" smooth="yes"/>
      <point x="48" y="573"/>
      <point x="45" y="580"/>
      <point x="45" y="586" type="curve" smooth="yes"/>
      <point x="45" y="593"/>
      <point x="52" y="598"/>
    </contour>
  </outline>
</glyph>
<glyph name="K" format="1">
  <advance width="677"/>
  <unicode hex="004B"/>
  <outline>
    <contour>
      <point x="64" y="597" type="curve"/>
      <point x="94" y="593"/>
      <point x="215" y="593"/>
      <point x="269" y="597" type="curve" smooth="yes"/>
      <point x="289" y="598"/>
      <point x="299" y="598"/>
      <point x="299" y="583" type="curve"/>
      <point x="297" y="573"/>
      <point x="289" y="568"/>
      <point x="275" y="568" type="curve" smooth="yes"/>
      <point x="176" y="568"/>
      <point x="188" y="540"/>
      <point x="182" y="497" type="curve" smooth="yes"/>
      <point x="181" y="488"/>
      <point x="179" y="405"/>
      <point x="179" y="316" type="curve" smooth="yes"/>
      <point x="179" y="310"/>
      <point x="185" y="303"/>
      <point x="194" y="311" type="curve" smooth="yes"/>
      <point x="274" y="395"/>
      <point x="456" y="545"/>
      <point x="519" y="585" type="curve" smooth="yes"/>
      <point x="543" y="601"/>
      <point x="556" y="603"/>
      <point x="568" y="603" type="curve" smooth="yes"/>
      <point x="598" y="603"/>
      <point x="619" y="583"/>
      <point x="619" y="540" type="curve" smooth="yes"/>
      <point x="619" y="527"/>
      <point x="610" y="491"/>
      <point x="592" y="471" type="curve" smooth="yes"/>
      <point x="580" y="458"/>
      <point x="567" y="456"/>
      <point x="560" y="460" type="curve" smooth="yes"/>
      <point x="551" y="465"/>
      <point x="554" y="476"/>
      <point x="558" y="481" type="curve" smooth="yes"/>
      <point x="572" y="499"/>
      <point x="579" y="519"/>
      <point x="578" y="537" type="curve" smooth="yes"/>
      <point x="578" y="545"/>
      <point x="571" y="559"/>
      <point x="557" y="559" type="curve" smooth="yes"/>
      <point x="546" y="559"/>
      <point x="529" y="551"/>
      <point x="512" y="540" type="curve" smooth="yes"/>
      <point x="455" y="501"/>
      <point x="359" y="424"/>
      <point x="299" y="364" type="curve" smooth="yes"/>
      <point x="288" y="352"/>
      <point x="289" y="342"/>
      <point x="296" y="329" type="curve" smooth="yes"/>
      <point x="339" y="258"/>
      <point x="446" y="118"/>
      <point x="511" y="54" type="curve" smooth="yes"/>
      <point x="534" y="31"/>
      <point x="542" y="30"/>
      <point x="571" y="32" type="curve" smooth="yes"/>
      <point x="583" y="33"/>
      <point x="634" y="45"/>
      <point x="657" y="48" type="curve" smooth="yes"/>
      <point x="663" y="49"/>
      <point x="676" y="49"/>
      <point x="678" y="40" type="curve" smooth="yes"/>
      <point x="679" y="31"/>
      <point x="674" y="26"/>
      <point x="661" y="19" type="curve" smooth="yes"/>
      <point x="646" y="12"/>
      <point x="574" y="-6"/>
      <point x="548" y="-6" type="curve" smooth="yes"/>
      <point x="527" y="-6"/>
      <point x="513" y="-3"/>
      <point x="492" y="14" type="curve"/>
      <point x="440" y="61"/>
      <point x="301" y="242"/>
      <point x="258" y="313" type="curve" smooth="yes"/>
      <point x="252" y="322"/>
      <point x="242" y="317"/>
      <point x="237" y="312" type="curve"/>
      <point x="225" y="303"/>
      <point x="199" y="277"/>
      <point x="191" y="267" type="curve" smooth="yes"/>
      <point x="179" y="252"/>
      <point x="178" y="245"/>
      <point x="178" y="215" type="curve" smooth="yes"/>
      <point x="178" y="166"/>
      <point x="179" y="120"/>
      <point x="180" y="101" type="curve" smooth="yes"/>
      <point x="183" y="44"/>
      <point x="185" y="40"/>
      <point x="250" y="34" type="curve"/>
      <point x="271" y="31"/>
      <point x="294" y="30"/>
      <point x="295" y="12" type="curve" smooth="yes"/>
      <point x="296" y="1"/>
      <point x="283" y="-3"/>
      <point x="260" y="-1" type="curve" smooth="yes"/>
      <point x="194" y="7"/>
      <point x="111" y="3"/>
      <point x="40" y="-3" type="curve" smooth="yes"/>
      <point x="30" y="-3"/>
      <point x="21" y="-3"/>
      <point x="19" y="7" type="curve" smooth="yes"/>
      <point x="15" y="25"/>
      <point x="44" y="29"/>
      <point x="58" y="30" type="curve" smooth="yes"/>
      <point x="136" y="38"/>
      <point x="136" y="43"/>
      <point x="137" y="100" type="curve" smooth="yes"/>
      <point x="138" y="136"/>
      <point x="144" y="471"/>
      <point x="142" y="501" type="curve" smooth="yes"/>
      <point x="140" y="556"/>
      <point x="134" y="566"/>
      <point x="41" y="571" type="curve" smooth="yes"/>
      <point x="28" y="572"/>
      <point x="25" y="580"/>
      <point x="25" y="587" type="curve" smooth="yes"/>
      <point x="25" y="593"/>
      <point x="32" y="600"/>
    </contour>
  </outline>
</glyph>
<glyph name="M" format="1">
  <advance width="927"/>
  <unicode hex="004D"/>
  <outline>
    <contour>
      <point x="72" y="583" type="curve" smooth="yes"/>
      <point x="72" y="594"/>
      <point x="83" y="598"/>
      <point x="97" y="598" type="curve" smooth="yes"/>
      <point x="99" y="598"/>
      <point x="184" y="598"/>
      <point x="218" y="593" type="curve" smooth="yes"/>
      <point x="261" y="586"/>
      <point x="270" y="562"/>
      <point x="288" y="526" type="curve" smooth="yes"/>
      <point x="308" y="484"/>
      <point x="396" y="181"/>
      <point x="436" y="69" type="curve" smooth="yes"/>
      <point x="439" y="61"/>
      <point x="451" y="55"/>
      <point x="457" y="69" type="curve" smooth="yes"/>
      <point x="499" y="181"/>
      <point x="611" y="468"/>
      <point x="618" y="493" type="curve" smooth="yes"/>
      <point x="638" y="564"/>
      <point x="660" y="593"/>
      <point x="725" y="597" type="curve" smooth="yes"/>
      <point x="753" y="598"/>
      <point x="790" y="598"/>
      <point x="807" y="598" type="curve" smooth="yes"/>
      <point x="823" y="598"/>
      <point x="827" y="594"/>
      <point x="827" y="584" type="curve" smooth="yes"/>
      <point x="827" y="575"/>
      <point x="815" y="571"/>
      <point x="809" y="571" type="curve" smooth="yes"/>
      <point x="731" y="566"/>
      <point x="715" y="571"/>
      <point x="726" y="499" type="curve" smooth="yes"/>
      <point x="747" y="369"/>
      <point x="775" y="228"/>
      <point x="806" y="98" type="curve" smooth="yes"/>
      <point x="821" y="34"/>
      <point x="826" y="35"/>
      <point x="903" y="24" type="curve"/>
      <point x="918" y="23"/>
      <point x="920" y="18"/>
      <point x="918" y="7" type="curve" smooth="yes"/>
      <point x="916" y="0"/>
      <point x="909" y="-3"/>
      <point x="899" y="-2" type="curve" smooth="yes"/>
      <point x="832" y="7"/>
      <point x="750" y="4"/>
      <point x="695" y="0" type="curve" smooth="yes"/>
      <point x="676" y="-2"/>
      <point x="661" y="-5"/>
      <point x="657" y="7" type="curve"/>
      <point x="655" y="17"/>
      <point x="659" y="25"/>
      <point x="678" y="26" type="curve" smooth="yes"/>
      <point x="770" y="30"/>
      <point x="778" y="39"/>
      <point x="766" y="96" type="curve" smooth="yes"/>
      <point x="741" y="217"/>
      <point x="710" y="375"/>
      <point x="686" y="494" type="curve" smooth="yes"/>
      <point x="679" y="531"/>
      <point x="668" y="520"/>
      <point x="657" y="494" type="curve" smooth="yes"/>
      <point x="622" y="409"/>
      <point x="533" y="170"/>
      <point x="492" y="54" type="curve" smooth="yes"/>
      <point x="486" y="37"/>
      <point x="491" y="19"/>
      <point x="479" y="10" type="curve" smooth="yes"/>
      <point x="465" y="-1"/>
      <point x="455" y="-6"/>
      <point x="438" y="-7" type="curve" smooth="yes"/>
      <point x="415" y="-8"/>
      <point x="405" y="29"/>
      <point x="394" y="65" type="curve" smooth="yes"/>
      <point x="361" y="170"/>
      <point x="304" y="377"/>
      <point x="258" y="493" type="curve"/>
      <point x="244" y="524"/>
      <point x="239" y="525"/>
      <point x="227" y="493" type="curve"/>
      <point x="207" y="414"/>
      <point x="149" y="190"/>
      <point x="133" y="100" type="curve" smooth="yes"/>
      <point x="119" y="24"/>
      <point x="136" y="33"/>
      <point x="210" y="27" type="curve" smooth="yes"/>
      <point x="225" y="26"/>
      <point x="232" y="20"/>
      <point x="231" y="10" type="curve"/>
      <point x="228" y="-2"/>
      <point x="219" y="-2"/>
      <point x="199" y="-1" type="curve" smooth="yes"/>
      <point x="130" y="3"/>
      <point x="93" y="4"/>
      <point x="59" y="2" type="curve" smooth="yes"/>
      <point x="44" y="1"/>
      <point x="15" y="-7"/>
      <point x="12" y="10" type="curve" smooth="yes"/>
      <point x="10" y="20"/>
      <point x="22" y="30"/>
      <point x="34" y="31" type="curve" smooth="yes"/>
      <point x="57" y="33"/>
      <point x="75" y="51"/>
      <point x="90" y="100" type="curve" smooth="yes"/>
      <point x="106" y="151"/>
      <point x="168" y="392"/>
      <point x="184" y="468" type="curve" smooth="yes"/>
      <point x="202" y="551"/>
      <point x="206" y="566"/>
      <point x="95" y="568" type="curve" smooth="yes"/>
      <point x="79" y="568"/>
      <point x="72" y="571"/>
    </contour>
  </outline>
</glyph>
<glyph name="P" format="1">
  <advance width="518"/>
  <unicode hex="0050"/>
  <outline>
    <contour>
      <point x="25" y="586" type="curve" smooth="yes"/>
      <point x="25" y="593"/>
      <point x="32" y="600"/>
      <point x="64" y="596" type="curve" smooth="yes"/>
      <point x="116" y="588"/>
      <point x="141" y="593"/>
      <point x="215" y="593" type="curve" smooth="yes"/>
      <point x="235" y="593"/>
      <point x="283" y="596"/>
      <point x="316" y="596" type="curve" smooth="yes"/>
      <point x="453" y="596"/>
      <point x="504" y="556"/>
      <point x="504" y="468" type="curve" smooth="yes"/>
      <point x="504" y="289"/>
      <point x="329" y="267"/>
      <point x="282" y="267" type="curve" smooth="yes"/>
      <point x="266" y="267"/>
      <point x="249" y="265"/>
      <point x="249" y="283" type="curve" smooth="yes"/>
      <point x="249" y="289"/>
      <point x="253" y="296"/>
      <point x="269" y="297" type="curve" smooth="yes"/>
      <point x="381" y="303"/>
      <point x="463" y="345"/>
      <point x="463" y="463" type="curve" smooth="yes"/>
      <point x="463" y="532"/>
      <point x="418" y="561"/>
      <point x="305" y="562" type="curve" smooth="yes"/>
      <point x="285" y="562"/>
      <point x="242" y="562"/>
      <point x="210" y="561" type="curve" smooth="yes"/>
      <point x="189" y="560"/>
      <point x="184" y="551"/>
      <point x="183" y="531" type="curve" smooth="yes"/>
      <point x="179" y="442"/>
      <point x="178" y="177"/>
      <point x="182" y="101" type="curve" smooth="yes"/>
      <point x="185" y="38"/>
      <point x="190" y="41"/>
      <point x="249" y="34" type="curve" smooth="yes"/>
      <point x="269" y="31"/>
      <point x="294" y="30"/>
      <point x="295" y="12" type="curve" smooth="yes"/>
      <point x="296" y="1"/>
      <point x="283" y="-3"/>
      <point x="259" y="-1" type="curve" smooth="yes"/>
      <point x="194" y="7"/>
      <point x="62" y="-2"/>
      <point x="40" y="-3" type="curve" smooth="yes"/>
      <point x="30" y="-3"/>
      <point x="21" y="-3"/>
      <point x="19" y="7" type="curve" smooth="yes"/>
      <point x="15" y="25"/>
      <point x="44" y="29"/>
      <point x="58" y="29" type="curve" smooth="yes"/>
      <point x="128" y="33"/>
      <point x="135" y="41"/>
      <point x="137" y="100" type="curve" smooth="yes"/>
      <point x="139" y="136"/>
      <point x="140" y="471"/>
      <point x="138" y="500" type="curve" smooth="yes"/>
      <point x="136" y="557"/>
      <point x="110" y="566"/>
      <point x="41" y="571" type="curve" smooth="yes"/>
      <point x="28" y="572"/>
      <point x="25" y="580"/>
    </contour>
  </outline>
</glyph>
<glyph name="Q" format="1">
  <advance width="698"/>
  <unicode hex="0051"/>
  <outline>
    <contour>
      <point x="361" y="607" type="curve" smooth="yes"/>
      <point x="524" y="607"/>
      <point x="640" y="502"/>
      <point x="640" y="332" type="curve" smooth="yes"/>
      <point x="640" y="219"/>
      <point x="600" y="132"/>
      <point x="535" y="72" type="curve" smooth="yes"/>
      <point x="519" y="56"/>
      <point x="520" y="44"/>
      <point x="525" y="35" type="curve" smooth="yes"/>
      <point x="561" y="-22"/>
      <point x="593" y="-91"/>
      <point x="646" y="-91" type="curve" smooth="yes"/>
      <point x="676" y="-91"/>
      <point x="699" y="-72"/>
      <point x="715" y="-58" type="curve" smooth="yes"/>
      <point x="725" y="-50"/>
      <point x="733" y="-44"/>
      <point x="742" y="-53" type="curve" smooth="yes"/>
      <point x="747" y="-59"/>
      <point x="746" y="-68"/>
      <point x="734" y="-80" type="curve" smooth="yes"/>
      <point x="710" y="-104"/>
      <point x="679" y="-128"/>
      <point x="637" y="-128" type="curve" smooth="yes"/>
      <point x="577" y="-128"/>
      <point x="529" y="-50"/>
      <point x="499" y="2" type="curve" smooth="yes"/>
      <point x="487" y="22"/>
      <point x="482" y="33"/>
      <point x="463" y="20" type="curve" smooth="yes"/>
      <point x="428" y="-2"/>
      <point x="359" y="-13"/>
      <point x="317" y="-13" type="curve" smooth="yes"/>
      <point x="139" y="-13"/>
      <point x="38" y="109"/>
      <point x="38" y="277" type="curve" smooth="yes"/>
      <point x="38" y="467"/>
      <point x="190" y="607"/>
    </contour>
    <contour>
      <point x="601" y="331" type="curve" smooth="yes"/>
      <point x="601" y="490"/>
      <point x="487" y="574"/>
      <point x="357" y="574" type="curve" smooth="yes"/>
      <point x="188" y="574"/>
      <point x="77" y="430"/>
      <point x="77" y="278" type="curve" smooth="yes"/>
      <point x="77" y="241"/>
      <point x="82" y="208"/>
      <point x="91" y="178" type="curve" smooth="yes"/>
      <point x="94" y="168"/>
      <point x="103" y="136"/>
      <point x="118" y="157" type="curve"/>
      <point x="155" y="202"/>
      <point x="226" y="263"/>
      <point x="304" y="263" type="curve" smooth="yes"/>
      <point x="386" y="263"/>
      <point x="453" y="186"/>
      <point x="492" y="104" type="curve" smooth="yes"/>
      <point x="501" y="87"/>
      <point x="504" y="86"/>
      <point x="520" y="102" type="curve" smooth="yes"/>
      <point x="571" y="155"/>
      <point x="601" y="233"/>
    </contour>
    <contour>
      <point x="131" y="125" type="curve"/>
      <point x="124" y="114"/>
      <point x="128" y="106"/>
      <point x="136" y="98" type="curve" smooth="yes"/>
      <point x="183" y="45"/>
      <point x="250" y="19"/>
      <point x="322" y="19" type="curve" smooth="yes"/>
      <point x="369" y="19"/>
      <point x="417" y="32"/>
      <point x="448" y="49" type="curve" smooth="yes"/>
      <point x="465" y="58"/>
      <point x="470" y="68"/>
      <point x="461" y="85" type="curve" smooth="yes"/>
      <point x="426" y="154"/>
      <point x="375" y="228"/>
      <point x="296" y="228" type="curve" smooth="yes"/>
      <point x="242" y="228"/>
      <point x="190" y="199"/>
    </contour>
  </outline>
</glyph>
<glyph name="R" format="1">
  <advance width="667"/>
  <unicode hex="0052"/>
  <outline>
    <contour>
      <point x="29" y="588" type="curve" smooth="yes"/>
      <point x="29" y="595"/>
      <point x="35" y="602"/>
      <point x="67" y="598" type="curve"/>
      <point x="123" y="588"/>
      <point x="285" y="597"/>
      <point x="345" y="597" type="curve" smooth="yes"/>
      <point x="441" y="597"/>
      <point x="533" y="588"/>
      <point x="533" y="492" type="curve" smooth="yes"/>
      <point x="533" y="418"/>
      <point x="403" y="361"/>
      <point x="359" y="346" type="curve" smooth="yes"/>
      <point x="329" y="336"/>
      <point x="317" y="330"/>
      <point x="323" y="306" type="curve" smooth="yes"/>
      <point x="346" y="199"/>
      <point x="492" y="31"/>
      <point x="565" y="31" type="curve" smooth="yes"/>
      <point x="597" y="31"/>
      <point x="620" y="43"/>
      <point x="646" y="62" type="curve" smooth="yes"/>
      <point x="652" y="66"/>
      <point x="660" y="67"/>
      <point x="667" y="61" type="curve" smooth="yes"/>
      <point x="674" y="56"/>
      <point x="671" y="46"/>
      <point x="662" y="38" type="curve" smooth="yes"/>
      <point x="637" y="12"/>
      <point x="605" y="-4"/>
      <point x="554" y="-4" type="curve" smooth="yes"/>
      <point x="468" y="-4"/>
      <point x="306" y="175"/>
      <point x="279" y="310" type="curve"/>
      <point x="274" y="341"/>
      <point x="302" y="358"/>
      <point x="337" y="370" type="curve"/>
      <point x="391" y="392"/>
      <point x="489" y="429"/>
      <point x="489" y="487" type="curve" smooth="yes"/>
      <point x="489" y="537"/>
      <point x="443" y="564"/>
      <point x="346" y="564" type="curve" smooth="yes"/>
      <point x="295" y="564"/>
      <point x="215" y="561"/>
      <point x="218" y="561" type="curve"/>
      <point x="197" y="560"/>
      <point x="188" y="552"/>
      <point x="187" y="533" type="curve" smooth="yes"/>
      <point x="184" y="444"/>
      <point x="181" y="174"/>
      <point x="186" y="98" type="curve" smooth="yes"/>
      <point x="189" y="50"/>
      <point x="189" y="36"/>
      <point x="260" y="32" type="curve" smooth="yes"/>
      <point x="280" y="31"/>
      <point x="305" y="33"/>
      <point x="307" y="14" type="curve" smooth="yes"/>
      <point x="308" y="3"/>
      <point x="294" y="-3"/>
      <point x="271" y="-1" type="curve" smooth="yes"/>
      <point x="205" y="7"/>
      <point x="66" y="-2"/>
      <point x="44" y="-3" type="curve" smooth="yes"/>
      <point x="34" y="-3"/>
      <point x="24" y="-3"/>
      <point x="23" y="7" type="curve"/>
      <point x="19" y="25"/>
      <point x="47" y="28"/>
      <point x="61" y="29" type="curve" smooth="yes"/>
      <point x="137" y="34"/>
      <point x="140" y="48"/>
      <point x="143" y="98" type="curve" smooth="yes"/>
      <point x="146" y="134"/>
      <point x="147" y="476"/>
      <point x="146" y="506" type="curve" smooth="yes"/>
      <point x="143" y="562"/>
      <point x="139" y="559"/>
      <point x="45" y="572" type="curve" smooth="yes"/>
      <point x="31" y="574"/>
      <point x="29" y="582"/>
    </contour>
  </outline>
</glyph>
<glyph name="S" format="1">
  <advance width="481"/>
  <unicode hex="0053"/>
  <outline>
    <contour>
      <point x="266" y="607" type="curve" smooth="yes"/>
      <point x="362" y="607"/>
      <point x="408" y="580"/>
      <point x="408" y="529" type="curve" smooth="yes"/>
      <point x="408" y="501"/>
      <point x="391" y="472"/>
      <point x="377" y="457" type="curve" smooth="yes"/>
      <point x="362" y="440"/>
      <point x="344" y="431"/>
      <point x="334" y="443" type="curve" smooth="yes"/>
      <point x="327" y="452"/>
      <point x="333" y="464"/>
      <point x="343" y="471" type="curve" smooth="yes"/>
      <point x="355" y="479"/>
      <point x="367" y="497"/>
      <point x="367" y="519" type="curve" smooth="yes"/>
      <point x="367" y="563"/>
      <point x="313" y="576"/>
      <point x="260" y="576" type="curve" smooth="yes"/>
      <point x="194" y="576"/>
      <point x="110" y="522"/>
      <point x="110" y="450" type="curve" smooth="yes"/>
      <point x="110" y="408"/>
      <point x="161" y="386"/>
      <point x="177" y="378" type="curve" smooth="yes"/>
      <point x="238" y="344"/>
      <point x="310" y="322"/>
      <point x="353" y="299" type="curve"/>
      <point x="424" y="259"/>
      <point x="434" y="223"/>
      <point x="434" y="189" type="curve" smooth="yes"/>
      <point x="434" y="67"/>
      <point x="333" y="-13"/>
      <point x="210" y="-13" type="curve" smooth="yes"/>
      <point x="102" y="-13"/>
      <point x="44" y="14"/>
      <point x="44" y="71" type="curve" smooth="yes"/>
      <point x="44" y="107"/>
      <point x="78" y="148"/>
      <point x="94" y="162" type="curve" smooth="yes"/>
      <point x="99" y="166"/>
      <point x="120" y="176"/>
      <point x="128" y="168" type="curve"/>
      <point x="136" y="157"/>
      <point x="125" y="142"/>
      <point x="119" y="135" type="curve" smooth="yes"/>
      <point x="101" y="116"/>
      <point x="84" y="98"/>
      <point x="84" y="77" type="curve" smooth="yes"/>
      <point x="84" y="40"/>
      <point x="141" y="20"/>
      <point x="218" y="20" type="curve" smooth="yes"/>
      <point x="301" y="20"/>
      <point x="394" y="83"/>
      <point x="394" y="182" type="curve" smooth="yes"/>
      <point x="394" y="223"/>
      <point x="364" y="248"/>
      <point x="326" y="269" type="curve" smooth="yes"/>
      <point x="288" y="290"/>
      <point x="184" y="328"/>
      <point x="153" y="345" type="curve" smooth="yes"/>
      <point x="93" y="377"/>
      <point x="69" y="401"/>
      <point x="69" y="444" type="curve" smooth="yes"/>
      <point x="69" y="519"/>
      <point x="153" y="607"/>
    </contour>
  </outline>
</glyph>
<glyph name="V" format="1">
  <advance width="678"/>
  <unicode hex="0056"/>
  <outline>
    <contour>
      <point x="16" y="582" type="curve" smooth="yes"/>
      <point x="16" y="600"/>
      <point x="33" y="603"/>
      <point x="65" y="596" type="curve"/>
      <point x="109" y="590"/>
      <point x="168" y="591"/>
      <point x="215" y="596" type="curve" smooth="yes"/>
      <point x="253" y="601"/>
      <point x="260" y="598"/>
      <point x="260" y="582" type="curve" smooth="yes"/>
      <point x="260" y="571"/>
      <point x="255" y="568"/>
      <point x="240" y="567" type="curve" smooth="yes"/>
      <point x="159" y="562"/>
      <point x="164" y="547"/>
      <point x="184" y="486" type="curve"/>
      <point x="228" y="368"/>
      <point x="290" y="195"/>
      <point x="330" y="88" type="curve" smooth="yes"/>
      <point x="344" y="49"/>
      <point x="354" y="55"/>
      <point x="366" y="84" type="curve" smooth="yes"/>
      <point x="410" y="187"/>
      <point x="475" y="343"/>
      <point x="513" y="444" type="curve"/>
      <point x="556" y="562"/>
      <point x="556" y="564"/>
      <point x="469" y="573" type="curve" smooth="yes"/>
      <point x="453" y="575"/>
      <point x="449" y="582"/>
      <point x="449" y="591" type="curve" smooth="yes"/>
      <point x="449" y="598"/>
      <point x="465" y="601"/>
      <point x="481" y="601" type="curve"/>
      <point x="550" y="596"/>
      <point x="579" y="593"/>
      <point x="646" y="598" type="curve" smooth="yes"/>
      <point x="661" y="599"/>
      <point x="668" y="593"/>
      <point x="666" y="582" type="curve"/>
      <point x="664" y="577"/>
      <point x="657" y="572"/>
      <point x="640" y="569" type="curve" smooth="yes"/>
      <point x="588" y="562"/>
      <point x="572" y="492"/>
      <point x="551" y="444" type="curve" smooth="yes"/>
      <point x="521" y="374"/>
      <point x="426" y="142"/>
      <point x="389" y="44" type="curve" smooth="yes"/>
      <point x="386" y="35"/>
      <point x="381" y="27"/>
      <point x="381" y="13" type="curve" smooth="yes"/>
      <point x="381" y="-2"/>
      <point x="358" y="-8"/>
      <point x="336" y="-8" type="curve" smooth="yes"/>
      <point x="321" y="-8"/>
      <point x="311" y="17"/>
      <point x="296" y="66" type="curve" smooth="yes"/>
      <point x="285" y="104"/>
      <point x="191" y="385"/>
      <point x="144" y="487" type="curve" smooth="yes"/>
      <point x="111" y="557"/>
      <point x="112" y="561"/>
      <point x="48" y="568" type="curve" smooth="yes"/>
      <point x="31" y="570"/>
      <point x="16" y="572"/>
    </contour>
  </outline>
</glyph>
<glyph name="X" format="1">
  <advance width="736"/>
  <unicode hex="0058"/>
  <outline>
    <contour>
      <point x="92" y="581" type="curve" smooth="yes"/>
      <point x="93" y="591"/>
      <point x="99" y="598"/>
      <point x="110" y="597" type="curve" smooth="yes"/>
      <point x="135" y="595"/>
      <point x="173" y="589"/>
      <point x="237" y="595" type="curve" smooth="yes"/>
      <point x="249" y="597"/>
      <point x="259" y="591"/>
      <point x="259" y="584" type="curve" smooth="yes"/>
      <point x="259" y="577"/>
      <point x="256" y="571"/>
      <point x="247" y="568" type="curve" smooth="yes"/>
      <point x="224" y="561"/>
      <point x="236" y="544"/>
      <point x="255" y="514" type="curve" smooth="yes"/>
      <point x="273" y="487"/>
      <point x="327" y="402"/>
      <point x="344" y="380" type="curve" smooth="yes"/>
      <point x="364" y="354"/>
      <point x="365" y="354"/>
      <point x="386" y="381" type="curve" smooth="yes"/>
      <point x="407" y="407"/>
      <point x="462" y="488"/>
      <point x="479" y="519" type="curve" smooth="yes"/>
      <point x="503" y="561"/>
      <point x="503" y="569"/>
      <point x="442" y="575" type="curve" smooth="yes"/>
      <point x="434" y="576"/>
      <point x="430" y="584"/>
      <point x="431" y="590" type="curve" smooth="yes"/>
      <point x="433" y="596"/>
      <point x="442" y="603"/>
      <point x="460" y="599" type="curve"/>
      <point x="497" y="594"/>
      <point x="566" y="596"/>
      <point x="596" y="598" type="curve" smooth="yes"/>
      <point x="616" y="600"/>
      <point x="623" y="593"/>
      <point x="623" y="587" type="curve" smooth="yes"/>
      <point x="624" y="573"/>
      <point x="607" y="569"/>
      <point x="601" y="569" type="curve" smooth="yes"/>
      <point x="559" y="568"/>
      <point x="553" y="560"/>
      <point x="511" y="505" type="curve" smooth="yes"/>
      <point x="496" y="485"/>
      <point x="407" y="362"/>
      <point x="392" y="338" type="curve" smooth="yes"/>
      <point x="385" y="326"/>
      <point x="390" y="319"/>
      <point x="396" y="310" type="curve" smooth="yes"/>
      <point x="441" y="237"/>
      <point x="494" y="160"/>
      <point x="520" y="125" type="curve" smooth="yes"/>
      <point x="577" y="51"/>
      <point x="582" y="43"/>
      <point x="648" y="32" type="curve" smooth="yes"/>
      <point x="671" y="28"/>
      <point x="678" y="26"/>
      <point x="678" y="12" type="curve" smooth="yes"/>
      <point x="678" y="3"/>
      <point x="667" y="-3"/>
      <point x="639" y="-2" type="curve"/>
      <point x="587" y="3"/>
      <point x="594" y="5"/>
      <point x="535" y="1" type="curve" smooth="yes"/>
      <point x="513" y="-1"/>
      <point x="489" y="-8"/>
      <point x="487" y="8" type="curve" smooth="yes"/>
      <point x="486" y="19"/>
      <point x="491" y="26"/>
      <point x="499" y="28" type="curve" smooth="yes"/>
      <point x="538" y="35"/>
      <point x="517" y="60"/>
      <point x="502" y="82" type="curve" smooth="yes"/>
      <point x="492" y="97"/>
      <point x="411" y="220"/>
      <point x="374" y="269" type="curve" smooth="yes"/>
      <point x="351" y="300"/>
      <point x="354" y="298"/>
      <point x="333" y="269" type="curve" smooth="yes"/>
      <point x="309" y="235"/>
      <point x="222" y="122"/>
      <point x="188" y="74" type="curve" smooth="yes"/>
      <point x="173" y="54"/>
      <point x="158" y="34"/>
      <point x="222" y="28" type="curve" smooth="yes"/>
      <point x="242" y="26"/>
      <point x="247" y="19"/>
      <point x="247" y="9" type="curve" smooth="yes"/>
      <point x="248" y="-3"/>
      <point x="236" y="-5"/>
      <point x="214" y="-2" type="curve"/>
      <point x="195" y="2"/>
      <point x="98" y="2"/>
      <point x="80" y="0" type="curve" smooth="yes"/>
      <point x="47" y="-3"/>
      <point x="26" y="-5"/>
      <point x="26" y="9" type="curve" smooth="yes"/>
      <point x="26" y="24"/>
      <point x="43" y="28"/>
      <point x="56" y="29" type="curve" smooth="yes"/>
      <point x="95" y="34"/>
      <point x="121" y="60"/>
      <point x="154" y="92" type="curve" smooth="yes"/>
      <point x="199" y="136"/>
      <point x="283" y="253"/>
      <point x="314" y="295" type="curve" smooth="yes"/>
      <point x="330" y="316"/>
      <point x="331" y="331"/>
      <point x="325" y="341" type="curve" smooth="yes"/>
      <point x="306" y="374"/>
      <point x="232" y="488"/>
      <point x="217" y="508" type="curve" smooth="yes"/>
      <point x="181" y="556"/>
      <point x="170" y="558"/>
      <point x="120" y="563" type="curve" smooth="yes"/>
      <point x="102" y="565"/>
      <point x="91" y="572"/>
    </contour>
  </outline>
</glyph>
<glyph name="Z" format="1">
  <advance width="582"/>
  <unicode hex="005A"/>
  <outline>
    <contour>
      <point x="543" y="185" type="curve" smooth="yes"/>
      <point x="552" y="184"/>
      <point x="556" y="171"/>
      <point x="552" y="141" type="curve"/>
      <point x="550" y="113"/>
      <point x="530" y="32"/>
      <point x="481" y="3" type="curve"/>
      <point x="466" y="-2"/>
      <point x="448" y="-5"/>
      <point x="424" y="-3" type="curve" smooth="yes"/>
      <point x="307" y="5"/>
      <point x="206" y="8"/>
      <point x="72" y="-2" type="curve" smooth="yes"/>
      <point x="41" y="-4"/>
      <point x="19" y="10"/>
      <point x="38" y="34" type="curve" smooth="yes"/>
      <point x="185" y="212"/>
      <point x="366" y="419"/>
      <point x="458" y="537" type="curve" smooth="yes"/>
      <point x="473" y="557"/>
      <point x="460" y="563"/>
      <point x="440" y="562" type="curve" smooth="yes"/>
      <point x="371" y="560"/>
      <point x="355" y="559"/>
      <point x="313" y="559" type="curve" smooth="yes"/>
      <point x="277" y="559"/>
      <point x="210" y="563"/>
      <point x="175" y="568" type="curve" smooth="yes"/>
      <point x="153" y="572"/>
      <point x="152" y="563"/>
      <point x="146" y="545" type="curve" smooth="yes"/>
      <point x="142" y="530"/>
      <point x="130" y="485"/>
      <point x="129" y="455" type="curve" smooth="yes"/>
      <point x="128" y="439"/>
      <point x="114" y="428"/>
      <point x="108" y="428" type="curve" smooth="yes"/>
      <point x="94" y="428"/>
      <point x="96" y="439"/>
      <point x="97" y="456" type="curve" smooth="yes"/>
      <point x="98" y="487"/>
      <point x="107" y="538"/>
      <point x="120" y="586" type="curve" smooth="yes"/>
      <point x="123" y="600"/>
      <point x="131" y="608"/>
      <point x="138" y="608" type="curve" smooth="yes"/>
      <point x="142" y="608"/>
      <point x="153" y="602"/>
      <point x="161" y="601" type="curve" smooth="yes"/>
      <point x="253" y="589"/>
      <point x="382" y="588"/>
      <point x="500" y="595" type="curve" smooth="yes"/>
      <point x="533" y="597"/>
      <point x="530" y="577"/>
      <point x="524" y="568" type="curve"/>
      <point x="371" y="383"/>
      <point x="241" y="226"/>
      <point x="97" y="56" type="curve" smooth="yes"/>
      <point x="85" y="41"/>
      <point x="85" y="29"/>
      <point x="106" y="31" type="curve" smooth="yes"/>
      <point x="154" y="36"/>
      <point x="242" y="38"/>
      <point x="274" y="38" type="curve" smooth="yes"/>
      <point x="309" y="38"/>
      <point x="386" y="35"/>
      <point x="426" y="31" type="curve" smooth="yes"/>
      <point x="452" y="29"/>
      <point x="475" y="34"/>
      <point x="488" y="54" type="curve" smooth="yes"/>
      <point x="506" y="80"/>
      <point x="519" y="125"/>
      <point x="521" y="165" type="curve" smooth="yes"/>
      <point x="522" y="183"/>
      <point x="530" y="186"/>
    </contour>
  </outline>
</glyph>
<glyph name="bracketleft" format="1">
  <advance width="273"/>
  <unicode hex="005B"/>
  <outline>
    <contour>
      <point x="195" y="633" type="curve" smooth="yes"/>
      <point x="210" y="633"/>
      <point x="220" y="628"/>
      <point x="220" y="619" type="curve" smooth="yes"/>
      <point x="220" y="608"/>
      <point x="208" y="604"/>
      <point x="198" y="603" type="curve" smooth="yes"/>
      <point x="188" y="602"/>
      <point x="121" y="603"/>
      <point x="105" y="601" type="curve" smooth="yes"/>
      <point x="89" y="599"/>
      <point x="89" y="594"/>
      <point x="88" y="575" type="curve" smooth="yes"/>
      <point x="87" y="521"/>
      <point x="86" y="104"/>
      <point x="87" y="24" type="curve" smooth="yes"/>
      <point x="87" y="11"/>
      <point x="88" y="5"/>
      <point x="101" y="4" type="curve" smooth="yes"/>
      <point x="127" y="3"/>
      <point x="168" y="2"/>
      <point x="205" y="3" type="curve" smooth="yes"/>
      <point x="217" y="3"/>
      <point x="222" y="-7"/>
      <point x="222" y="-13" type="curve" smooth="yes"/>
      <point x="222" y="-19"/>
      <point x="213" y="-27"/>
      <point x="203" y="-27" type="curve" smooth="yes"/>
      <point x="193" y="-27"/>
      <point x="88" y="-24"/>
      <point x="72" y="-24" type="curve" smooth="yes"/>
      <point x="56" y="-24"/>
      <point x="51" y="-20"/>
      <point x="51" y="-3" type="curve" smooth="yes"/>
      <point x="53" y="188"/>
      <point x="55" y="348"/>
      <point x="53" y="608" type="curve" smooth="yes"/>
      <point x="53" y="630"/>
      <point x="59" y="630"/>
      <point x="77" y="630" type="curve" smooth="yes"/>
      <point x="87" y="630"/>
      <point x="187" y="633"/>
    </contour>
  </outline>
</glyph>
<glyph name="backslash" format="1">
  <advance width="449"/>
  <unicode hex="005C"/>
  <outline>
    <contour>
      <point x="43" y="610" type="curve" smooth="yes"/>
      <point x="56" y="612"/>
      <point x="66" y="607"/>
      <point x="89" y="570" type="curve" smooth="yes"/>
      <point x="148" y="475"/>
      <point x="318" y="145"/>
      <point x="352" y="93" type="curve" smooth="yes"/>
      <point x="367" y="70"/>
      <point x="372" y="61"/>
      <point x="397" y="37" type="curve"/>
      <point x="412" y="24"/>
      <point x="402" y="-12"/>
      <point x="395" y="-21" type="curve" smooth="yes"/>
      <point x="389" y="-29"/>
      <point x="381" y="-27"/>
      <point x="373" y="-16" type="curve" smooth="yes"/>
      <point x="359" y="3"/>
      <point x="343" y="35"/>
      <point x="332" y="56" type="curve" smooth="yes"/>
      <point x="292" y="130"/>
      <point x="112" y="471"/>
      <point x="65" y="547" type="curve" smooth="yes"/>
      <point x="36" y="592"/>
      <point x="23" y="607"/>
    </contour>
  </outline>
</glyph>
<glyph name="bracketright" format="1">
  <advance width="273"/>
  <unicode hex="005D"/>
  <outline>
    <contour>
      <point x="77" y="-27" type="curve" smooth="yes"/>
      <point x="62" y="-27"/>
      <point x="53" y="-22"/>
      <point x="53" y="-13" type="curve" smooth="yes"/>
      <point x="53" y="-2"/>
      <point x="65" y="3"/>
      <point x="75" y="3" type="curve" smooth="yes"/>
      <point x="85" y="4"/>
      <point x="152" y="3"/>
      <point x="168" y="5" type="curve" smooth="yes"/>
      <point x="184" y="7"/>
      <point x="184" y="12"/>
      <point x="184" y="31" type="curve" smooth="yes"/>
      <point x="186" y="85"/>
      <point x="187" y="502"/>
      <point x="186" y="582" type="curve" smooth="yes"/>
      <point x="186" y="595"/>
      <point x="185" y="601"/>
      <point x="172" y="602" type="curve" smooth="yes"/>
      <point x="146" y="603"/>
      <point x="105" y="604"/>
      <point x="67" y="604" type="curve" smooth="yes"/>
      <point x="56" y="604"/>
      <point x="51" y="613"/>
      <point x="51" y="619" type="curve" smooth="yes"/>
      <point x="51" y="625"/>
      <point x="60" y="633"/>
      <point x="70" y="633" type="curve" smooth="yes"/>
      <point x="80" y="633"/>
      <point x="185" y="630"/>
      <point x="201" y="630" type="curve" smooth="yes"/>
      <point x="217" y="630"/>
      <point x="222" y="626"/>
      <point x="222" y="609" type="curve" smooth="yes"/>
      <point x="220" y="418"/>
      <point x="218" y="258"/>
      <point x="220" y="-2" type="curve" smooth="yes"/>
      <point x="220" y="-24"/>
      <point x="214" y="-24"/>
      <point x="196" y="-24" type="curve" smooth="yes"/>
      <point x="186" y="-24"/>
      <point x="86" y="-27"/>
    </contour>
  </outline>
</glyph>
<glyph name="asciicircum" format="1">
  <advance width="402"/>
  <unicode hex="005E"/>
  <outline>
    <contour>
      <point x="196" y="551" type="curve"/>
      <point x="186" y="540"/>
      <point x="96" y="387"/>
      <point x="81" y="359" type="curve"/>
      <point x="72" y="345"/>
      <point x="71" y="341"/>
      <point x="52" y="341" type="curve" smooth="yes"/>
      <point x="41" y="341"/>
      <point x="39" y="344"/>
      <point x="57" y="375" type="curve" smooth="yes"/>
      <point x="70" y="396"/>
      <point x="151" y="532"/>
      <point x="179" y="585" type="curve" smooth="yes"/>
      <point x="184" y="593"/>
      <point x="189" y="601"/>
      <point x="206" y="605" type="curve" smooth="yes"/>
      <point x="221" y="609"/>
      <point x="224" y="601"/>
      <point x="233" y="583" type="curve" smooth="yes"/>
      <point x="267" y="521"/>
      <point x="310" y="454"/>
      <point x="322" y="436" type="curve" smooth="yes"/>
      <point x="333" y="418"/>
      <point x="356" y="395"/>
      <point x="359" y="374" type="curve" smooth="yes"/>
      <point x="362" y="358"/>
      <point x="354" y="343"/>
      <point x="349" y="337" type="curve" smooth="yes"/>
      <point x="344" y="330"/>
      <point x="339" y="332"/>
      <point x="332" y="340" type="curve"/>
      <point x="322" y="355"/>
      <point x="310" y="380"/>
      <point x="301" y="395" type="curve" smooth="yes"/>
      <point x="286" y="420"/>
      <point x="252" y="489"/>
      <point x="214" y="551" type="curve" smooth="yes"/>
      <point x="209" y="560"/>
      <point x="202" y="560"/>
    </contour>
  </outline>
</glyph>
<glyph name="underscore" format="1">
  <advance width="441"/>
  <unicode hex="005F"/>
  <outline>
    <contour>
      <point x="41" y="-65" type="curve" smooth="yes"/>
      <point x="20" y="-65"/>
      <point x="12" y="-61"/>
      <point x="18" y="-49" type="curve" smooth="yes"/>
      <point x="24" y="-35"/>
      <point x="37" y="-34"/>
      <point x="58" y="-34" type="curve" smooth="yes"/>
      <point x="186" y="-35"/>
      <point x="253" y="-35"/>
      <point x="348" y="-33" type="curve" smooth="yes"/>
      <point x="355" y="-33"/>
      <point x="371" y="-31"/>
      <point x="380" y="-27" type="curve" smooth="yes"/>
      <point x="404" y="-15"/>
      <point x="423" y="-11"/>
      <point x="423" y="-24" type="curve" smooth="yes"/>
      <point x="423" y="-32"/>
      <point x="411" y="-46"/>
      <point x="395" y="-55" type="curve" smooth="yes"/>
      <point x="384" y="-61"/>
      <point x="370" y="-64"/>
      <point x="358" y="-64" type="curve" smooth="yes"/>
      <point x="274" y="-63"/>
      <point x="113" y="-64"/>
    </contour>
  </outline>
</glyph>
<glyph name="grave" format="1">
  <advance width="477"/>
  <unicode hex="0060"/>
  <outline>
    <contour>
      <point x="338" y="504" type="curve" smooth="yes"/>
      <point x="346" y="498"/>
      <point x="342" y="486"/>
      <point x="338" y="482" type="curve" smooth="yes"/>
      <point x="333" y="476"/>
      <point x="316" y="481"/>
      <point x="304" y="491" type="curve" smooth="yes"/>
      <point x="279" y="513"/>
      <point x="233" y="547"/>
      <point x="206" y="566" type="curve" smooth="yes"/>
      <point x="180" y="585"/>
      <point x="197" y="594"/>
      <point x="205" y="596" type="curve" smooth="yes"/>
      <point x="233" y="601"/>
      <point x="234" y="600"/>
      <point x="250" y="582" type="curve" smooth="yes"/>
      <point x="271" y="560"/>
      <point x="303" y="531"/>
    </contour>
  </outline>
</glyph>
<glyph name="b" format="1">
  <advance width="470"/>
  <unicode hex="0062"/>
  <outline>
    <contour>
      <point x="66" y="-80" type="curve" smooth="yes"/>
      <point x="57" y="-78"/>
      <point x="59" y="-71"/>
      <point x="60" y="-64" type="curve" smooth="yes"/>
      <point x="64" y="-19"/>
      <point x="72" y="36"/>
      <point x="72" y="70" type="curve" smooth="yes"/>
      <point x="72" y="210"/>
      <point x="80" y="469"/>
      <point x="80" y="586" type="curve" smooth="yes"/>
      <point x="80" y="609"/>
      <point x="80" y="633"/>
      <point x="71" y="642" type="curve" smooth="yes"/>
      <point x="61" y="651"/>
      <point x="38" y="646"/>
      <point x="11" y="641" type="curve" smooth="yes"/>
      <point x="-2" y="638"/>
      <point x="-13" y="641"/>
      <point x="-13" y="650" type="curve" smooth="yes"/>
      <point x="-13" y="660"/>
      <point x="-5" y="665"/>
      <point x="3" y="667" type="curve" smooth="yes"/>
      <point x="29" y="672"/>
      <point x="58" y="678"/>
      <point x="97" y="689" type="curve"/>
      <point x="119" y="694"/>
      <point x="120" y="678"/>
      <point x="120" y="663" type="curve"/>
      <point x="112" y="577"/>
      <point x="113" y="411"/>
      <point x="110" y="321" type="curve" smooth="yes"/>
      <point x="110" y="308"/>
      <point x="114" y="292"/>
      <point x="127" y="312" type="curve" smooth="yes"/>
      <point x="161" y="369"/>
      <point x="231" y="430"/>
      <point x="292" y="430" type="curve" smooth="yes"/>
      <point x="389" y="430"/>
      <point x="436" y="370"/>
      <point x="436" y="255" type="curve" smooth="yes"/>
      <point x="436" y="108"/>
      <point x="335" y="-13"/>
      <point x="205" y="-13" type="curve" smooth="yes"/>
      <point x="182" y="-13"/>
      <point x="152" y="-4"/>
      <point x="136" y="4" type="curve" smooth="yes"/>
      <point x="115" y="15"/>
      <point x="108" y="12"/>
      <point x="100" y="-1" type="curve"/>
      <point x="92" y="-18"/>
      <point x="88" y="-52"/>
      <point x="81" y="-69" type="curve"/>
      <point x="77" y="-74"/>
      <point x="73" y="-81"/>
    </contour>
    <contour>
      <point x="285" y="396" type="curve" smooth="yes"/>
      <point x="239" y="396"/>
      <point x="157" y="320"/>
      <point x="130" y="258" type="curve"/>
      <point x="104" y="195"/>
      <point x="106" y="162"/>
      <point x="107" y="98" type="curve" smooth="yes"/>
      <point x="107" y="72"/>
      <point x="111" y="65"/>
      <point x="123" y="54" type="curve"/>
      <point x="140" y="36"/>
      <point x="177" y="18"/>
      <point x="211" y="18" type="curve" smooth="yes"/>
      <point x="306" y="18"/>
      <point x="397" y="113"/>
      <point x="397" y="253" type="curve" smooth="yes"/>
      <point x="397" y="328"/>
      <point x="368" y="396"/>
    </contour>
  </outline>
</glyph>
<glyph name="c" format="1">
  <advance width="423"/>
  <unicode hex="0063"/>
  <outline>
    <contour>
      <point x="222" y="-2" type="curve" smooth="yes"/>
      <point x="107" y="-2"/>
      <point x="28" y="62"/>
      <point x="33" y="193" type="curve" smooth="yes"/>
      <point x="40" y="355"/>
      <point x="189" y="432"/>
      <point x="264" y="432" type="curve" smooth="yes"/>
      <point x="331" y="432"/>
      <point x="373" y="406"/>
      <point x="373" y="368" type="curve" smooth="yes"/>
      <point x="373" y="334"/>
      <point x="354" y="313"/>
      <point x="328" y="295" type="curve" smooth="yes"/>
      <point x="321" y="290"/>
      <point x="311" y="291"/>
      <point x="307" y="297" type="curve"/>
      <point x="305" y="302"/>
      <point x="306" y="311"/>
      <point x="313" y="316" type="curve" smooth="yes"/>
      <point x="337" y="332"/>
      <point x="337" y="354"/>
      <point x="337" y="363" type="curve" smooth="yes"/>
      <point x="337" y="387"/>
      <point x="309" y="399"/>
      <point x="262" y="399" type="curve" smooth="yes"/>
      <point x="170" y="399"/>
      <point x="73" y="311"/>
      <point x="73" y="194" type="curve" smooth="yes"/>
      <point x="73" y="94"/>
      <point x="125" y="29"/>
      <point x="226" y="29" type="curve" smooth="yes"/>
      <point x="296" y="29"/>
      <point x="314" y="40"/>
      <point x="358" y="93" type="curve" smooth="yes"/>
      <point x="362" y="98"/>
      <point x="367" y="105"/>
      <point x="378" y="104" type="curve"/>
      <point x="392" y="104"/>
      <point x="389" y="94"/>
      <point x="385" y="86" type="curve" smooth="yes"/>
      <point x="378" y="72"/>
      <point x="359" y="51"/>
      <point x="340" y="33" type="curve" smooth="yes"/>
      <point x="303" y="0"/>
      <point x="261" y="-2"/>
    </contour>
  </outline>
</glyph>
<glyph name="f" format="1">
  <advance width="347"/>
  <unicode hex="0066"/>
  <outline>
    <contour>
      <point x="156" y="71" type="curve"/>
      <point x="159" y="36"/>
      <point x="144" y="31"/>
      <point x="266" y="20" type="curve" smooth="yes"/>
      <point x="270" y="19"/>
      <point x="276" y="15"/>
      <point x="276" y="10" type="curve" smooth="yes"/>
      <point x="276" y="4"/>
      <point x="271" y="-2"/>
      <point x="262" y="-1" type="curve" smooth="yes"/>
      <point x="168" y="4"/>
      <point x="129" y="7"/>
      <point x="39" y="-2" type="curve" smooth="yes"/>
      <point x="27" y="-3"/>
      <point x="20" y="2"/>
      <point x="20" y="10" type="curve" smooth="yes"/>
      <point x="20" y="17"/>
      <point x="24" y="24"/>
      <point x="38" y="24" type="curve"/>
      <point x="115" y="35"/>
      <point x="114" y="34"/>
      <point x="114" y="83" type="curve" smooth="yes"/>
      <point x="115" y="143"/>
      <point x="121" y="282"/>
      <point x="120" y="364" type="curve" smooth="yes"/>
      <point x="120" y="388"/>
      <point x="116" y="391"/>
      <point x="105" y="391" type="curve" smooth="yes"/>
      <point x="60" y="391" type="line" smooth="yes"/>
      <point x="48" y="391"/>
      <point x="51" y="396"/>
      <point x="54" y="405" type="curve" smooth="yes"/>
      <point x="60" y="421"/>
      <point x="73" y="419"/>
      <point x="103" y="418" type="curve" smooth="yes"/>
      <point x="116" y="418"/>
      <point x="121" y="420"/>
      <point x="121" y="433" type="curve" smooth="yes"/>
      <point x="126" y="592"/>
      <point x="223" y="695"/>
      <point x="306" y="695" type="curve" smooth="yes"/>
      <point x="363" y="695"/>
      <point x="372" y="654"/>
      <point x="372" y="620" type="curve" smooth="yes"/>
      <point x="372" y="598"/>
      <point x="359" y="561"/>
      <point x="340" y="542" type="curve" smooth="yes"/>
      <point x="333" y="535"/>
      <point x="323" y="531"/>
      <point x="319" y="534" type="curve" smooth="yes"/>
      <point x="313" y="537"/>
      <point x="313" y="541"/>
      <point x="317" y="550" type="curve" smooth="yes"/>
      <point x="327" y="568"/>
      <point x="340" y="594"/>
      <point x="340" y="617" type="curve" smooth="yes"/>
      <point x="340" y="647"/>
      <point x="327" y="663"/>
      <point x="302" y="663" type="curve" smooth="yes"/>
      <point x="233" y="663"/>
      <point x="156" y="563"/>
      <point x="157" y="429" type="curve" smooth="yes"/>
      <point x="157" y="420"/>
      <point x="162" y="419"/>
      <point x="173" y="419" type="curve" smooth="yes"/>
      <point x="215" y="419"/>
      <point x="262" y="423"/>
      <point x="314" y="421" type="curve" smooth="yes"/>
      <point x="322" y="421"/>
      <point x="324" y="414"/>
      <point x="320" y="408" type="curve" smooth="yes"/>
      <point x="309" y="394"/>
      <point x="290" y="386"/>
      <point x="276" y="386" type="curve" smooth="yes"/>
      <point x="258" y="386"/>
      <point x="197" y="391"/>
      <point x="174" y="391" type="curve" smooth="yes"/>
      <point x="159" y="391"/>
      <point x="156" y="382"/>
      <point x="156" y="365" type="curve" smooth="yes"/>
      <point x="156" y="281"/>
      <point x="152" y="147"/>
    </contour>
  </outline>
</glyph>
<glyph name="g" format="1">
  <advance width="469"/>
  <unicode hex="0067"/>
  <outline>
    <contour>
      <point x="433" y="464" type="curve" smooth="yes"/>
      <point x="436" y="467"/>
      <point x="444" y="472"/>
      <point x="452" y="467" type="curve"/>
      <point x="462" y="459"/>
      <point x="451" y="441"/>
      <point x="444" y="434" type="curve" smooth="yes"/>
      <point x="426" y="414"/>
      <point x="390" y="396"/>
      <point x="369" y="387" type="curve" smooth="yes"/>
      <point x="351" y="380"/>
      <point x="364" y="363"/>
      <point x="372" y="349" type="curve"/>
      <point x="374" y="343"/>
      <point x="381" y="321"/>
      <point x="381" y="305" type="curve" smooth="yes"/>
      <point x="381" y="233"/>
      <point x="310" y="183"/>
      <point x="231" y="175" type="curve"/>
      <point x="203" y="171"/>
      <point x="160" y="124"/>
      <point x="160" y="95" type="curve" smooth="yes"/>
      <point x="160" y="72"/>
      <point x="170" y="63"/>
      <point x="199" y="47" type="curve" smooth="yes"/>
      <point x="231" y="29"/>
      <point x="313" y="4"/>
      <point x="354" y="-13" type="curve" smooth="yes"/>
      <point x="406" y="-34"/>
      <point x="451" y="-56"/>
      <point x="451" y="-107" type="curve" smooth="yes"/>
      <point x="451" y="-227"/>
      <point x="304" y="-276"/>
      <point x="198" y="-276" type="curve" smooth="yes"/>
      <point x="55" y="-276"/>
      <point x="0" y="-232"/>
      <point x="0" y="-173" type="curve" smooth="yes"/>
      <point x="0" y="-100"/>
      <point x="61" y="-65"/>
      <point x="95" y="-48" type="curve" smooth="yes"/>
      <point x="104" y="-44"/>
      <point x="121" y="-36"/>
      <point x="129" y="-45" type="curve" smooth="yes"/>
      <point x="133" y="-51"/>
      <point x="132" y="-60"/>
      <point x="122" y="-66" type="curve" smooth="yes"/>
      <point x="86" y="-86"/>
      <point x="40" y="-122"/>
      <point x="40" y="-170" type="curve"/>
      <point x="41" y="-212"/>
      <point x="106" y="-246"/>
      <point x="199" y="-246" type="curve" smooth="yes"/>
      <point x="303" y="-246"/>
      <point x="408" y="-192"/>
      <point x="408" y="-125" type="curve" smooth="yes"/>
      <point x="408" y="-85"/>
      <point x="390" y="-71"/>
      <point x="337" y="-45" type="curve" smooth="yes"/>
      <point x="276" y="-14"/>
      <point x="230" y="-6"/>
      <point x="176" y="17" type="curve" smooth="yes"/>
      <point x="141" y="32"/>
      <point x="122" y="49"/>
      <point x="122" y="82" type="curve" smooth="yes"/>
      <point x="122" y="119"/>
      <point x="138" y="131"/>
      <point x="161" y="157" type="curve" smooth="yes"/>
      <point x="169" y="167"/>
      <point x="170" y="171"/>
      <point x="155" y="173" type="curve" smooth="yes"/>
      <point x="99" y="184"/>
      <point x="40" y="213"/>
      <point x="40" y="286" type="curve" smooth="yes"/>
      <point x="40" y="396"/>
      <point x="163" y="430"/>
      <point x="215" y="430" type="curve" smooth="yes"/>
      <point x="242" y="430"/>
      <point x="258" y="428"/>
      <point x="274" y="425" type="curve" smooth="yes"/>
      <point x="295" y="421"/>
      <point x="308" y="416"/>
      <point x="328" y="416" type="curve" smooth="yes"/>
      <point x="370" y="416"/>
      <point x="410" y="444"/>
    </contour>
    <contour>
      <point x="78" y="289" type="curve" smooth="yes"/>
      <point x="78" y="233"/>
      <point x="138" y="201"/>
      <point x="197" y="201" type="curve" smooth="yes"/>
      <point x="263" y="201"/>
      <point x="342" y="237"/>
      <point x="342" y="301" type="curve" smooth="yes"/>
      <point x="342" y="359"/>
      <point x="306" y="399"/>
      <point x="212" y="399" type="curve" smooth="yes"/>
      <point x="166" y="399"/>
      <point x="78" y="370"/>
    </contour>
  </outline>
</glyph>
<glyph name="h" format="1">
  <advance width="604"/>
  <unicode hex="0068"/>
  <outline>
    <contour>
      <point x="35" y="668" type="curve"/>
      <point x="56" y="670"/>
      <point x="120" y="684"/>
      <point x="139" y="689" type="curve" smooth="yes"/>
      <point x="173" y="698"/>
      <point x="176" y="686"/>
      <point x="174" y="653" type="curve" smooth="yes"/>
      <point x="168" y="530"/>
      <point x="166" y="460"/>
      <point x="166" y="309" type="curve" smooth="yes"/>
      <point x="166" y="295"/>
      <point x="171" y="290"/>
      <point x="185" y="313" type="curve" smooth="yes"/>
      <point x="205" y="344"/>
      <point x="290" y="433"/>
      <point x="362" y="432" type="curve"/>
      <point x="438" y="432"/>
      <point x="489" y="389"/>
      <point x="488" y="309" type="curve" smooth="yes"/>
      <point x="488" y="274"/>
      <point x="485" y="133"/>
      <point x="486" y="102" type="curve" smooth="yes"/>
      <point x="487" y="29"/>
      <point x="499" y="34"/>
      <point x="544" y="29" type="curve" smooth="yes"/>
      <point x="554" y="28"/>
      <point x="583" y="27"/>
      <point x="584" y="11" type="curve" smooth="yes"/>
      <point x="584" y="0"/>
      <point x="580" y="-3"/>
      <point x="564" y="-3" type="curve"/>
      <point x="544" y="-1"/>
      <point x="487" y="3"/>
      <point x="466" y="3" type="curve" smooth="yes"/>
      <point x="424" y="4"/>
      <point x="427" y="3"/>
      <point x="399" y="-2" type="curve" smooth="yes"/>
      <point x="393" y="-3"/>
      <point x="382" y="1"/>
      <point x="382" y="9" type="curve" smooth="yes"/>
      <point x="382" y="23"/>
      <point x="398" y="25"/>
      <point x="403" y="26" type="curve" smooth="yes"/>
      <point x="439" y="33"/>
      <point x="447" y="51"/>
      <point x="447" y="72" type="curve"/>
      <point x="450" y="128"/>
      <point x="450" y="263"/>
      <point x="449" y="300" type="curve" smooth="yes"/>
      <point x="447" y="376"/>
      <point x="401" y="398"/>
      <point x="359" y="398" type="curve" smooth="yes"/>
      <point x="279" y="398"/>
      <point x="174" y="284"/>
      <point x="167" y="194" type="curve" smooth="yes"/>
      <point x="164" y="157"/>
      <point x="163" y="112"/>
      <point x="166" y="83" type="curve"/>
      <point x="168" y="38"/>
      <point x="173" y="28"/>
      <point x="262" y="26" type="curve" smooth="yes"/>
      <point x="279" y="26"/>
      <point x="281" y="15"/>
      <point x="281" y="9" type="curve" smooth="yes"/>
      <point x="281" y="-2"/>
      <point x="270" y="-4"/>
      <point x="264" y="-3" type="curve" smooth="yes"/>
      <point x="198" y="4"/>
      <point x="122" y="3"/>
      <point x="51" y="-4" type="curve"/>
      <point x="34" y="-4"/>
      <point x="29" y="1"/>
      <point x="29" y="9" type="curve" smooth="yes"/>
      <point x="29" y="14"/>
      <point x="37" y="21"/>
      <point x="45" y="22" type="curve" smooth="yes"/>
      <point x="125" y="30"/>
      <point x="123" y="36"/>
      <point x="127" y="97" type="curve" smooth="yes"/>
      <point x="131" y="152"/>
      <point x="134" y="510"/>
      <point x="134" y="582" type="curve" smooth="yes"/>
      <point x="134" y="648"/>
      <point x="129" y="659"/>
      <point x="50" y="644" type="curve" smooth="yes"/>
      <point x="37" y="641"/>
      <point x="21" y="643"/>
      <point x="19" y="652" type="curve"/>
      <point x="18" y="663"/>
      <point x="24" y="668"/>
    </contour>
  </outline>
</glyph>
<glyph name="i" format="1">
  <advance width="290"/>
  <unicode hex="0069"/>
  <outline>
    <contour>
      <point x="26" y="390" type="curve" smooth="yes"/>
      <point x="56" y="397"/>
      <point x="108" y="412"/>
      <point x="144" y="420" type="curve" smooth="yes"/>
      <point x="167" y="425"/>
      <point x="182" y="428"/>
      <point x="177" y="403" type="curve" smooth="yes"/>
      <point x="162" y="332"/>
      <point x="168" y="152"/>
      <point x="168" y="80" type="curve" smooth="yes"/>
      <point x="168" y="34"/>
      <point x="179" y="33"/>
      <point x="248" y="26" type="curve" smooth="yes"/>
      <point x="257" y="25"/>
      <point x="272" y="19"/>
      <point x="269" y="13" type="curve"/>
      <point x="264" y="-3"/>
      <point x="258" y="-1"/>
      <point x="221" y="2" type="curve" smooth="yes"/>
      <point x="166" y="5"/>
      <point x="124" y="7"/>
      <point x="48" y="-2" type="curve" smooth="yes"/>
      <point x="29" y="-4"/>
      <point x="27" y="1"/>
      <point x="27" y="9" type="curve" smooth="yes"/>
      <point x="27" y="19"/>
      <point x="34" y="22"/>
      <point x="52" y="23" type="curve" smooth="yes"/>
      <point x="118" y="27"/>
      <point x="128" y="41"/>
      <point x="130" y="63" type="curve" smooth="yes"/>
      <point x="136" y="113"/>
      <point x="136" y="259"/>
      <point x="130" y="358" type="curve"/>
      <point x="130" y="377"/>
      <point x="115" y="380"/>
      <point x="99" y="380" type="curve" smooth="yes"/>
      <point x="94" y="380"/>
      <point x="56" y="372"/>
      <point x="40" y="368" type="curve" smooth="yes"/>
      <point x="29" y="365"/>
      <point x="24" y="364"/>
      <point x="19" y="373" type="curve"/>
      <point x="19" y="378"/>
      <point x="19" y="389"/>
    </contour>
    <contour>
      <point x="174" y="646" type="curve" smooth="yes"/>
      <point x="199" y="646"/>
      <point x="209" y="636"/>
      <point x="210" y="619" type="curve" smooth="yes"/>
      <point x="210" y="605"/>
      <point x="207" y="592"/>
      <point x="192" y="579" type="curve" smooth="yes"/>
      <point x="181" y="570"/>
      <point x="167" y="561"/>
      <point x="157" y="561" type="curve" smooth="yes"/>
      <point x="141" y="561"/>
      <point x="134" y="584"/>
      <point x="134" y="605" type="curve"/>
      <point x="135" y="624"/>
      <point x="152" y="646"/>
    </contour>
  </outline>
</glyph>
<glyph name="j" format="1">
  <advance width="261"/>
  <unicode hex="006A"/>
  <outline>
    <contour>
      <point x="29" y="390" type="curve" smooth="yes"/>
      <point x="58" y="397"/>
      <point x="104" y="412"/>
      <point x="141" y="420" type="curve" smooth="yes"/>
      <point x="162" y="425"/>
      <point x="184" y="428"/>
      <point x="182" y="403" type="curve" smooth="yes"/>
      <point x="177" y="338"/>
      <point x="182" y="156"/>
      <point x="178" y="84" type="curve" smooth="yes"/>
      <point x="175" y="13"/>
      <point x="168" y="-34"/>
      <point x="152" y="-88" type="curve" smooth="yes"/>
      <point x="118" y="-204"/>
      <point x="52" y="-275"/>
      <point x="-15" y="-275" type="curve" smooth="yes"/>
      <point x="-50" y="-275"/>
      <point x="-83" y="-254"/>
      <point x="-82" y="-214" type="curve" smooth="yes"/>
      <point x="-82" y="-179"/>
      <point x="-54" y="-152"/>
      <point x="-27" y="-134" type="curve" smooth="yes"/>
      <point x="-9" y="-122"/>
      <point x="13" y="-140"/>
      <point x="-4" y="-152" type="curve" smooth="yes"/>
      <point x="-32" y="-171"/>
      <point x="-44" y="-194"/>
      <point x="-44" y="-207" type="curve" smooth="yes"/>
      <point x="-44" y="-233"/>
      <point x="-37" y="-239"/>
      <point x="-13" y="-239" type="curve" smooth="yes"/>
      <point x="47" y="-239"/>
      <point x="91" y="-157"/>
      <point x="110" y="-108" type="curve" smooth="yes"/>
      <point x="141" y="-29"/>
      <point x="141" y="32"/>
      <point x="142" y="82" type="curve"/>
      <point x="144" y="130"/>
      <point x="146" y="258"/>
      <point x="143" y="356" type="curve" smooth="yes"/>
      <point x="143" y="375"/>
      <point x="130" y="383"/>
      <point x="114" y="382" type="curve" smooth="yes"/>
      <point x="109" y="382"/>
      <point x="59" y="372"/>
      <point x="43" y="365" type="curve" smooth="yes"/>
      <point x="32" y="361"/>
      <point x="27" y="364"/>
      <point x="22" y="373" type="curve"/>
      <point x="22" y="378"/>
      <point x="22" y="389"/>
    </contour>
    <contour>
      <point x="175" y="646" type="curve" smooth="yes"/>
      <point x="199" y="646"/>
      <point x="210" y="636"/>
      <point x="211" y="619" type="curve" smooth="yes"/>
      <point x="211" y="605"/>
      <point x="208" y="592"/>
      <point x="193" y="579" type="curve" smooth="yes"/>
      <point x="182" y="570"/>
      <point x="168" y="561"/>
      <point x="157" y="561" type="curve" smooth="yes"/>
      <point x="142" y="561"/>
      <point x="135" y="584"/>
      <point x="135" y="605" type="curve"/>
      <point x="136" y="624"/>
      <point x="153" y="646"/>
    </contour>
  </outline>
</glyph>
<glyph name="k" format="1">
  <advance width="578"/>
  <unicode hex="006B"/>
  <outline>
    <contour>
      <point x="228" y="-4" type="curve" smooth="yes"/>
      <point x="162" y="2"/>
      <point x="109" y="4"/>
      <point x="45" y="-3" type="curve" smooth="yes"/>
      <point x="27" y="-4"/>
      <point x="22" y="3"/>
      <point x="22" y="9" type="curve" smooth="yes"/>
      <point x="22" y="21"/>
      <point x="35" y="24"/>
      <point x="50" y="26" type="curve" smooth="yes"/>
      <point x="104" y="32"/>
      <point x="124" y="41"/>
      <point x="128" y="79" type="curve" smooth="yes"/>
      <point x="137" y="166"/>
      <point x="136" y="532"/>
      <point x="136" y="590" type="curve" smooth="yes"/>
      <point x="136" y="628"/>
      <point x="136" y="668"/>
      <point x="81" y="649" type="curve" smooth="yes"/>
      <point x="67" y="645"/>
      <point x="45" y="639"/>
      <point x="32" y="639" type="curve" smooth="yes"/>
      <point x="26" y="639"/>
      <point x="20" y="641"/>
      <point x="19" y="649" type="curve" smooth="yes"/>
      <point x="19" y="654"/>
      <point x="22" y="660"/>
      <point x="29" y="662" type="curve" smooth="yes"/>
      <point x="72" y="673"/>
      <point x="124" y="694"/>
      <point x="160" y="696" type="curve" smooth="yes"/>
      <point x="183" y="698"/>
      <point x="178" y="676"/>
      <point x="178" y="668" type="curve" smooth="yes"/>
      <point x="167" y="543"/>
      <point x="170" y="397"/>
      <point x="170" y="250" type="curve" smooth="yes"/>
      <point x="170" y="242"/>
      <point x="172" y="240"/>
      <point x="176" y="240" type="curve" smooth="yes"/>
      <point x="182" y="240"/>
      <point x="186" y="244"/>
      <point x="194" y="251" type="curve" smooth="yes"/>
      <point x="240" y="296"/>
      <point x="306" y="360"/>
      <point x="339" y="382" type="curve" smooth="yes"/>
      <point x="386" y="414"/>
      <point x="413" y="431"/>
      <point x="458" y="431" type="curve" smooth="yes"/>
      <point x="487" y="431"/>
      <point x="498" y="416"/>
      <point x="499" y="395" type="curve" smooth="yes"/>
      <point x="501" y="369"/>
      <point x="484" y="327"/>
      <point x="451" y="309" type="curve" smooth="yes"/>
      <point x="436" y="301"/>
      <point x="424" y="316"/>
      <point x="434" y="329" type="curve"/>
      <point x="444" y="340"/>
      <point x="464" y="363"/>
      <point x="464" y="377" type="curve" smooth="yes"/>
      <point x="464" y="395"/>
      <point x="456" y="397"/>
      <point x="449" y="397" type="curve" smooth="yes"/>
      <point x="417" y="397"/>
      <point x="386" y="379"/>
      <point x="365" y="364" type="curve" smooth="yes"/>
      <point x="332" y="340"/>
      <point x="294" y="308"/>
      <point x="272" y="282" type="curve"/>
      <point x="263" y="269"/>
      <point x="258" y="255"/>
      <point x="265" y="242" type="curve" smooth="yes"/>
      <point x="298" y="178"/>
      <point x="346" y="96"/>
      <point x="407" y="47" type="curve" smooth="yes"/>
      <point x="418" y="39"/>
      <point x="436" y="28"/>
      <point x="455" y="28" type="curve" smooth="yes"/>
      <point x="492" y="28"/>
      <point x="529" y="47"/>
      <point x="540" y="50" type="curve" smooth="yes"/>
      <point x="551" y="54"/>
      <point x="558" y="55"/>
      <point x="561" y="47" type="curve"/>
      <point x="563" y="38"/>
      <point x="560" y="34"/>
      <point x="552" y="28" type="curve" smooth="yes"/>
      <point x="537" y="17"/>
      <point x="476" y="-8"/>
      <point x="449" y="-8" type="curve" smooth="yes"/>
      <point x="418" y="-8"/>
      <point x="408" y="-2"/>
      <point x="380" y="23" type="curve" smooth="yes"/>
      <point x="332" y="64"/>
      <point x="249" y="178"/>
      <point x="233" y="225" type="curve" smooth="yes"/>
      <point x="228" y="237"/>
      <point x="215" y="231"/>
      <point x="205" y="223" type="curve" smooth="yes"/>
      <point x="179" y="203"/>
      <point x="170" y="187"/>
      <point x="168" y="176" type="curve"/>
      <point x="167" y="161"/>
      <point x="167" y="124"/>
      <point x="167" y="95" type="curve" smooth="yes"/>
      <point x="167" y="46"/>
      <point x="177" y="28"/>
      <point x="231" y="24" type="curve" smooth="yes"/>
      <point x="253" y="22"/>
      <point x="256" y="14"/>
      <point x="256" y="8" type="curve" smooth="yes"/>
      <point x="256" y="-4"/>
      <point x="247" y="-5"/>
    </contour>
  </outline>
</glyph>
<glyph name="l" format="1">
  <advance width="317"/>
  <unicode hex="006C"/>
  <outline>
    <contour>
      <point x="43" y="668" type="curve" smooth="yes"/>
      <point x="65" y="670"/>
      <point x="123" y="685"/>
      <point x="142" y="689" type="curve" smooth="yes"/>
      <point x="177" y="696"/>
      <point x="184" y="686"/>
      <point x="181" y="653" type="curve" smooth="yes"/>
      <point x="173" y="579"/>
      <point x="170" y="218"/>
      <point x="175" y="83" type="curve" smooth="yes"/>
      <point x="176" y="38"/>
      <point x="180" y="25"/>
      <point x="279" y="26" type="curve" smooth="yes"/>
      <point x="296" y="26"/>
      <point x="299" y="15"/>
      <point x="299" y="9" type="curve" smooth="yes"/>
      <point x="299" y="1"/>
      <point x="290" y="-4"/>
      <point x="279" y="-3" type="curve" smooth="yes"/>
      <point x="211" y="4"/>
      <point x="114" y="2"/>
      <point x="42" y="-4" type="curve"/>
      <point x="29" y="-4"/>
      <point x="19" y="0"/>
      <point x="19" y="9" type="curve" smooth="yes"/>
      <point x="19" y="19"/>
      <point x="29" y="22"/>
      <point x="34" y="22" type="curve" smooth="yes"/>
      <point x="127" y="29"/>
      <point x="131" y="36"/>
      <point x="134" y="97" type="curve" smooth="yes"/>
      <point x="136" y="152"/>
      <point x="139" y="510"/>
      <point x="139" y="582" type="curve" smooth="yes"/>
      <point x="139" y="652"/>
      <point x="133" y="660"/>
      <point x="59" y="643" type="curve" smooth="yes"/>
      <point x="46" y="641"/>
      <point x="29" y="643"/>
      <point x="28" y="652" type="curve" smooth="yes"/>
      <point x="26" y="663"/>
      <point x="35" y="668"/>
    </contour>
  </outline>
</glyph>
<glyph name="m" format="1">
  <advance width="820"/>
  <unicode hex="006D"/>
  <outline>
    <contour>
      <point x="629" y="6" type="curve" smooth="yes"/>
      <point x="629" y="13"/>
      <point x="634" y="16"/>
      <point x="643" y="19" type="curve"/>
      <point x="659" y="21"/>
      <point x="678" y="27"/>
      <point x="680" y="64" type="curve" smooth="yes"/>
      <point x="684" y="133"/>
      <point x="686" y="224"/>
      <point x="684" y="279" type="curve"/>
      <point x="679" y="358"/>
      <point x="659" y="400"/>
      <point x="624" y="400" type="curve" smooth="yes"/>
      <point x="556" y="401"/>
      <point x="479" y="280"/>
      <point x="461" y="228" type="curve" smooth="yes"/>
      <point x="446" y="183"/>
      <point x="449" y="144"/>
      <point x="449" y="77" type="curve" smooth="yes"/>
      <point x="449" y="35"/>
      <point x="463" y="30"/>
      <point x="511" y="21" type="curve" smooth="yes"/>
      <point x="520" y="19"/>
      <point x="535" y="15"/>
      <point x="535" y="8" type="curve" smooth="yes"/>
      <point x="535" y="-1"/>
      <point x="524" y="-3"/>
      <point x="510" y="-3" type="curve" smooth="yes"/>
      <point x="484" y="-3"/>
      <point x="483" y="4"/>
      <point x="443" y="4" type="curve" smooth="yes"/>
      <point x="428" y="4"/>
      <point x="406" y="-2"/>
      <point x="379" y="-2" type="curve" smooth="yes"/>
      <point x="367" y="-2"/>
      <point x="355" y="2"/>
      <point x="355" y="8" type="curve" smooth="yes"/>
      <point x="354" y="17"/>
      <point x="374" y="22"/>
      <point x="386" y="28" type="curve" smooth="yes"/>
      <point x="400" y="34"/>
      <point x="406" y="43"/>
      <point x="410" y="84" type="curve" smooth="yes"/>
      <point x="414" y="127"/>
      <point x="413" y="189"/>
      <point x="413" y="282" type="curve" smooth="yes"/>
      <point x="413" y="332"/>
      <point x="401" y="400"/>
      <point x="364" y="400" type="curve" smooth="yes"/>
      <point x="302" y="400"/>
      <point x="221" y="313"/>
      <point x="189" y="228" type="curve" smooth="yes"/>
      <point x="174" y="188"/>
      <point x="178" y="130"/>
      <point x="178" y="81" type="curve" smooth="yes"/>
      <point x="178" y="35"/>
      <point x="189" y="28"/>
      <point x="259" y="22" type="curve" smooth="yes"/>
      <point x="273" y="21"/>
      <point x="282" y="13"/>
      <point x="280" y="5" type="curve"/>
      <point x="279" y="-4"/>
      <point x="274" y="-5"/>
      <point x="256" y="-4" type="curve" smooth="yes"/>
      <point x="235" y="-2"/>
      <point x="181" y="4"/>
      <point x="155" y="4" type="curve" smooth="yes"/>
      <point x="130" y="4"/>
      <point x="55" y="-3"/>
      <point x="42" y="-3" type="curve" smooth="yes"/>
      <point x="35" y="-3"/>
      <point x="20" y="-3"/>
      <point x="19" y="6" type="curve"/>
      <point x="19" y="19"/>
      <point x="35" y="24"/>
      <point x="50" y="24" type="curve" smooth="yes"/>
      <point x="132" y="29"/>
      <point x="136" y="51"/>
      <point x="139" y="83" type="curve"/>
      <point x="141" y="158"/>
      <point x="141" y="308"/>
      <point x="141" y="356" type="curve" smooth="yes"/>
      <point x="141" y="402"/>
      <point x="122" y="397"/>
      <point x="47" y="387" type="curve" smooth="yes"/>
      <point x="35" y="386"/>
      <point x="24" y="389"/>
      <point x="24" y="398" type="curve" smooth="yes"/>
      <point x="24" y="403"/>
      <point x="35" y="409"/>
      <point x="50" y="412" type="curve" smooth="yes"/>
      <point x="98" y="421"/>
      <point x="117" y="423"/>
      <point x="160" y="428" type="curve" smooth="yes"/>
      <point x="174" y="430"/>
      <point x="180" y="422"/>
      <point x="178" y="356" type="curve"/>
      <point x="178" y="322"/>
      <point x="176" y="302"/>
      <point x="177" y="294" type="curve" smooth="yes"/>
      <point x="178" y="280"/>
      <point x="186" y="282"/>
      <point x="192" y="291" type="curve" smooth="yes"/>
      <point x="236" y="362"/>
      <point x="296" y="430"/>
      <point x="371" y="434" type="curve"/>
      <point x="434" y="434"/>
      <point x="449" y="352"/>
      <point x="448" y="304" type="curve" smooth="yes"/>
      <point x="448" y="288"/>
      <point x="459" y="285"/>
      <point x="469" y="301" type="curve" smooth="yes"/>
      <point x="503" y="360"/>
      <point x="562" y="434"/>
      <point x="632" y="434" type="curve" smooth="yes"/>
      <point x="701" y="434"/>
      <point x="719" y="341"/>
      <point x="719" y="286" type="curve" smooth="yes"/>
      <point x="719" y="262"/>
      <point x="718" y="105"/>
      <point x="719" y="74" type="curve" smooth="yes"/>
      <point x="719" y="49"/>
      <point x="721" y="25"/>
      <point x="775" y="24" type="curve" smooth="yes"/>
      <point x="790" y="23"/>
      <point x="800" y="17"/>
      <point x="800" y="8" type="curve" smooth="yes"/>
      <point x="800" y="1"/>
      <point x="790" y="-4"/>
      <point x="776" y="-4" type="curve" smooth="yes"/>
      <point x="751" y="-4"/>
      <point x="757" y="4"/>
      <point x="713" y="4" type="curve" smooth="yes"/>
      <point x="689" y="4"/>
      <point x="673" y="-4"/>
      <point x="651" y="-4" type="curve" smooth="yes"/>
      <point x="632" y="-4"/>
      <point x="629" y="1"/>
    </contour>
  </outline>
</glyph>
<glyph name="p" format="1">
  <advance width="517"/>
  <unicode hex="0070"/>
  <outline>
    <contour>
      <point x="168" y="4" type="curve"/>
      <point x="148" y="8"/>
      <point x="141" y="8"/>
      <point x="140" y="-7" type="curve" smooth="yes"/>
      <point x="139" y="-16"/>
      <point x="136" y="-26"/>
      <point x="136" y="-37" type="curve" smooth="yes"/>
      <point x="135" y="-88"/>
      <point x="134" y="-125"/>
      <point x="132" y="-164" type="curve" smooth="yes"/>
      <point x="131" y="-178"/>
      <point x="130" y="-210"/>
      <point x="138" y="-225" type="curve" smooth="yes"/>
      <point x="145" y="-237"/>
      <point x="175" y="-232"/>
      <point x="189" y="-227" type="curve" smooth="yes"/>
      <point x="214" y="-218"/>
      <point x="218" y="-223"/>
      <point x="220" y="-236" type="curve" smooth="yes"/>
      <point x="221" y="-247"/>
      <point x="191" y="-258"/>
      <point x="184" y="-259" type="curve"/>
      <point x="136" y="-274"/>
      <point x="101" y="-269"/>
      <point x="98" y="-261" type="curve" smooth="yes"/>
      <point x="88" y="-239"/>
      <point x="94" y="-189"/>
      <point x="98" y="-160" type="curve" smooth="yes"/>
      <point x="103" y="-114"/>
      <point x="104" y="-66"/>
      <point x="105" y="-17" type="curve" smooth="yes"/>
      <point x="108" y="77"/>
      <point x="107" y="210"/>
      <point x="107" y="326" type="curve" smooth="yes"/>
      <point x="107" y="394"/>
      <point x="112" y="400"/>
      <point x="15" y="380" type="curve" smooth="yes"/>
      <point x="3" y="377"/>
      <point x="0" y="388"/>
      <point x="-1" y="392" type="curve" smooth="yes"/>
      <point x="-2" y="398"/>
      <point x="3" y="404"/>
      <point x="17" y="407" type="curve" smooth="yes"/>
      <point x="60" y="416"/>
      <point x="77" y="418"/>
      <point x="118" y="428" type="curve"/>
      <point x="156" y="428"/>
      <point x="146" y="408"/>
      <point x="143" y="376" type="curve" smooth="yes"/>
      <point x="141" y="356"/>
      <point x="139" y="312"/>
      <point x="139" y="302" type="curve" smooth="yes"/>
      <point x="139" y="282"/>
      <point x="148" y="285"/>
      <point x="157" y="302" type="curve" smooth="yes"/>
      <point x="184" y="351"/>
      <point x="255" y="437"/>
      <point x="327" y="437" type="curve" smooth="yes"/>
      <point x="423" y="437"/>
      <point x="473" y="380"/>
      <point x="473" y="245" type="curve" smooth="yes"/>
      <point x="473" y="124"/>
      <point x="361" y="-7"/>
      <point x="249" y="-7" type="curve" smooth="yes"/>
      <point x="215" y="-7"/>
      <point x="195" y="-3"/>
    </contour>
    <contour>
      <point x="141" y="144" type="curve" smooth="yes"/>
      <point x="141" y="117"/>
      <point x="140" y="88"/>
      <point x="140" y="77" type="curve" smooth="yes"/>
      <point x="140" y="60"/>
      <point x="144" y="54"/>
      <point x="155" y="49" type="curve" smooth="yes"/>
      <point x="183" y="35"/>
      <point x="213" y="24"/>
      <point x="253" y="24" type="curve" smooth="yes"/>
      <point x="356" y="24"/>
      <point x="434" y="149"/>
      <point x="434" y="239" type="curve" smooth="yes"/>
      <point x="434" y="377"/>
      <point x="386" y="402"/>
      <point x="320" y="402" type="curve" smooth="yes"/>
      <point x="254" y="402"/>
      <point x="197" y="313"/>
      <point x="183" y="290" type="curve" smooth="yes"/>
      <point x="149" y="237"/>
      <point x="141" y="184"/>
    </contour>
  </outline>
</glyph>
<glyph name="q" format="1">
  <advance width="507"/>
  <unicode hex="0071"/>
  <outline>
    <contour>
      <point x="446" y="-257" type="curve" smooth="yes"/>
      <point x="362" y="-279"/>
      <point x="346" y="-262"/>
      <point x="348" y="-242" type="curve" smooth="yes"/>
      <point x="354" y="-162" type="line" smooth="yes"/>
      <point x="359" y="-94"/>
      <point x="365" y="-11"/>
      <point x="362" y="67" type="curve" smooth="yes"/>
      <point x="362" y="80"/>
      <point x="359" y="88"/>
      <point x="358" y="88" type="curve"/>
      <point x="358" y="92"/>
      <point x="352" y="92"/>
      <point x="342" y="78" type="curve"/>
      <point x="317" y="49"/>
      <point x="251" y="-13"/>
      <point x="192" y="-13" type="curve" smooth="yes"/>
      <point x="50" y="-13"/>
      <point x="28" y="98"/>
      <point x="28" y="144" type="curve"/>
      <point x="20" y="315"/>
      <point x="157" y="431"/>
      <point x="294" y="431" type="curve"/>
      <point x="334" y="429"/>
      <point x="329" y="428"/>
      <point x="343" y="423" type="curve"/>
      <point x="362" y="414"/>
      <point x="364" y="411"/>
      <point x="372" y="423" type="curve" smooth="yes"/>
      <point x="383" y="441"/>
      <point x="385" y="454"/>
      <point x="396" y="481" type="curve" smooth="yes"/>
      <point x="402" y="495"/>
      <point x="407" y="503"/>
      <point x="414" y="503" type="curve" smooth="yes"/>
      <point x="423" y="503"/>
      <point x="422" y="489"/>
      <point x="422" y="482" type="curve" smooth="yes"/>
      <point x="422" y="473"/>
      <point x="413" y="449"/>
      <point x="412" y="436" type="curve" smooth="yes"/>
      <point x="392" y="250"/>
      <point x="400" y="-24"/>
      <point x="392" y="-153" type="curve" smooth="yes"/>
      <point x="391" y="-168"/>
      <point x="391" y="-205"/>
      <point x="390" y="-221" type="curve" smooth="yes"/>
      <point x="390" y="-229"/>
      <point x="409" y="-236"/>
      <point x="447" y="-221" type="curve" smooth="yes"/>
      <point x="460" y="-216"/>
      <point x="477" y="-210"/>
      <point x="480" y="-229" type="curve"/>
      <point x="481" y="-242"/>
      <point x="465" y="-252"/>
    </contour>
    <contour>
      <point x="195" y="21" type="curve" smooth="yes"/>
      <point x="253" y="21"/>
      <point x="335" y="99"/>
      <point x="354" y="152" type="curve"/>
      <point x="360" y="165"/>
      <point x="367" y="221"/>
      <point x="367" y="243" type="curve" smooth="yes"/>
      <point x="367" y="275"/>
      <point x="372" y="316"/>
      <point x="367" y="349" type="curve" smooth="yes"/>
      <point x="362" y="384"/>
      <point x="321" y="398"/>
      <point x="288" y="398" type="curve" smooth="yes"/>
      <point x="197" y="398"/>
      <point x="66" y="328"/>
      <point x="66" y="149" type="curve" smooth="yes"/>
      <point x="66" y="58"/>
      <point x="137" y="21"/>
    </contour>
  </outline>
</glyph>
<glyph name="r" format="1">
  <advance width="398"/>
  <unicode hex="0072"/>
  <outline>
    <contour>
      <point x="19" y="7" type="curve" smooth="yes"/>
      <point x="19" y="16"/>
      <point x="30" y="21"/>
      <point x="35" y="22" type="curve" smooth="yes"/>
      <point x="125" y="30"/>
      <point x="127" y="29"/>
      <point x="130" y="63" type="curve" smooth="yes"/>
      <point x="139" y="147"/>
      <point x="136" y="273"/>
      <point x="136" y="333" type="curve" smooth="yes"/>
      <point x="136" y="414"/>
      <point x="129" y="391"/>
      <point x="46" y="386" type="curve"/>
      <point x="28" y="386"/>
      <point x="24" y="393"/>
      <point x="24" y="398" type="curve" smooth="yes"/>
      <point x="24" y="407"/>
      <point x="28" y="407"/>
      <point x="46" y="412" type="curve"/>
      <point x="64" y="413"/>
      <point x="119" y="422"/>
      <point x="145" y="426" type="curve" smooth="yes"/>
      <point x="177" y="432"/>
      <point x="173" y="426"/>
      <point x="173" y="398" type="curve" smooth="yes"/>
      <point x="173" y="371"/>
      <point x="172" y="340"/>
      <point x="171" y="315" type="curve" smooth="yes"/>
      <point x="170" y="297"/>
      <point x="184" y="298"/>
      <point x="190" y="314" type="curve" smooth="yes"/>
      <point x="219" y="382"/>
      <point x="276" y="431"/>
      <point x="322" y="431" type="curve" smooth="yes"/>
      <point x="368" y="431"/>
      <point x="375" y="406"/>
      <point x="375" y="375" type="curve" smooth="yes"/>
      <point x="375" y="328"/>
      <point x="363" y="291"/>
      <point x="339" y="258" type="curve" smooth="yes"/>
      <point x="332" y="249"/>
      <point x="322" y="248"/>
      <point x="317" y="253" type="curve" smooth="yes"/>
      <point x="313" y="258"/>
      <point x="310" y="264"/>
      <point x="316" y="275" type="curve" smooth="yes"/>
      <point x="329" y="296"/>
      <point x="343" y="338"/>
      <point x="343" y="367" type="curve" smooth="yes"/>
      <point x="343" y="388"/>
      <point x="331" y="395"/>
      <point x="322" y="395" type="curve" smooth="yes"/>
      <point x="255" y="396"/>
      <point x="203" y="291"/>
      <point x="187" y="251" type="curve" smooth="yes"/>
      <point x="172" y="212"/>
      <point x="168" y="140"/>
      <point x="168" y="103" type="curve"/>
      <point x="170" y="30"/>
      <point x="152" y="28"/>
      <point x="269" y="24" type="curve" smooth="yes"/>
      <point x="284" y="23"/>
      <point x="295" y="20"/>
      <point x="295" y="9" type="curve" smooth="yes"/>
      <point x="295" y="0"/>
      <point x="285" y="-4"/>
      <point x="269" y="-2" type="curve" smooth="yes"/>
      <point x="199" y="4"/>
      <point x="129" y="5"/>
      <point x="42" y="-3" type="curve" smooth="yes"/>
      <point x="36" y="-4"/>
      <point x="20" y="-4"/>
    </contour>
  </outline>
</glyph>
<glyph name="t" format="1">
  <advance width="315"/>
  <unicode hex="0074"/>
  <outline>
    <contour>
      <point x="121" y="545" type="curve" smooth="yes"/>
      <point x="128" y="545"/>
      <point x="132" y="541"/>
      <point x="132" y="535" type="curve" smooth="yes"/>
      <point x="132" y="514"/>
      <point x="128" y="455"/>
      <point x="130" y="428" type="curve" smooth="yes"/>
      <point x="131" y="421"/>
      <point x="131" y="418"/>
      <point x="137" y="418" type="curve" smooth="yes"/>
      <point x="166" y="418"/>
      <point x="224" y="417"/>
      <point x="261" y="424" type="curve" smooth="yes"/>
      <point x="275" y="427"/>
      <point x="281" y="424"/>
      <point x="283" y="418" type="curve" smooth="yes"/>
      <point x="285" y="406"/>
      <point x="281" y="407"/>
      <point x="275" y="396" type="curve" smooth="yes"/>
      <point x="271" y="390"/>
      <point x="264" y="382"/>
      <point x="251" y="383" type="curve" smooth="yes"/>
      <point x="218" y="386"/>
      <point x="163" y="385"/>
      <point x="140" y="385" type="curve" smooth="yes"/>
      <point x="121" y="385"/>
      <point x="125" y="378"/>
      <point x="124" y="367" type="curve" smooth="yes"/>
      <point x="122" y="339"/>
      <point x="118" y="147"/>
      <point x="119" y="119" type="curve" smooth="yes"/>
      <point x="120" y="80"/>
      <point x="125" y="26"/>
      <point x="154" y="26" type="curve" smooth="yes"/>
      <point x="188" y="26"/>
      <point x="233" y="77"/>
      <point x="257" y="101" type="curve" smooth="yes"/>
      <point x="266" y="110"/>
      <point x="274" y="106"/>
      <point x="279" y="100" type="curve"/>
      <point x="284" y="97"/>
      <point x="280" y="88"/>
      <point x="275" y="80" type="curve" smooth="yes"/>
      <point x="261" y="58"/>
      <point x="178" y="-13"/>
      <point x="142" y="-13" type="curve" smooth="yes"/>
      <point x="122" y="-13"/>
      <point x="81" y="17"/>
      <point x="81" y="120" type="curve" smooth="yes"/>
      <point x="81" y="181"/>
      <point x="87" y="272"/>
      <point x="87" y="371" type="curve" smooth="yes"/>
      <point x="87" y="381"/>
      <point x="83" y="385"/>
      <point x="75" y="386" type="curve" smooth="yes"/>
      <point x="65" y="387"/>
      <point x="40" y="387"/>
      <point x="26" y="387" type="curve" smooth="yes"/>
      <point x="16" y="387"/>
      <point x="7" y="390"/>
      <point x="15" y="404" type="curve"/>
      <point x="21" y="412"/>
      <point x="25" y="414"/>
      <point x="35" y="414" type="curve" smooth="yes"/>
      <point x="47" y="414"/>
      <point x="64" y="413"/>
      <point x="73" y="415" type="curve" smooth="yes"/>
      <point x="82" y="416"/>
      <point x="87" y="419"/>
      <point x="90" y="428" type="curve" smooth="yes"/>
      <point x="99" y="451"/>
      <point x="101" y="487"/>
      <point x="109" y="533" type="curve" smooth="yes"/>
      <point x="111" y="540"/>
      <point x="116" y="545"/>
    </contour>
  </outline>
</glyph>
<glyph name="v" format="1">
  <advance width="464"/>
  <unicode hex="0076"/>
  <outline>
    <contour>
      <point x="206" y="-8" type="curve" smooth="yes"/>
      <point x="195" y="-11"/>
      <point x="185" y="34"/>
      <point x="178" y="58" type="curve" smooth="yes"/>
      <point x="150" y="146"/>
      <point x="123" y="227"/>
      <point x="85" y="328" type="curve" smooth="yes"/>
      <point x="67" y="378"/>
      <point x="68" y="391"/>
      <point x="1" y="398" type="curve" smooth="yes"/>
      <point x="-11" y="400"/>
      <point x="-18" y="407"/>
      <point x="-17" y="413" type="curve" smooth="yes"/>
      <point x="-16" y="422"/>
      <point x="-7" y="424"/>
      <point x="7" y="423" type="curve" smooth="yes"/>
      <point x="37" y="419"/>
      <point x="107" y="418"/>
      <point x="142" y="422" type="curve" smooth="yes"/>
      <point x="161" y="424"/>
      <point x="165" y="422"/>
      <point x="167" y="413" type="curve"/>
      <point x="167" y="407"/>
      <point x="161" y="400"/>
      <point x="146" y="398" type="curve" smooth="yes"/>
      <point x="98" y="392"/>
      <point x="119" y="343"/>
      <point x="123" y="325" type="curve" smooth="yes"/>
      <point x="128" y="304"/>
      <point x="194" y="117"/>
      <point x="210" y="77" type="curve" smooth="yes"/>
      <point x="213" y="67"/>
      <point x="226" y="69"/>
      <point x="230" y="77" type="curve" smooth="yes"/>
      <point x="275" y="168"/>
      <point x="333" y="277"/>
      <point x="355" y="352" type="curve" smooth="yes"/>
      <point x="362" y="375"/>
      <point x="361" y="393"/>
      <point x="305" y="398" type="curve" smooth="yes"/>
      <point x="288" y="400"/>
      <point x="281" y="409"/>
      <point x="282" y="415" type="curve" smooth="yes"/>
      <point x="283" y="423"/>
      <point x="290" y="425"/>
      <point x="304" y="423" type="curve" smooth="yes"/>
      <point x="329" y="418"/>
      <point x="349" y="418"/>
      <point x="380" y="418" type="curve" smooth="yes"/>
      <point x="403" y="418"/>
      <point x="425" y="422"/>
      <point x="431" y="423" type="curve"/>
      <point x="440" y="423"/>
      <point x="450" y="422"/>
      <point x="450" y="413" type="curve" smooth="yes"/>
      <point x="450" y="403"/>
      <point x="444" y="399"/>
      <point x="434" y="391" type="curve" smooth="yes"/>
      <point x="414" y="375"/>
      <point x="396" y="351"/>
      <point x="387" y="334" type="curve" smooth="yes"/>
      <point x="362" y="283"/>
      <point x="277" y="108"/>
      <point x="247" y="37" type="curve" smooth="yes"/>
      <point x="243" y="29"/>
      <point x="241" y="24"/>
      <point x="240" y="16" type="curve" smooth="yes"/>
      <point x="238" y="3"/>
      <point x="229" y="-3"/>
    </contour>
  </outline>
</glyph>
<glyph name="w" format="1">
  <advance width="694"/>
  <unicode hex="0077"/>
  <outline>
    <contour>
      <point x="200" y="-10" type="curve" smooth="yes"/>
      <point x="187" y="-10"/>
      <point x="186" y="8"/>
      <point x="183" y="18" type="curve" smooth="yes"/>
      <point x="158" y="119"/>
      <point x="104" y="271"/>
      <point x="69" y="362" type="curve" smooth="yes"/>
      <point x="59" y="388"/>
      <point x="46" y="393"/>
      <point x="7" y="396" type="curve"/>
      <point x="-8" y="396"/>
      <point x="-17" y="403"/>
      <point x="-16" y="412" type="curve" smooth="yes"/>
      <point x="-15" y="417"/>
      <point x="-12" y="423"/>
      <point x="8" y="422" type="curve" smooth="yes"/>
      <point x="47" y="419"/>
      <point x="85" y="420"/>
      <point x="98" y="422" type="curve" smooth="yes"/>
      <point x="125" y="426"/>
      <point x="133" y="421"/>
      <point x="135" y="418" type="curve"/>
      <point x="137" y="409"/>
      <point x="132" y="401"/>
      <point x="125" y="399" type="curve" smooth="yes"/>
      <point x="107" y="395"/>
      <point x="104" y="382"/>
      <point x="107" y="369" type="curve"/>
      <point x="109" y="348"/>
      <point x="195" y="104"/>
      <point x="201" y="86" type="curve" smooth="yes"/>
      <point x="206" y="71"/>
      <point x="212" y="71"/>
      <point x="221" y="82" type="curve" smooth="yes"/>
      <point x="236" y="102"/>
      <point x="285" y="203"/>
      <point x="312" y="253" type="curve" smooth="yes"/>
      <point x="320" y="267"/>
      <point x="346" y="308"/>
      <point x="342" y="332" type="curve" smooth="yes"/>
      <point x="332" y="395"/>
      <point x="323" y="395"/>
      <point x="265" y="399" type="curve" smooth="yes"/>
      <point x="257" y="400"/>
      <point x="247" y="401"/>
      <point x="247" y="410" type="curve" smooth="yes"/>
      <point x="247" y="418"/>
      <point x="253" y="423"/>
      <point x="261" y="423" type="curve" smooth="yes"/>
      <point x="332" y="423"/>
      <point x="339" y="416"/>
      <point x="407" y="423" type="curve"/>
      <point x="428" y="423"/>
      <point x="432" y="423"/>
      <point x="434" y="418" type="curve" smooth="yes"/>
      <point x="438" y="409"/>
      <point x="432" y="401"/>
      <point x="423" y="401" type="curve" smooth="yes"/>
      <point x="354" y="398"/>
      <point x="365" y="370"/>
      <point x="380" y="316" type="curve"/>
      <point x="396" y="253"/>
      <point x="448" y="125"/>
      <point x="458" y="82" type="curve" smooth="yes"/>
      <point x="461" y="72"/>
      <point x="471" y="72"/>
      <point x="476" y="82" type="curve" smooth="yes"/>
      <point x="497" y="130"/>
      <point x="556" y="273"/>
      <point x="571" y="305" type="curve" smooth="yes"/>
      <point x="583" y="331"/>
      <point x="590" y="354"/>
      <point x="590" y="365" type="curve" smooth="yes"/>
      <point x="590" y="392"/>
      <point x="585" y="395"/>
      <point x="534" y="402" type="curve" smooth="yes"/>
      <point x="528" y="402"/>
      <point x="520" y="407"/>
      <point x="521" y="413" type="curve" smooth="yes"/>
      <point x="522" y="422"/>
      <point x="531" y="423"/>
      <point x="537" y="423" type="curve" smooth="yes"/>
      <point x="582" y="418"/>
      <point x="627" y="420"/>
      <point x="657" y="423" type="curve"/>
      <point x="675" y="423"/>
      <point x="681" y="422"/>
      <point x="681" y="413" type="curve" smooth="yes"/>
      <point x="681" y="405"/>
      <point x="673" y="396"/>
      <point x="667" y="396" type="curve" smooth="yes"/>
      <point x="641" y="395"/>
      <point x="618" y="343"/>
      <point x="604" y="313" type="curve" smooth="yes"/>
      <point x="573" y="244"/>
      <point x="524" y="133"/>
      <point x="501" y="71" type="curve" smooth="yes"/>
      <point x="496" y="59"/>
      <point x="489" y="37"/>
      <point x="489" y="21" type="curve" smooth="yes"/>
      <point x="489" y="9"/>
      <point x="477" y="-1"/>
      <point x="458" y="-2" type="curve" smooth="yes"/>
      <point x="447" y="-3"/>
      <point x="445" y="8"/>
      <point x="441" y="22" type="curve" smooth="yes"/>
      <point x="418" y="100"/>
      <point x="386" y="193"/>
      <point x="362" y="257" type="curve" smooth="yes"/>
      <point x="359" y="265"/>
      <point x="348" y="267"/>
      <point x="344" y="259" type="curve" smooth="yes"/>
      <point x="248" y="72" type="line" smooth="yes"/>
      <point x="242" y="60"/>
      <point x="231" y="37"/>
      <point x="230" y="15" type="curve" smooth="yes"/>
      <point x="229" y="0"/>
      <point x="208" y="-10"/>
    </contour>
  </outline>
</glyph>
<glyph name="x" format="1">
  <advance width="546"/>
  <unicode hex="0078"/>
  <outline>
    <contour>
      <point x="49" y="409" type="curve" smooth="yes"/>
      <point x="49" y="422"/>
      <point x="61" y="423"/>
      <point x="82" y="422" type="curve" smooth="yes"/>
      <point x="129" y="418"/>
      <point x="128" y="418"/>
      <point x="180" y="423" type="curve"/>
      <point x="189" y="425"/>
      <point x="202" y="423"/>
      <point x="202" y="414" type="curve" smooth="yes"/>
      <point x="202" y="407"/>
      <point x="196" y="395"/>
      <point x="183" y="392" type="curve" smooth="yes"/>
      <point x="164" y="389"/>
      <point x="176" y="372"/>
      <point x="188" y="354" type="curve" smooth="yes"/>
      <point x="206" y="327"/>
      <point x="248" y="275"/>
      <point x="261" y="260" type="curve" smooth="yes"/>
      <point x="267" y="253"/>
      <point x="274" y="254"/>
      <point x="279" y="259" type="curve" smooth="yes"/>
      <point x="300" y="276"/>
      <point x="354" y="336"/>
      <point x="367" y="354" type="curve" smooth="yes"/>
      <point x="388" y="384"/>
      <point x="387" y="396"/>
      <point x="345" y="400" type="curve" smooth="yes"/>
      <point x="334" y="401"/>
      <point x="326" y="407"/>
      <point x="326" y="416" type="curve" smooth="yes"/>
      <point x="326" y="422"/>
      <point x="332" y="425"/>
      <point x="348" y="424" type="curve" smooth="yes"/>
      <point x="385" y="420"/>
      <point x="429" y="421"/>
      <point x="464" y="423" type="curve" smooth="yes"/>
      <point x="475" y="424"/>
      <point x="480" y="419"/>
      <point x="480" y="413" type="curve" smooth="yes"/>
      <point x="480" y="408"/>
      <point x="476" y="403"/>
      <point x="466" y="396" type="curve"/>
      <point x="458" y="393"/>
      <point x="434" y="376"/>
      <point x="429" y="372" type="curve" smooth="yes"/>
      <point x="380" y="329"/>
      <point x="337" y="277"/>
      <point x="298" y="237" type="curve" smooth="yes"/>
      <point x="290" y="228"/>
      <point x="290" y="225"/>
      <point x="295" y="216" type="curve"/>
      <point x="338" y="157"/>
      <point x="366" y="123"/>
      <point x="413" y="66" type="curve" smooth="yes"/>
      <point x="439" y="35"/>
      <point x="463" y="29"/>
      <point x="497" y="24" type="curve"/>
      <point x="521" y="22"/>
      <point x="526" y="19"/>
      <point x="526" y="8" type="curve" smooth="yes"/>
      <point x="526" y="-1"/>
      <point x="520" y="-5"/>
      <point x="500" y="-4" type="curve"/>
      <point x="458" y="1"/>
      <point x="451" y="4"/>
      <point x="394" y="-4" type="curve" smooth="yes"/>
      <point x="373" y="-6"/>
      <point x="370" y="0"/>
      <point x="370" y="8" type="curve" smooth="yes"/>
      <point x="370" y="12"/>
      <point x="371" y="23"/>
      <point x="382" y="27" type="curve" smooth="yes"/>
      <point x="394" y="31"/>
      <point x="378" y="54"/>
      <point x="371" y="66" type="curve" smooth="yes"/>
      <point x="360" y="83"/>
      <point x="292" y="167"/>
      <point x="274" y="187" type="curve" smooth="yes"/>
      <point x="269" y="193"/>
      <point x="258" y="192"/>
      <point x="253" y="188" type="curve" smooth="yes"/>
      <point x="231" y="169"/>
      <point x="184" y="117"/>
      <point x="164" y="98" type="curve"/>
      <point x="149" y="82"/>
      <point x="119" y="56"/>
      <point x="119" y="45" type="curve" smooth="yes"/>
      <point x="120" y="34"/>
      <point x="144" y="25"/>
      <point x="167" y="25" type="curve" smooth="yes"/>
      <point x="189" y="25"/>
      <point x="195" y="17"/>
      <point x="195" y="8" type="curve" smooth="yes"/>
      <point x="195" y="1"/>
      <point x="181" y="-2"/>
      <point x="168" y="0" type="curve" smooth="yes"/>
      <point x="133" y="3"/>
      <point x="83" y="3"/>
      <point x="37" y="-2" type="curve" smooth="yes"/>
      <point x="28" y="-2"/>
      <point x="20" y="-1"/>
      <point x="20" y="9" type="curve" smooth="yes"/>
      <point x="20" y="23"/>
      <point x="31" y="27"/>
      <point x="43" y="31" type="curve" smooth="yes"/>
      <point x="67" y="40"/>
      <point x="93" y="66"/>
      <point x="125" y="97" type="curve" smooth="yes"/>
      <point x="142" y="114"/>
      <point x="217" y="192"/>
      <point x="231" y="213" type="curve" smooth="yes"/>
      <point x="237" y="221"/>
      <point x="237" y="233"/>
      <point x="231" y="242" type="curve" smooth="yes"/>
      <point x="205" y="277"/>
      <point x="173" y="327"/>
      <point x="132" y="365" type="curve" smooth="yes"/>
      <point x="104" y="392"/>
      <point x="103" y="395"/>
      <point x="66" y="395" type="curve" smooth="yes"/>
      <point x="52" y="395"/>
      <point x="49" y="403"/>
    </contour>
  </outline>
</glyph>
<glyph name="braceleft" format="1">
  <advance width="279"/>
  <unicode hex="007B"/>
  <outline>
    <contour>
      <point x="194" y="631" type="curve" smooth="yes"/>
      <point x="216" y="631"/>
      <point x="218" y="625"/>
      <point x="218" y="618" type="curve" smooth="yes"/>
      <point x="218" y="612"/>
      <point x="213" y="599"/>
      <point x="189" y="598" type="curve" smooth="yes"/>
      <point x="156" y="597"/>
      <point x="102" y="586"/>
      <point x="102" y="535" type="curve" smooth="yes"/>
      <point x="102" y="488"/>
      <point x="196" y="418"/>
      <point x="196" y="355" type="curve" smooth="yes"/>
      <point x="196" y="317"/>
      <point x="162" y="311"/>
      <point x="162" y="300" type="curve" smooth="yes"/>
      <point x="162" y="286"/>
      <point x="194" y="290"/>
      <point x="194" y="249" type="curve" smooth="yes"/>
      <point x="194" y="202"/>
      <point x="102" y="127"/>
      <point x="102" y="77" type="curve" smooth="yes"/>
      <point x="102" y="3"/>
      <point x="147" y="-1"/>
      <point x="189" y="-3" type="curve" smooth="yes"/>
      <point x="204" y="-3"/>
      <point x="218" y="-5"/>
      <point x="218" y="-16" type="curve" smooth="yes"/>
      <point x="218" y="-27"/>
      <point x="208" y="-34"/>
      <point x="180" y="-34" type="curve" smooth="yes"/>
      <point x="111" y="-34"/>
      <point x="66" y="2"/>
      <point x="66" y="76" type="curve" smooth="yes"/>
      <point x="66" y="143"/>
      <point x="156" y="186"/>
      <point x="156" y="253" type="curve" smooth="yes"/>
      <point x="156" y="273"/>
      <point x="127" y="283"/>
      <point x="92" y="283" type="curve" smooth="yes"/>
      <point x="77" y="283"/>
      <point x="59" y="279"/>
      <point x="46" y="279" type="curve" smooth="yes"/>
      <point x="35" y="279"/>
      <point x="30" y="290"/>
      <point x="33" y="301" type="curve" smooth="yes"/>
      <point x="35" y="312"/>
      <point x="42" y="316"/>
      <point x="54" y="316" type="curve" smooth="yes"/>
      <point x="66" y="316"/>
      <point x="78" y="313"/>
      <point x="98" y="313" type="curve" smooth="yes"/>
      <point x="117" y="313"/>
      <point x="165" y="316"/>
      <point x="165" y="357" type="curve" smooth="yes"/>
      <point x="165" y="407"/>
      <point x="65" y="464"/>
      <point x="65" y="536" type="curve" smooth="yes"/>
      <point x="65" y="599"/>
      <point x="145" y="631"/>
    </contour>
  </outline>
</glyph>
<glyph name="bar" format="1">
  <advance width="303"/>
  <unicode hex="007C"/>
  <outline>
    <contour>
      <point x="127" y="-25" type="curve" smooth="yes"/>
      <point x="127" y="20"/>
      <point x="129" y="491"/>
      <point x="130" y="538" type="curve" smooth="yes"/>
      <point x="130" y="551"/>
      <point x="127" y="564"/>
      <point x="134" y="575" type="curve"/>
      <point x="142" y="591"/>
      <point x="157" y="603"/>
      <point x="164" y="603" type="curve" smooth="yes"/>
      <point x="177" y="603"/>
      <point x="176" y="584"/>
      <point x="168" y="566" type="curve" smooth="yes"/>
      <point x="165" y="558"/>
      <point x="164" y="547"/>
      <point x="163" y="540" type="curve" smooth="yes"/>
      <point x="158" y="444"/>
      <point x="159" y="153"/>
      <point x="162" y="-8" type="curve" smooth="yes"/>
      <point x="162" y="-29"/>
      <point x="159" y="-42"/>
      <point x="145" y="-49" type="curve" smooth="yes"/>
      <point x="132" y="-55"/>
      <point x="127" y="-46"/>
    </contour>
  </outline>
</glyph>
<glyph name="braceright" format="1">
  <advance width="279"/>
  <unicode hex="007D"/>
  <outline>
    <contour>
      <point x="81" y="-34" type="curve" smooth="yes"/>
      <point x="58" y="-34"/>
      <point x="56" y="-27"/>
      <point x="56" y="-20" type="curve" smooth="yes"/>
      <point x="56" y="-14"/>
      <point x="61" y="-2"/>
      <point x="85" y="-1" type="curve" smooth="yes"/>
      <point x="119" y="1"/>
      <point x="175" y="12"/>
      <point x="175" y="63" type="curve" smooth="yes"/>
      <point x="175" y="109"/>
      <point x="81" y="180"/>
      <point x="81" y="242" type="curve" smooth="yes"/>
      <point x="81" y="280"/>
      <point x="114" y="286"/>
      <point x="114" y="298" type="curve" smooth="yes"/>
      <point x="114" y="311"/>
      <point x="83" y="307"/>
      <point x="83" y="348" type="curve" smooth="yes"/>
      <point x="83" y="396"/>
      <point x="175" y="471"/>
      <point x="175" y="521" type="curve" smooth="yes"/>
      <point x="175" y="594"/>
      <point x="133" y="598"/>
      <point x="92" y="600" type="curve" smooth="yes"/>
      <point x="77" y="601"/>
      <point x="62" y="603"/>
      <point x="62" y="614" type="curve" smooth="yes"/>
      <point x="62" y="625"/>
      <point x="72" y="631"/>
      <point x="100" y="631" type="curve" smooth="yes"/>
      <point x="169" y="631"/>
      <point x="211" y="596"/>
      <point x="211" y="522" type="curve" smooth="yes"/>
      <point x="211" y="455"/>
      <point x="121" y="412"/>
      <point x="121" y="345" type="curve" smooth="yes"/>
      <point x="121" y="325"/>
      <point x="150" y="315"/>
      <point x="185" y="315" type="curve" smooth="yes"/>
      <point x="199" y="315"/>
      <point x="218" y="318"/>
      <point x="231" y="318" type="curve" smooth="yes"/>
      <point x="242" y="318"/>
      <point x="247" y="307"/>
      <point x="244" y="296" type="curve" smooth="yes"/>
      <point x="242" y="285"/>
      <point x="235" y="281"/>
      <point x="223" y="281" type="curve" smooth="yes"/>
      <point x="211" y="281"/>
      <point x="199" y="285"/>
      <point x="179" y="285" type="curve" smooth="yes"/>
      <point x="160" y="285"/>
      <point x="112" y="282"/>
      <point x="112" y="241" type="curve" smooth="yes"/>
      <point x="112" y="191"/>
      <point x="212" y="134"/>
      <point x="212" y="61" type="curve" smooth="yes"/>
      <point x="212" y="-2"/>
      <point x="130" y="-34"/>
    </contour>
  </outline>
</glyph>
<glyph name="asciitilde" format="1">
  <advance width="436"/>
  <unicode hex="007E"/>
  <outline>
    <contour>
      <point x="41" y="230" type="curve" smooth="yes"/>
      <point x="36" y="234"/>
      <point x="40" y="248"/>
      <point x="48" y="258" type="curve" smooth="yes"/>
      <point x="82" y="298"/>
      <point x="125" y="313"/>
      <point x="146" y="313" type="curve" smooth="yes"/>
      <point x="168" y="313"/>
      <point x="194" y="303"/>
      <point x="223" y="287" type="curve" smooth="yes"/>
      <point x="245" y="275"/>
      <point x="274" y="263"/>
      <point x="301" y="263" type="curve" smooth="yes"/>
      <point x="322" y="263"/>
      <point x="353" y="283"/>
      <point x="364" y="298" type="curve" smooth="yes"/>
      <point x="372" y="310"/>
      <point x="383" y="318"/>
      <point x="391" y="315" type="curve" smooth="yes"/>
      <point x="397" y="312"/>
      <point x="401" y="305"/>
      <point x="392" y="290" type="curve" smooth="yes"/>
      <point x="371" y="253"/>
      <point x="322" y="229"/>
      <point x="294" y="229" type="curve" smooth="yes"/>
      <point x="263" y="229"/>
      <point x="233" y="240"/>
      <point x="208" y="254" type="curve" smooth="yes"/>
      <point x="178" y="271"/>
      <point x="152" y="277"/>
      <point x="139" y="277" type="curve" smooth="yes"/>
      <point x="116" y="277"/>
      <point x="85" y="255"/>
      <point x="68" y="235" type="curve" smooth="yes"/>
      <point x="62" y="227"/>
      <point x="50" y="223"/>
    </contour>
  </outline>
</glyph>
<glyph name="exclamdown" format="1">
  <advance width="230"/>
  <unicode hex="00A1"/>
  <outline>
    <contour>
      <point x="111" y="359" type="curve" smooth="yes"/>
      <point x="90" y="359"/>
      <point x="71" y="369"/>
      <point x="71" y="387" type="curve" smooth="yes"/>
      <point x="71" y="416"/>
      <point x="96" y="429"/>
      <point x="118" y="429" type="curve" smooth="yes"/>
      <point x="152" y="429"/>
      <point x="160" y="410"/>
      <point x="160" y="395" type="curve" smooth="yes"/>
      <point x="160" y="370"/>
      <point x="127" y="359"/>
    </contour>
    <contour>
      <point x="128" y="227" type="curve" smooth="yes"/>
      <point x="128" y="146"/>
      <point x="128" y="-76"/>
      <point x="132" y="-123" type="curve" smooth="yes"/>
      <point x="133" y="-136"/>
      <point x="135" y="-149"/>
      <point x="128" y="-160" type="curve"/>
      <point x="120" y="-176"/>
      <point x="96" y="-188"/>
      <point x="88" y="-188" type="curve" smooth="yes"/>
      <point x="76" y="-188"/>
      <point x="77" y="-169"/>
      <point x="84" y="-151" type="curve" smooth="yes"/>
      <point x="88" y="-143"/>
      <point x="88" y="-130"/>
      <point x="89" y="-123" type="curve" smooth="yes"/>
      <point x="96" y="-28"/>
      <point x="98" y="57"/>
      <point x="97" y="210" type="curve" smooth="yes"/>
      <point x="97" y="231"/>
      <point x="98" y="244"/>
      <point x="112" y="251" type="curve" smooth="yes"/>
      <point x="125" y="257"/>
      <point x="128" y="248"/>
    </contour>
  </outline>
</glyph>
